<svg xmlns="http://www.w3.org/2000/svg" width="9" height="17"><defs><filter id="smjia" width="29" height="37" x="-10" y="-10" filterUnits="userSpaceOnUse"><feOffset dy="1" in="SourceGraphic" result="FeOffset1032Out"/><feGaussianBlur in="FeOffset1032Out" result="FeGaussianBlur1033Out" stdDeviation="0 0"/></filter><mask id="smjib" width="2" height="2" x="-1" y="-1"><path fill="#fff" d="M0 0h9v16H0z"/><path d="M.278 7.443l6.383-6.397a.771.771 0 01.555-.229c.21 0 .407.08.554.229l.47.474a.787.787 0 010 1.11L2.88 7.995l5.366 5.376a.78.78 0 01.23.555.77.77 0 01-.23.554l-.47.475a.792.792 0 01-1.11 0L.279 8.557a.79.79 0 01-.229-.562c0-.21.081-.408.23-.552z"/></mask></defs><g filter="url(#smjia)"><path fill="none" d="M.278 7.443l6.383-6.397a.771.771 0 01.555-.229c.21 0 .407.08.554.229l.47.474a.787.787 0 010 1.11L2.88 7.995l5.366 5.376a.78.78 0 01.23.555.77.77 0 01-.23.554l-.47.475a.792.792 0 01-1.11 0L.279 8.557a.79.79 0 01-.229-.562c0-.21.081-.408.23-.552z" mask="url(&quot;#smjib&quot;)"/><path fill="#fff" fill-opacity=".6" d="M.278 7.443l6.383-6.397a.771.771 0 01.555-.229c.21 0 .407.08.554.229l.47.474a.787.787 0 010 1.11L2.88 7.995l5.366 5.376a.78.78 0 01.23.555.77.77 0 01-.23.554l-.47.475a.792.792 0 01-1.11 0L.279 8.557a.79.79 0 01-.229-.562c0-.21.081-.408.23-.552z"/></g><path fill="#13141c" d="M.278 7.443l6.383-6.397a.771.771 0 01.555-.229c.21 0 .407.08.554.229l.47.474a.787.787 0 010 1.11L2.88 7.995l5.366 5.376a.78.78 0 01.23.555.77.77 0 01-.23.554l-.47.475a.792.792 0 01-1.11 0L.279 8.557a.79.79 0 01-.229-.562c0-.21.081-.408.23-.552z"/></svg>