<svg xmlns="http://www.w3.org/2000/svg" width="23" height="23"><path fill="#fff" d="M22.425 11.214c0 3.045-.014 3.426-.066 4.622-.053 1.192-.246 2.007-.522 2.72a5.735 5.735 0 01-3.281 3.282c-.71.276-1.53.468-2.721.521-1.196.053-1.577.066-4.623.066-3.045 0-3.426-.013-4.622-.066-1.192-.053-2.007-.245-2.721-.521a5.511 5.511 0 01-1.985-1.293 5.528 5.528 0 01-1.297-1.988c-.276-.71-.469-1.53-.521-2.72C.013 14.64 0 14.258 0 11.213 0 8.17.013 7.79.07 6.59c.053-1.192.246-2.007.522-2.721a5.523 5.523 0 011.292-1.984A5.471 5.471 0 013.874.587c.71-.276 1.529-.469 2.72-.521C7.79.013 8.172 0 11.217 0s3.426.013 4.627.07c1.191.053 2.006.245 2.72.521.745.28 1.424.723 1.985 1.293a5.476 5.476 0 011.297 1.988c.276.71.469 1.53.522 2.72.052 1.197.057 1.578.057 4.622zm-2.012.01c0-2.993-.013-3.347-.065-4.53-.049-1.091-.232-1.687-.386-2.081a3.488 3.488 0 00-.837-1.288 3.449 3.449 0 00-1.288-.837c-.394-.153-.986-.337-2.081-.385-1.179-.053-1.534-.066-4.53-.066-2.993 0-3.348.013-4.531.066-1.09.048-1.687.232-2.081.385-.487.18-.925.465-1.288.837a3.41 3.41 0 00-.842 1.288c-.153.394-.337.986-.385 2.08-.053 1.179-.066 1.538-.066 4.53s.013 3.347.066 4.53c.048 1.09.232 1.687.385 2.08.18.487.465.925.837 1.289.36.372.802.657 1.288.836.395.154.986.338 2.082.386 1.178.053 1.538.066 4.53.066 2.993 0 3.348-.013 4.53-.066 1.092-.048 1.687-.232 2.082-.386a3.72 3.72 0 002.13-2.128c.153-.395.336-.986.385-2.082.052-1.182.065-1.533.065-4.525zm-3.435-.01a5.763 5.763 0 01-11.523 0 5.762 5.762 0 0111.523 0zm-2.024 0a3.738 3.738 0 10-7.475.002 3.738 3.738 0 007.475-.002zm3.597-5.988a1.345 1.345 0 11-2.69 0 1.345 1.345 0 012.69 0z"/></svg>