<svg xmlns="http://www.w3.org/2000/svg" width="57" height="53"><path fill="#4896ff" d="M10.626 28.507h12.166v1.872H10.626zm0 3.744H20.92v1.872H10.626zm0 3.744H20.92v1.872H10.626zm29.012-4.68h9.358v1.872h-9.358zm-1.872 3.744h11.23v1.872h-11.23zM27.472 6.042h9.358v1.872h-9.358zm0 3.744h9.358v1.872h-9.358zm0 3.744h10.294v1.873H27.472zm10.294 25.274h11.23v1.871h-11.23zM7.819 7.914H9.69v2.808H7.819zM9.69 6.042h2.807v1.872H9.691zM7.819 3.234H9.69v2.808H7.819zM5.01 6.042h2.81v1.872H5.01zm43.05 14.883c0 .219-.015.438-.04.655.462.223.913.47 1.35.739 7.032 4.332 9.222 13.547 4.89 20.58l2.195 8.782a.938.938 0 01-1.268 1.091L46.52 49.16a14.89 14.89 0 01-17.228-5.471 13.938 13.938 0 01-5.767 3.083 5.604 5.604 0 01-11.028-1.416c0-.1 0-.199.011-.29a14.108 14.108 0 01-1.95-1.483l-9.206.836a.936.936 0 01-.79-1.553L6.309 36.3a13.867 13.867 0 01-.362-3.113c.002-.524.035-1.048.1-1.568a7.49 7.49 0 01-1.213-10.896 7.486 7.486 0 0110.558-.793 14.153 14.153 0 012.721-.655V6.135a5.715 5.715 0 015.709-5.71h18.53a5.715 5.715 0 015.708 5.71v.843h7.487c.517 0 .936.42.936.936a8.432 8.432 0 01-8.423 8.424zM28.287 42.069a14.903 14.903 0 01.86-15.434h-5.325a5.709 5.709 0 01-5.697-5.468c-.888.14-1.758.377-2.595.706a.936.936 0 01-.994-.199 5.615 5.615 0 00-8.674.97A5.617 5.617 0 007.565 30.4a.937.937 0 01.413.926c-.277 1.66-.188 3.36.263 4.982a.935.935 0 01-.2.856L3.514 42.34l7.293-.664c.271-.024.54.07.736.26a12.206 12.206 0 002.433 1.823.936.936 0 01.459.969c-.039.207-.06.417-.066.628a3.733 3.733 0 007.431.515.936.936 0 01.733-.788 12.07 12.07 0 005.754-3.014zM47.49 23.396a5.708 5.708 0 01-5.14 3.239H31.49a13.09 13.09 0 00-2.203 13.15c2.602 6.744 10.178 10.1 16.92 7.496a.935.935 0 01.695.01l7.286 3.036-1.84-7.363a.937.937 0 01.125-.74 13.045 13.045 0 002.14-7.165 13.085 13.085 0 00-7.12-11.663zm.569-8.93a6.562 6.562 0 006.485-5.616h-7.42a.936.936 0 01-.936-.936V6.135a3.842 3.842 0 00-3.838-3.837H23.82a3.842 3.842 0 00-3.836 3.837v14.79a3.842 3.842 0 003.837 3.838h18.53a3.842 3.842 0 003.837-3.838v-5.522c0-.518.419-.937.935-.937z"/></svg>