<svg xmlns="http://www.w3.org/2000/svg" width="58" height="57"><path fill="#4896ff" d="M48.853 5.895a.835.835 0 01-.337-1.6A48.854 48.854 0 0056.032.157a.835.835 0 01.93 1.386 50.552 50.552 0 01-7.773 4.282.833.833 0 01-.336.07zm-.034 28.068v2.682h7.678a.835.835 0 110 1.67h-4.115c-.826 1.026-2.045 3.586-1.594 6.658a.835.835 0 01-1.652.243 11.186 11.186 0 01.454-5.085c.214-.647.487-1.268.793-1.817h-2.081c-1.983 1.828-3.404 4.995-4.23 9.427h12.425c.461 0 .835.374.835.835v7.59a.835.835 0 01-.835.834H1.185a.835.835 0 01-.835-.835v-7.59c0-.46.374-.834.835-.834h12.424c-.825-4.433-2.246-7.599-4.23-9.427H7.293c.9 1.617 1.663 4.119 1.254 6.902a.835.835 0 01-1.652-.243c.451-3.072-.768-5.632-1.594-6.659H1.185a.835.835 0 110-1.669h7.678v-2.682H1.185a.835.835 0 010-1.67h1.522c.523-1.413 1.9-5.504 1.9-9.39a.835.835 0 111.669 0c0 3.742-1.144 7.539-1.792 9.39h.626c.496-.485 1.758-1.813 3.006-3.869 1.459-2.405 3.198-6.335 3.198-11.395a.835.835 0 111.67 0c0 5.476-1.89 9.722-3.476 12.32a23.375 23.375 0 01-2.124 2.945H9.5c4.116-2.056 6.889-5.84 8.24-11.255 1.083-4.332 1.037-8.816.77-12A50.693 50.693 0 01.72 1.542.835.835 0 011.65.156a48.97 48.97 0 0021.424 7.942 49.03 49.03 0 0022.4-2.58.835.835 0 01.57 1.57 50.127 50.127 0 01-6.873 1.946c-.266 3.185-.312 7.671.77 12.005 1.352 5.414 4.125 9.199 8.241 11.255h2.116a23.376 23.376 0 01-2.124-2.946c-1.586-2.597-3.476-6.843-3.476-12.319a.835.835 0 111.67 0c0 8.701 5.08 14.163 6.204 15.265h.626c-.648-1.852-1.792-5.65-1.792-9.39a.835.835 0 111.67 0c0 3.885 1.376 7.976 1.899 9.39h1.522a.835.835 0 010 1.67zm-6.442 13.778c.88-4.937 2.484-8.51 4.772-10.634v-3.465c-4.414-2.311-7.383-6.412-8.828-12.198-1.084-4.344-1.092-8.804-.85-12.084a50.918 50.918 0 01-8.672.746 49.726 49.726 0 01-8.589-.741c.243 3.28.235 7.737-.85 12.079-1.444 5.786-4.413 9.886-8.828 12.198v3.465c2.289 2.124 3.892 5.697 4.773 10.634h3.384a.835.835 0 010 1.67H2.019v5.92h53.643v-5.92H22.025a.835.835 0 110-1.67h5.981V37.105a2.943 2.943 0 01-2.103-2.817v-1.884a2.942 2.942 0 012.938-2.939 2.942 2.942 0 012.938 2.939v1.884c0 1.33-.889 2.456-2.103 2.817v10.636zM30.11 34.288v-1.884a1.27 1.27 0 00-2.537 0v1.884a1.27 1.27 0 002.537 0z"/></svg>