<svg xmlns="http://www.w3.org/2000/svg" width="57" height="57"><path fill="#4896ff" d="M37.168 34.886a3.625 3.625 0 011.675 3.05 5.328 5.328 0 01-1.55 3.741l-4.684 4.685a17.568 17.568 0 01-10.106 5.007V57H6.162V44.738a9.99 9.99 0 01-1.81-5.713 9.94 9.94 0 015.441-8.904v-3.513l-3.598-2.52a12.858 12.858 0 01-5.48-10.524C.715 6.48 6.479.717 13.562.714h6.217c4.505 0 8.17 3.666 8.17 8.171a2.727 2.727 0 01-2.723 2.723H24.15c.104.291.167.597.166.914l-.002.886a3.52 3.52 0 001.034 2.489c.5.495.787 1.184.787 1.89a2.649 2.649 0 01-1.473 2.382l-.343.171v5.333a4.097 4.097 0 01-5.216 3.936l-2.045-.584v3.453a13.89 13.89 0 015.447 11.055v.526a8.056 8.056 0 002.712-1.231l2.19-1.534c-.062-.13-.13-.256-.176-.394a3.606 3.606 0 01.197-2.772l3.63-7.263a3.607 3.607 0 012.34-1.887V18.873h1.815v10.109c.244.063.485.143.712.256a3.615 3.615 0 011.827 2.102 3.608 3.608 0 01-.197 2.774zM29.05 38.94a1.8 1.8 0 00-.121 1.289l2.65-1.857v-.435a3.635 3.635 0 013.632-3.631c.071 0 .136.016.206.02l.513-1.024c.216-.433.252-.926.098-1.386a1.808 1.808 0 00-.913-1.051c-.869-.43-1.999-.054-2.434.813zm-6.548-16.435h-3.476a2.729 2.729 0 002.568 1.815h.908zm1.815-4.716a.852.852 0 00-.25-.6 5.347 5.347 0 01-1.57-3.783l.001-.886a.904.904 0 00-.908-.909h-7.259a2.727 2.727 0 00-2.723 2.724v.907h-1.514a2.12 2.12 0 00-2.117 2.118c0 .664.316 1.297.847 1.695l2.784 2.088v8.799a13.97 13.97 0 013.631 1.355v-2.79l-2.064-.59.499-1.746 5.925 1.693a2.28 2.28 0 002.855-1.729h-.86a4.544 4.544 0 01-4.54-4.538v-.908h5.448V19.22l1.347-.674a.84.84 0 00.468-.757zM9.793 24.39v-2.34l-2.058-1.544a3.953 3.953 0 01-1.573-3.147 3.939 3.939 0 013.72-3.928 4.547 4.547 0 014.45-3.636h10.894a.91.91 0 00.908-.908 6.362 6.362 0 00-6.355-6.355h-6.217C7.48 2.532 2.53 7.482 2.53 13.564A11.04 11.04 0 007.236 22.6zM6.168 39.02a8.176 8.176 0 002.063 5.425 15.713 15.713 0 003.815 3.13 7.213 7.213 0 002.702-3.38 9.892 9.892 0 01-3.457-4.52 1.286 1.286 0 00-1.2-.832h-.298v-1.816h.299a3.11 3.11 0 012.9 2.01c1.191 3.178 4.3 5.334 7.695 5.252v-.757c0-5.856-4.124-10.82-9.85-11.912l-.144.072a8.137 8.137 0 00-4.525 7.329zm14.519 12.502c-.204.008-.405.03-.61.03a17.618 17.618 0 01-12.1-4.782v8.413h12.71zm16.34-13.587a1.818 1.818 0 00-1.815-1.815 1.818 1.818 0 00-1.815 1.815v1.38l-7.14 4.999a9.87 9.87 0 01-9.937.82 9.009 9.009 0 01-2.456 3.34 15.71 15.71 0 006.135 1.263c4.327 0 8.32-1.654 11.326-4.66l4.685-4.684a3.502 3.502 0 001.018-2.458zm-18.156-24.51h1.816a2.727 2.727 0 01-2.723 2.723 2.727 2.727 0 01-2.724-2.723h1.816c0 .5.407.908.908.908a.91.91 0 00.907-.908zm7.263 9.078h1.816v3.63h-1.816zm3.631-1.816h1.816v7.262h-1.816zm10.894 1.816h1.816v3.63h-1.816zm-3.631-1.816h1.815v7.262h-1.815zM52.46.717A4.544 4.544 0 0157 5.256v7.262a4.544 4.544 0 01-4.54 4.539h-3.355l-4.868 3.245a2.304 2.304 0 01-3.578-1.915v-1.33h-6.355a4.544 4.544 0 01-4.539-4.539V5.256a4.544 4.544 0 014.54-4.54zm2.723 4.539a2.727 2.727 0 00-2.723-2.724H34.304a2.727 2.727 0 00-2.723 2.724v7.262a2.727 2.727 0 002.723 2.723h8.17v3.146c0 .363.452.604.756.404l5.324-3.55h3.907a2.727 2.727 0 002.723-2.723zm-16.34 3.63a2.727 2.727 0 01-2.724 2.724 2.727 2.727 0 01-2.723-2.723 2.727 2.727 0 012.723-2.723 2.727 2.727 0 012.723 2.723zm-1.816 0a.91.91 0 00-.908-.907.91.91 0 00-.908.908c0 .5.408.908.908.908a.91.91 0 00.908-.908zm9.078 0a2.727 2.727 0 01-2.723 2.724 2.727 2.727 0 01-2.724-2.723 2.727 2.727 0 012.724-2.723 2.727 2.727 0 012.723 2.723zm-1.816 0a.91.91 0 00-.907-.907.91.91 0 00-.908.908c0 .5.407.908.908.908a.91.91 0 00.907-.908zm9.079 0a2.727 2.727 0 01-2.724 2.724 2.727 2.727 0 01-2.723-2.723 2.727 2.727 0 012.723-2.723 2.727 2.727 0 012.724 2.723zm-1.816 0a.91.91 0 00-.908-.907.91.91 0 00-.908.908c0 .5.408.908.908.908a.91.91 0 00.908-.908z"/></svg>