<svg xmlns="http://www.w3.org/2000/svg" width="57" height="57"><path fill="#4896ff" d="M1.012 6.269a.932.932 0 01.519-1.592l3.386-.491L6.434 1.12a.974.974 0 011.675 0l1.513 3.065 3.386.491a.933.933 0 01.518 1.591L11.073 8.65l.58 3.368a.933.933 0 01-1.356.984L7.27 11.416l-3.03 1.586a.917.917 0 01-.433.11.932.932 0 01-.435-1.759l3.462-1.818a.935.935 0 01.869 0l1.786.94-.341-1.99a.932.932 0 01.269-.826l1.448-1.407-2-.29a.934.934 0 01-.703-.51l-.893-1.81-.894 1.81a.934.934 0 01-.703.51l-2 .29 1.449 1.407a.934.934 0 11-1.308 1.337zm54.956 24.527a.934.934 0 01.517 1.591l-2.452 2.382.579 3.368a.932.932 0 01-1.355.983l-3.029-1.585-3.029 1.585a.935.935 0 01-1.352-.979l.58-3.368-2.451-2.386a.933.933 0 01.517-1.591l3.386-.492 1.514-3.064a.974.974 0 011.676 0l1.51 3.064 3.387.492zm-2.144 1.575l-1.999-.29a.933.933 0 01-.703-.51l-.894-1.81-.894 1.81a.933.933 0 01-.703.51l-2 .29 1.447 1.407c.22.215.321.524.27.827l-.343 1.988 1.789-.936a.935.935 0 01.868 0l1.789.94-.342-1.99a.932.932 0 01.269-.826zM11.45 15.036a.972.972 0 011.329.352l1.223 2.48 2.741.397a.934.934 0 01.517 1.592l-1.982 1.93.467 2.727a.932.932 0 01-1.355.984l-2.452-1.288-2.451 1.291a.934.934 0 01-1.356-.987l.467-2.726-1.983-1.931a.932.932 0 01.516-1.592l2.741-.397 1.226-2.48a.971.971 0 01.352-.352zm1.797 4.608a.934.934 0 01-.704-.51l-.605-1.226-.608 1.225a.934.934 0 01-.703.511l-1.354.196.98.954c.22.214.32.523.268.826l-.231 1.347 1.214-.637a.94.94 0 01.868 0l1.21.637-.232-1.347a.932.932 0 01.27-.826l.978-.954zm33.245 25.073v11.194a.933.933 0 01-1.867 0v-6.53h-3.736v6.53a.933.933 0 01-1.868 0V48.45c0-.516.418-.933.934-.933h4.67v-2.799a6.54 6.54 0 00-6.538-6.53H36.22a4.667 4.667 0 01-4.67 4.665 4.667 4.667 0 01-4.67-4.664v-1.262a9.326 9.326 0 01-4.669-8.067v-.028a4.616 4.616 0 01-.934-2.77v-1.866c0-.515.418-.932.934-.932h16.81v-1.866H24.08a6.54 6.54 0 01-6.537-6.53v-3.73c0-.516.418-.934.933-.934h8.406a.933.933 0 110 1.866H19.41v2.798a4.673 4.673 0 003.744 4.571 6.502 6.502 0 01-1.876-4.57.933.933 0 011.868 0 4.672 4.672 0 004.67 4.663h.102a6.504 6.504 0 01-1.97-4.664.933.933 0 011.867 0 4.672 4.672 0 004.67 4.664h6.486a8.414 8.414 0 00-8.354-7.462.933.933 0 110-1.866c5.671.007 10.266 4.597 10.273 10.261v.397l2.834-1.488a.93.93 0 01.869 0l5.543 2.908-1.062-6.161a.932.932 0 01.269-.825l4.482-4.364-6.193-.9a.934.934 0 01-.703-.51l-2.77-5.606-2.774 5.611a.934.934 0 01-.703.51l-3.714.54a.937.937 0 11-.262-1.853l3.229-.467 3.39-6.86a.973.973 0 011.674 0l3.387 6.86 7.583 1.102a.933.933 0 01.517 1.591L51 16.288l1.294 7.54a.933.933 0 01-1.355.984l-6.78-3.56-3.269 1.717v.294c.516 0 .934.417.934.932v1.866c-.003 1-.33 1.972-.934 2.77v.028a9.309 9.309 0 01-3.759 7.463h.957c4.64.006 8.4 3.761 8.405 8.395zm-7.183-16.89a2.77 2.77 0 00.646-1.766v-.933h-3.349zm-4.957-1.766a2.772 2.772 0 003.299 2.748l-3.3-3.295zm-11.157.556a2.772 2.772 0 003.248 2.192l-3.298-3.295v.547c-.002.187.015.373.05.556zm4.907 1.21a2.77 2.77 0 00.646-1.766v-.933H25.4zm-3.863 2.564a7.467 7.467 0 005.775 5.769c4.038.847 7.999-1.735 8.848-5.769a4.628 4.628 0 01-1.709.334 4.672 4.672 0 01-4.669-4.664v-.933h-1.868v.933a4.673 4.673 0 01-4.67 4.664 4.63 4.63 0 01-1.708-.334zm10.113 7.797v-.43a9.341 9.341 0 01-5.604 0v.43a2.8 2.8 0 002.802 2.798 2.8 2.8 0 002.802-2.798zm-6.122-4.821a.932.932 0 111.037-1.552 4.113 4.113 0 004.566 0 .932.932 0 111.037 1.552 5.974 5.974 0 01-6.64 0zm-4.15 15.082v7.462a.933.933 0 01-1.868 0v-6.53h-3.735V52.4l1.994 2.993a.935.935 0 01-1.554 1.035l-5.323-7.98h-3.516l3.899 7.011a.934.934 0 01-1.632.907l-4.452-8.003a4.631 4.631 0 01-1.853-.782l-4.182-2.985a2.68 2.68 0 01-.744-3.568 2.688 2.688 0 013.686-.916l.602.36V35.39a2.799 2.799 0 011.868-2.627V28.86c0-.515.418-.932.934-.932h3.735c.516 0 .934.417.934.932v3.903a2.799 2.799 0 011.868 2.627v5.597a2.788 2.788 0 01-1.486 2.455 5.573 5.573 0 011.758 3.769l1.596 2.392v-4.885a8.406 8.406 0 016.255-8.109.933.933 0 01.441 1.813 6.538 6.538 0 00-4.829 6.296v2.799h4.67c.516 0 .934.417.934.933zM9.136 32.59h1.868v-2.799H9.136zm-1.867 9l.545.328h4.124a.933.933 0 00.934-.933V35.39a.933.933 0 00-.934-.932H8.203a.933.933 0 00-.934.932zm5.772 4.992a3.74 3.74 0 00-3.617-2.798H7.556a.937.937 0 01-.48-.135l-3.238-1.94a.819.819 0 00-.896 1.367l4.183 2.985c.474.34 1.044.522 1.628.52zm23.314-.333a.932.932 0 01.517 1.591l-1.982 1.931.467 2.727a.932.932 0 01-1.355.983l-2.452-1.287-2.451 1.29a.934.934 0 01-1.352-.986l.467-2.727-1.983-1.93a.932.932 0 01.518-1.592l2.74-.397 1.226-2.48a.973.973 0 011.675 0l1.223 2.48 2.741.397zm-2.142 1.575l-1.355-.196a.934.934 0 01-.703-.512l-.605-1.224-.608 1.224a.934.934 0 01-.703.512l-1.354.196.98.954a.93.93 0 01.268.825l-.231 1.347 1.214-.637a.94.94 0 01.868 0l1.21.637-.232-1.347a.932.932 0 01.269-.825z"/></svg>