<svg xmlns="http://www.w3.org/2000/svg" width="56" height="56"><path fill="#4896ff" d="M20.936 49.789v5.392a.822.822 0 01-1.641 0V49.79c0-.69-.384-1.312-1.001-1.621l-2.59-1.294a6.07 6.07 0 01-5.236 2.987 6.11 6.11 0 01-5.236-2.987l-2.59 1.294c-.617.309-1 .93-1 1.62v5.393a.822.822 0 01-1.642 0V49.79c0-1.319.731-2.498 1.908-3.09l3.268-1.63C2.99 44.446 1.615 43.634.93 43.155a1.684 1.684 0 01-.601-2.034c.649-1.564 1.411-4.542 1.425-7.785.018-4.51 3.485-8.357 7.892-8.762a9.257 9.257 0 011.644 0c4.407.405 7.873 4.252 7.892 8.762.014 3.243.776 6.221 1.425 7.785a1.684 1.684 0 01-.6 2.034c-.686.48-2.061 1.29-4.247 1.912l3.268 1.631a3.436 3.436 0 011.908 3.09zm-6.704-3.65l-.53-.264a2.567 2.567 0 01-1.423-2.305v-.966a6.926 6.926 0 01-3.622 0v.966c0 .98-.545 1.864-1.423 2.305l-.527.263a4.462 4.462 0 003.761 2.082 4.43 4.43 0 003.764-2.082zm4.833-4.325c.015-.013.038-.035.026-.064-.706-1.701-1.536-4.927-1.55-8.407-.015-3.67-2.827-6.804-6.402-7.133a7.47 7.47 0 00-1.342 0c-3.575.329-6.387 3.464-6.402 7.133-.014 3.48-.844 6.706-1.55 8.407-.012.029.012.05.027.064.724.506 2.343 1.433 5.11 2.006a.937.937 0 00.034-.25v-1.648a6.959 6.959 0 01-3.508-6.038.821.821 0 111.641 0 5.327 5.327 0 005.32 5.32 5.335 5.335 0 004.627-2.697c.776-1.366.495-3.13-.67-4.197-1.376-1.258-3.184-1.925-5.377-1.987L7.54 33.835a.826.826 0 01-1.16 0 .823.823 0 010-1.163l1.754-1.755a.817.817 0 01.58-.239c3.447 0 5.611 1.317 6.82 2.423 1.724 1.577 2.14 4.193.989 6.215a6.943 6.943 0 01-2.603 2.606v1.648c0 .087.012.17.034.25 2.767-.573 4.386-1.498 5.11-2.006zM5.149 51.67v3.511a.822.822 0 01-1.64 0v-3.51a.82.82 0 111.64-.001zm12.279 0v3.511a.822.822 0 01-1.641 0v-3.51c0-.453.367-.822.82-.822.454 0 .82.37.82.821zm31.435-18.838a.815.815 0 01-1.134.228c-.02-.013-.627-.4-1.703-.68-.892-.235-2.283-.44-4.041-.19v.185a.82.82 0 11-1.641 0v-.879c0-.388.276-.724.66-.803 4.664-.932 7.513.92 7.632 1a.822.822 0 01.227 1.139zm7.154 16.278v6.071a.822.822 0 01-1.64 0V49.11c0-.75-.473-1.433-1.176-1.697l-4.17-1.56a2.653 2.653 0 01-.622-.343l-2.916 2.186v7.485a.822.822 0 01-1.641 0v-7.485l-2.916-2.186a2.65 2.65 0 01-.622.343l-4.17 1.56a1.822 1.822 0 00-1.176 1.697v6.071a.822.822 0 01-1.64 0V49.11c0-1.433.9-2.731 2.24-3.234l4.17-1.564a.936.936 0 00.606-.872v-2.185a7.333 7.333 0 01-2.631-5.628v-1.303l-.235-.472a6.096 6.096 0 01-.642-2.72 5.724 5.724 0 015.714-5.719h9.139a.82.82 0 01.82.822v4.897c0 .94-.222 1.883-.642 2.72l-.235.472v1.56a6.9 6.9 0 01-2.113 4.995c-.166.16-.34.312-.518.456v2.105c0 .385.244.738.606.872l4.17 1.564a3.47 3.47 0 012.24 3.234zm-8.55-4.947a2.522 2.522 0 01-.107-.723v-1.134a6.947 6.947 0 01-2.685.538l-.216-.003a6.6 6.6 0 01-2.474-.565v1.164c0 .249-.038.493-.107.723l2.795 2.095zm2.524-8.279V34.13c0-.128.03-.254.087-.368l.321-.644c.307-.61.47-1.298.47-1.985v-4.077H42.55a4.08 4.08 0 00-4.073 4.075c0 .689.162 1.378.469 1.987l.321.644c.057.114.087.24.087.368v1.498c0 2.987 2.312 5.488 5.154 5.57a5.266 5.266 0 003.868-1.496 5.278 5.278 0 001.615-3.817zM39.354 50.795v4.386a.822.822 0 01-1.641 0v-4.386c0-.455.367-.825.82-.825.454 0 .82.37.82.825zm12.278 0v4.386a.822.822 0 01-1.64 0v-4.386c0-.455.367-.825.82-.825.453 0 .82.37.82.825zM43.74 6.943v14.029a3.456 3.456 0 01-3.452 3.454H34.24l.551 3.306a1.26 1.26 0 01-1.94 1.256l-6.845-4.562h-.8l-3.632 2.64a1.25 1.25 0 01-1.444.026 1.246 1.246 0 01-.518-1.348l.33-1.318h-.704a3.456 3.456 0 01-3.451-3.454v-.054h-3.565a3.456 3.456 0 01-3.452-3.452V3.434A3.456 3.456 0 0112.222-.02H36.78a3.456 3.456 0 013.452 3.453v.057h.056a3.455 3.455 0 013.452 3.452zM20.82 20.918h-3.391v.054c0 1 .812 1.81 1.81 1.81h1.114zm8.461-1.485a.804.804 0 01.483-.155h7.016c.999 0 1.81-.814 1.81-1.812V3.434a1.81 1.81 0 00-1.81-1.81H12.222a1.81 1.81 0 00-1.81 1.81v14.032c0 .998.812 1.812 1.81 1.812h9.647a.817.817 0 01.797 1.018l-1.207 4.827zm12.818 1.539V6.942c0-.999-.812-1.81-1.81-1.81h-.057v12.334a3.456 3.456 0 01-3.452 3.452h-6.75l-3.025 2.2 6.023 4.019-.565-3.395a.824.824 0 01.809-.96h7.016c.999 0 1.81-.81 1.81-1.81zM19.18 6.066a.82.82 0 01-.82.82h-2.63a.82.82 0 010-1.643h2.63c.453 0 .82.371.82.823zm14.91 0a.82.82 0 01-.82.82h-11.4a.82.82 0 010-1.643h11.4c.453 0 .82.371.82.823zm0 4.385c0 .455-.367.82-.82.82H15.73a.82.82 0 110-1.641h17.54a.82.82 0 01.82.82zm-6.139 4.384a.82.82 0 01-.82.82H15.73a.82.82 0 010-1.64h11.402a.82.82 0 01.82.82zm6.14 0a.82.82 0 01-.82.82H30.64a.82.82 0 010-1.64h2.631a.82.82 0 01.82.82z"/></svg>