<svg xmlns="http://www.w3.org/2000/svg" width="48" height="57"><path fill="#4896ff" d="M47.057 30.896L45.79 41.58v.005a.89.89 0 01-.014.08 2.771 2.771 0 01-1.03 1.78 2.771 2.771 0 01-2.057.579 2.774 2.774 0 01-1.864-1.045 2.775 2.775 0 01-.58-2.057 2.774 2.774 0 011.045-1.865 2.77 2.77 0 012.057-.58c.355.043.687.151.985.31l.89-7.51-7.78.303-1.147 9.663a2.774 2.774 0 01-1.064 2.143 2.77 2.77 0 01-2.056.58 2.796 2.796 0 01-2.443-3.102A2.775 2.775 0 0131.776 39a2.788 2.788 0 013.028-.276l.924-7.786a1.262 1.262 0 011.21-1.118l8.811-.342a1.267 1.267 0 011.308 1.417zm-12.54 10.257a1.008 1.008 0 00-1.014-.973 1.008 1.008 0 00-1.005.895 1.016 1.016 0 001.634.916c.21-.166.344-.404.378-.67a.892.892 0 01.004-.15zm8.62-.909a1.016 1.016 0 00-.239 2.015c.27.032.535-.042.748-.21a1.015 1.015 0 00-.508-1.804zm-1.216-21.27a2.158 2.158 0 01-.612 1.834 2.166 2.166 0 01-1.833.613 11.404 11.404 0 01-5.132 2.102l-20.239 15.9a6.125 6.125 0 01-3.792 1.31 6.139 6.139 0 01-3.672-1.215l-3.153 3.154a4.363 4.363 0 000 6.162 4.36 4.36 0 006.16 0l1.196-1.197a.889.889 0 111.256 1.258l-1.195 1.196a6.115 6.115 0 01-4.337 1.794A6.113 6.113 0 012.23 50.09a6.143 6.143 0 010-8.676l3.153-3.154a6.152 6.152 0 01.095-7.467l6.88-8.761a.889.889 0 111.397 1.098l-6.879 8.761a4.368 4.368 0 006.13 6.132l19.67-15.453-10.351-10.355-6.341 8.076a.889.889 0 11-1.398-1.098l6.787-8.644a11.41 11.41 0 012.102-5.135 2.159 2.159 0 01.613-1.832c.5-.5 1.183-.702 1.834-.613A11.427 11.427 0 0140.792 4.1a11.435 11.435 0 011.13 14.874zm-4.096 1.422L24.5 7.068a9.635 9.635 0 00-1.328 3.481l11.172 11.175a9.635 9.635 0 003.48-1.328zm2.341-1.125a.394.394 0 00-.114-.28L25.924 4.858l-.019-.018a.4.4 0 00-.56 0 .396.396 0 00.001.56l4.713 4.714 9.434 9.437a.4.4 0 00.559 0c.1-.1.114-.219.114-.28zm-.63-13.914a9.654 9.654 0 00-11.964-1.364l13.326 13.33a9.661 9.661 0 00-1.363-11.966zM25.757 50.26l-6.476 6.479a.887.887 0 01-1.257 0 .89.89 0 010-1.258l6.476-6.478a4.396 4.396 0 001.296-3.129c0-1.181-.46-2.292-1.296-3.128a4.393 4.393 0 00-3.127-1.296c-1.182 0-2.292.46-3.128 1.296l-3.612 3.612a.889.889 0 11-1.256-1.257l3.611-3.612a6.16 6.16 0 014.385-1.817c1.656 0 3.213.645 4.384 1.817a6.21 6.21 0 010 8.771zm.125-26.891l-3.82 3.82a.888.888 0 01-1.256 0l-3.098-3.1a.89.89 0 010-1.257l3.819-3.82a.889.889 0 011.256 0l3.099 3.1a.89.89 0 010 1.257zm-1.886-.629l-1.84-1.84-2.562 2.563 1.841 1.842zm-13.68-10.556a.889.889 0 01-1.159-.482c-.012-.03-.74-1.687-1.792-1.687H7.35c-.317.006-.57.045-.838.087-.659.103-1.214.157-1.968-.105L8.008 17.8c.092.139.176.284.245.44.07.158.124.32.164.482l.06.133a.885.885 0 01.023.66 2.903 2.903 0 01-2.892 2.8 2.902 2.902 0 01-2.653-1.721 2.903 2.903 0 012.539-4.075L1.795 8.19a.119.119 0 00-.002-.006L1.79 8.18l-.007-.017A.886.886 0 011.76 8.1l-.01-.037a.38.38 0 01-.013-.045l-.009-.048-.006-.036-.005-.051-.002-.035V7.8l.001-.04a.854.854 0 01.017-.122l.012-.05.009-.03a1 1 0 01.017-.052l.013-.03.02-.048.02-.037.022-.038a.55.55 0 01.034-.05l.013-.02.002-.002a.808.808 0 01.05-.06l.007-.008a.868.868 0 01.052-.051c.004-.004.007-.008.012-.011.008-.008.018-.015.027-.022l.042-.034h.002a.947.947 0 01.074-.048h.001a.844.844 0 01.078-.04h.002L2.258 7a.923.923 0 01.063-.024l.036-.01.046-.014.046-.008.038-.007a.848.848 0 01.05-.004l.036-.002c.016-.001.031 0 .047 0h.04l.041.005c.016.002.032.003.047.006l.034.007.051.011.03.01a.945.945 0 01.052.017l.03.012a.96.96 0 01.048.021l.038.02.037.021a.847.847 0 01.052.035l.018.012.005.005c.001 0 .002 0 .003.002 1.886 1.42 2.314 1.353 3.09 1.231a7.46 7.46 0 011.084-.108c.99-.012 1.913.483 2.676 1.443.51.643.777 1.274.805 1.344a.889.889 0 01-.484 1.16zm-4.713 6.109A1.123 1.123 0 004.58 19.87a1.122 1.122 0 002.134-.606l-.256-.575a1.115 1.115 0 00-.854-.396z"/></svg>