<svg xmlns="http://www.w3.org/2000/svg" width="58" height="57"><path fill="#4896ff" d="M46.204 49.36V57H.93v-7.64a6.358 6.358 0 014.641-6.108l11.658-3.237v-.725c0-1.969-.317-3.915-.94-5.783a18.24 18.24 0 00-2.175-4.425l-3.162-4.699a14.636 14.636 0 01-1.873-7.14c0-8.032 6.536-14.568 14.57-14.568h.497c4.95 0 9.86-.6 14.593-1.783l.583-.146 1.142 1.518a10.664 10.664 0 012.118 6.358c0 2.83-1.101 5.49-3.102 7.49l-.3.3c.446.809.686 1.72.686 2.67 0 2.071.683 4.123 1.926 5.779l.338.45a2.266 2.266 0 01-1.703 3.619l-1.098 2.195a3.509 3.509 0 00-.369 1.561c0 2.923-2.377 5.3-5.3 5.3l-1.298-.038-2.456-.737v2.804l11.657 3.237a6.358 6.358 0 014.641 6.107zm-21.127-4.955l3.394 2.827 1.341-5.364-.655-.182zm12.978-25.323c0-.996-.388-1.933-1.093-2.638a3.708 3.708 0 00-2.639-1.093H28.73c-1.853 0-3.58.83-4.739 2.277a6.09 6.09 0 00-1.33 3.791v2.08h-1.81a1.813 1.813 0 000 3.622h1.81v.906c0 3.161-1.23 6.133-3.467 8.369l-.334.334c.109.847.18 1.701.18 2.56v.929l4.527 3.017 4.528-3.017v-3.551l-4.788-1.436.52-1.735 8.928 2.679h.905a3.494 3.494 0 003.49-3.49c0-.819.193-1.64.56-2.37l1.596-3.194h1.013a.453.453 0 00.36-.726l-.336-.449a11.51 11.51 0 01-2.288-6.864zM17.322 41.868l1.34 5.364 3.395-2.827-4.08-2.72zm.686-8.934c.174.522.325 1.05.456 1.582a9.932 9.932 0 002.347-5.584 3.627 3.627 0 01-3.582-3.621 3.625 3.625 0 013.621-3.622v-.27a7.9 7.9 0 011.728-4.921 7.84 7.84 0 016.152-2.958h5.593a5.5 5.5 0 013.723 1.446l.153-.154a8.728 8.728 0 002.572-6.21c0-1.889-.623-3.76-1.756-5.271l-.42-.56a61.997 61.997 0 01-14.45 1.695h-.497c-7.034 0-12.758 5.724-12.758 12.758 0 2.163.555 4.305 1.606 6.194l3.12 4.634a20.064 20.064 0 012.392 4.862zM44.393 49.36A4.539 4.539 0 0041.077 45l-9.519-2.645-2.03 8.117-5.961-4.968-5.96 4.967-2.03-8.117-9.52 2.644A4.542 4.542 0 002.74 49.36v5.83h41.652zM57.07 28.932c0 3.387-1.318 6.57-3.713 8.963l-1.28-1.28a10.791 10.791 0 003.182-7.683c0-2.901-1.13-5.63-3.183-7.682l1.28-1.28a12.588 12.588 0 013.714 8.962zm-3.622 0a8.998 8.998 0 01-2.652 6.403l-1.28-1.28a7.197 7.197 0 002.121-5.123 7.196 7.196 0 00-2.121-5.121l1.28-1.28a8.997 8.997 0 012.652 6.401zm-3.622 0a5.4 5.4 0 01-1.59 3.842l-1.28-1.28a3.602 3.602 0 001.06-2.562c0-.967-.377-1.876-1.06-2.561l1.28-1.28a5.398 5.398 0 011.59 3.841z"/></svg>