<svg xmlns="http://www.w3.org/2000/svg" width="57" height="57"><path fill="#4896ff" d="M56.304 27.887L47.43 55.049a.818.818 0 01-.022.06l-.008.019C47.152 55.69 46.572 57 45 57h-4.716c-1.063 0-1.063-1.649 0-1.649H45c.288 0 .521-.062.878-.854l8.86-27.121c.197-.607-.244-1.278-.883-1.278H13.272a3.217 3.217 0 00-3.084 2.27l-8.02 25.726c-.328 1.052.558 1.257 1.05 1.257h32.787c1.063 0 1.063 1.649 0 1.649H3.064C1.249 57 .2 55.897.2 54.252c0-5.179.037-17.194.02-18.875-.026-2.534-.053-5.154-.02-7.735a.824.824 0 01.823-.814h.011c.455.006.82.38.813.835-.033 2.562-.037 22.042-.037 22.042l6.805-21.828a4.858 4.858 0 014.657-3.428h20.015c.024-1.594 1.356-2.884 2.991-2.884.484 0 .94.114 1.346.314V20.02h-18.14c-.231 1.39-1.466 2.455-2.95 2.455-1.485 0-2.72-1.065-2.95-2.455H10.98a.823.823 0 01-.527-.191l-3.075-2.564h-5.53v6.43a.824.824 0 11-1.648 0V16.9c0-.708.575-1.284 1.282-1.284H7.51c.3 0 .591.106.821.298l2.947 2.457h2.52a2.995 2.995 0 012.735-1.747c.488 0 .947.115 1.354.319l.05-10.729a.824.824 0 01.54-.77c1.953-.72 5.136-1.902 7.245-2.691.995-.372 1.572 1.172.577 1.544-1.928.722-4.751 1.771-6.717 2.497l-.006 1.388 11.018-4.039c.003-.473.005-.948.009-1.42-.421.163-.85.323-1.28.457-1.016.315-1.503-1.26-.488-1.575a22.876 22.876 0 001.545-.564c.613-.24 1.907-.763 1.881.516a640.83 640.83 0 000 13.16v.097c0 .03 0 .058-.003.087-.08 1.544-1.388 2.777-2.985 2.777-1.649 0-2.99-1.313-2.99-2.926 0-1.613 1.341-2.925 2.99-2.925.473 0 .921.109 1.32.302a642.01 642.01 0 01-.01-6.227L19.569 9.941l-.04 8.43h18.096v-7.206c0-.589.655-1.006 1.191-.738l4.917 2.456c.28.139.456.425.456.737v3.087c0 .588-.656 1.005-1.192.737l-3.725-1.86v2.787h5.524a2.663 2.663 0 012.659 2.661v3.417h6.4c.844 0 1.641.425 2.117 1.122.467.685.589 1.53.333 2.316zM39.27 12.497v1.245l3.269 1.632V14.13zm-8.657 2.265v-.022c-.008-.698-.606-1.264-1.341-1.264-.74 0-1.342.573-1.342 1.276 0 .704.602 1.277 1.342 1.277.736 0 1.335-.568 1.34-1.267zM17.875 19.55c0-.033-.003-.064-.005-.095a.823.823 0 01-.04-.23c-.152-.547-.675-.952-1.297-.952-.74 0-1.341.573-1.341 1.277 0 .703.602 1.276 1.341 1.276.74 0 1.342-.573 1.342-1.276zm26.92.47H39.27v4.429h6.535v-3.417c0-.558-.453-1.012-1.011-1.012zm-9.86 4.429h2.686c-.025-.685-.617-1.235-1.343-1.235s-1.318.55-1.343 1.235zm13.379-6.812c0-1.613 1.34-2.925 2.989-2.925.482 0 .938.113 1.342.312V4.401c0-1.063 1.647-1.063 1.647 0v13.306a.84.84 0 01-.004.075c-.077 1.546-1.386 2.78-2.985 2.78-1.648 0-2.989-1.312-2.989-2.925zm1.648 0c0 .704.601 1.277 1.341 1.277s1.342-.573 1.342-1.277-.602-1.276-1.342-1.276c-.74 0-1.341.572-1.341 1.276z"/></svg>