<svg xmlns="http://www.w3.org/2000/svg" width="46" height="45"><path fill="#fff" d="M45.398 7.105a.78.78 0 01.638.895l-2.598 15.615v17.857a2.705 2.705 0 01-2.704 2.702h-27.17a2.705 2.705 0 01-2.704-2.702v-10.49c-.03-.027-.06-.054-.085-.084L1.216 18.48a.775.775 0 01.142-1.087l15.6-11.99a.777.777 0 011.087.142l5.653 7.34 1.391-8.366a.774.774 0 01.892-.635zM41.886 21.3a1.15 1.15 0 00-1.152-1.149h-27.17a1.15 1.15 0 00-1.153 1.15v5.823h7.237c.032 0 .063.007.095.009a8.272 8.272 0 0114.046-.008h1.505a2.543 2.543 0 012.505-2.134c1.262 0 2.31.927 2.505 2.133h1.582zM37.8 26.542a.99.99 0 100 1.978.99.99 0 000-1.978zm-17.755 4.954c0 3.705 3.017 6.72 6.725 6.72 3.708 0 6.725-3.015 6.725-6.72 0-3.705-3.017-6.718-6.725-6.718-3.708 0-6.725 3.013-6.725 6.718zm1.891-14.23l-5.107-6.628-10.374 7.974 4.405 5.72V21.3a2.706 2.706 0 012.704-2.701h.4V17.05c0-.428.346-.776.775-.776h4.654c.428 0 .775.348.775.776v1.55h.883zm-3.319.557h-3.103v.776h3.103zm22.862-7.24L28.566 8.438l-.917 5.512h1.62c1.172 0 2.263.522 2.993 1.438l2.564 3.21h5.318zm-17.175 5.931l-1.39 2.085h9.928l-1.791-2.243a2.26 2.26 0 00-1.78-.856h-3.072a2.27 2.27 0 00-1.895 1.014zM10.86 28.464v-1.59l-6.108-7.93a.779.779 0 01.141-1.09l11.604-8.918a.777.777 0 011.088.143l5.258 6.827.168-.25c.131-.2.28-.383.44-.548L17.29 7.105 2.919 18.152zm29.874 14.16c.635 0 1.152-.518 1.152-1.152V28.673h-1.823a2.543 2.543 0 01-2.264 1.395c-.988 0-1.844-.57-2.264-1.395h-.987c.321.882.497 1.831.497 2.823 0 4.562-3.713 8.27-8.276 8.27-4.564 0-8.276-3.708-8.276-8.27 0-.992.175-1.94.497-2.823h-6.58v12.8c0 .633.517 1.15 1.152 1.15zM44.378 8.51L26.492 5.54l-1.427 8.581a3.76 3.76 0 011.011-.168l1.087-6.533a.774.774 0 01.892-.636L42.497 9.18a.77.77 0 01.638.892l-1.447 8.704c.333.124.635.314.89.553zm-8.697 8.54c0-.43.347-.777.776-.777h3.102a.774.774 0 110 1.549h-3.102a.774.774 0 01-.776-.773zM3.878 3.098V.772a.775.775 0 011.552 0v2.327a.774.774 0 01-.776.772.774.774 0 01-.776-.772zM5.43 6.2v2.324a.774.774 0 01-.776.772.774.774 0 01-.776-.772V6.2c0-.428.348-.777.776-.777.428 0 .776.349.776.777zm-2.327-.777H.776a.776.776 0 010-1.553h2.327a.776.776 0 010 1.553zm2.327-.777c0-.428.347-.776.775-.776h2.327a.776.776 0 010 1.553H6.205a.776.776 0 01-.775-.777zM6.98 35.26a2.719 2.719 0 01-2.715 2.713A2.719 2.719 0 011.55 35.26a2.717 2.717 0 012.715-2.711A2.717 2.717 0 016.98 35.26zm-1.551 0a1.164 1.164 0 10-2.328.003 1.164 1.164 0 002.328-.003zM16.29 1.546a.777.777 0 010 1.553.777.777 0 010-1.552zM6.98 41.85a.773.773 0 110 1.55.776.776 0 01-.776-.777c0-.428.348-.773.776-.773zM42.661.772a.775.775 0 11.003 1.55.775.775 0 01-.002-1.55zM21.468 31.497c0-2.921 2.379-5.3 5.302-5.3a5.307 5.307 0 015.301 5.3 5.307 5.307 0 01-5.301 5.297 5.307 5.307 0 01-5.302-5.297zm1.552-.001a3.753 3.753 0 003.75 3.747 3.753 3.753 0 003.75-3.747 3.754 3.754 0 00-3.75-3.747 3.754 3.754 0 00-3.75 3.747z"/></svg>