<svg xmlns="http://www.w3.org/2000/svg" width="42" height="33"><path fill="#4896ff" d="M3.47 14.029c0-.33.265-.598.593-.598h1.9a.597.597 0 010 1.19h-1.9a.593.593 0 01-.594-.592zm0-5.063c0-.333.265-.597.593-.597H17.36c.328 0 .594.264.594.597a.593.593 0 01-.594.593H4.063a.593.593 0 01-.594-.593zm15.83 0c0-.333.265-.597.593-.597h2.533c.327 0 .593.264.593.597a.593.593 0 01-.593.593h-2.533a.593.593 0 01-.594-.593zm10.763 0c0-.333.266-.597.594-.597h7.598c.328 0 .594.264.594.597a.593.593 0 01-.594.593h-7.598a.593.593 0 01-.594-.593zm1.013 4.641a.603.603 0 01.175.422.579.579 0 01-.175.416.584.584 0 01-.839 0 .582.582 0 01-.174-.416.602.602 0 01.594-.598c.156 0 .31.069.42.176zm.175 5.488a.593.593 0 11-1.187-.006.593.593 0 011.187.006zm-.175 4.645a.595.595 0 01-.839.842.595.595 0 01.839-.842zm2.533 0a.595.595 0 01-.839.842.595.595 0 01.839-.842zm-2.533 5.067a.59.59 0 01-.42 1.011.607.607 0 01-.419-.171.59.59 0 010-.84.582.582 0 01.42-.175c.156 0 .31.06.42.175zm2.533 0a.59.59 0 01-.42 1.011.607.607 0 01-.419-.171.59.59 0 010-.84.582.582 0 01.42-.175c.156 0 .31.06.42.175zm2.707-4.647a.62.62 0 01-.174.422.602.602 0 01-.42.173.602.602 0 01-.419-.173.595.595 0 111.013-.422zm-2.533-10.13a.578.578 0 01-.174.416.584.584 0 01-.839 0 .582.582 0 01-.174-.416.602.602 0 01.594-.598.602.602 0 01.594.598zM6.556 29.224c0 .33-.266.594-.593.594h-1.9a.593.593 0 110-1.186h1.9c.327 0 .593.266.593.592zm5.145-25.325c0-.33.266-.595.593-.595h17.73a.593.593 0 110 1.186h-17.73a.594.594 0 01-.593-.59zM3.469 19.095c0-.33.266-.594.594-.594h1.9a.593.593 0 110 1.186h-1.9a.594.594 0 01-.594-.592zm3.087 5.065a.597.597 0 01-.593.595h-1.9a.597.597 0 01-.594-.595c0-.332.266-.594.594-.594h1.9c.327 0 .593.262.593.594zm12.03 0a.597.597 0 01-.593.595h-1.266a.597.597 0 01-.594-.595c0-.332.266-.594.594-.594h1.266c.328 0 .594.262.594.594zm-2.453 5.064c0-.326.266-.592.594-.592h1.266a.593.593 0 110 1.186h-1.266a.593.593 0 01-.594-.594zm2.454-10.129a.594.594 0 01-.594.592h-1.266a.594.594 0 010-1.186h1.266c.328 0 .594.264.594.594zm-2.454-5.066c0-.33.266-.598.594-.598h1.266a.596.596 0 010 1.19h-1.266a.593.593 0 01-.594-.592zm3.8 0c0-.33.265-.598.593-.598h2.533a.596.596 0 010 1.19h-2.533a.593.593 0 01-.594-.592zm5.619 5.066a.594.594 0 01-.594.592h-4.432a.594.594 0 010-1.186h4.432c.328 0 .594.264.594.594zm-3.166 5.065a.597.597 0 01-.594.595h-1.266a.597.597 0 01-.594-.595c0-.332.266-.594.594-.594h1.266c.328 0 .594.262.594.594zm-2.454 5.064c0-.326.266-.592.594-.592h2.533a.593.593 0 110 1.186h-2.533a.593.593 0 01-.594-.594zm21.45-25.325v25.325a3.128 3.128 0 01-3.127 3.124H4.063a3.128 3.128 0 01-3.126-3.124V3.899A3.132 3.132 0 014.063.77h34.192a3.132 3.132 0 013.127 3.13zM27.53 26.1v-3.88H14.788v3.88zm-12.742 1.186v3.88H27.53v-3.88zm13.93-20.261V10.9h11.476V7.024zm-13.93 5.065v3.882H27.53V12.09zm-1.188 0H2.124v3.882H13.6zM2.124 17.155v3.876H13.6v-3.876zm12.664 3.876H27.53v-3.876H14.788zm13.93 0h11.476v-3.876H28.718zm11.476-5.06v-3.882H28.718v3.882zM27.53 7.024H2.124V10.9H27.53zM2.124 26.099H13.6v-3.88H2.124zm26.594 0h11.476v-3.88H28.718zM2.124 3.899v1.94h38.07V3.9c0-1.067-.87-1.939-1.939-1.939H4.063c-1.07 0-1.94.872-1.94 1.94zm1.939 27.267H13.6v-3.881H2.124v1.939c0 1.071.87 1.942 1.939 1.942zm36.131-1.942v-1.94H28.718v3.882h9.537c1.07 0 1.94-.87 1.94-1.942z"/></svg>