<svg xmlns="http://www.w3.org/2000/svg" width="26" height="26"><path fill="#fec400" d="M13 0c7.18 0 13 5.824 13 13.002 0 7.176-5.82 13.002-13 13.002S0 20.178 0 13.002C0 5.824 5.82-.001 13-.001z"/><path fill="#bf9300" d="M16.859 16.266c.33.322.328.739-.004 1.077-.225.226-.464.438-.676.678-.31.345-.696.462-1.14.44-.647-.04-1.241-.253-1.815-.534a9.851 9.851 0 01-3.275-2.563c-.675-.802-1.232-1.677-1.598-2.668-.179-.472-.305-.96-.266-1.482.025-.319.143-.59.378-.813.254-.24.493-.492.742-.74.324-.321.732-.321 1.058 0 .201.2.399.403.598.596.194.201.387.39.58.586.34.344.34.744.002 1.085-.243.244-.484.49-.731.728-.065.065-.07.116-.038.195.164.394.4.742.663 1.063.532.653 1.133 1.235 1.85 1.688.154.093.324.163.484.25.08.05.137.034.203-.038l.738-.74c.324-.322.732-.322 1.058 0 .397.397.794.79 1.189 1.192zm-2.326-4.279a2.656 2.656 0 00-1.513-.756l.109-.77c.744.105 1.419.44 1.953.972.505.51.837 1.147.958 1.856l-.767.128a2.653 2.653 0 00-.74-1.43zm3.53 1.166l-.766.133a4.913 4.913 0 00-1.373-2.656 4.909 4.909 0 00-2.802-1.395l.108-.776a5.684 5.684 0 013.242 1.621 5.717 5.717 0 011.592 3.073z"/></svg>