<svg xmlns="http://www.w3.org/2000/svg" width="22" height="13"><path fill="#13141c" d="M20.28 9.645c-.444-.53-.95-1.01-1.44-1.47a42.734 42.734 0 01-.526-.5c-.498-.486-.516-.669-.122-1.215.272-.383.561-.762.841-1.127.254-.334.516-.682.767-1.026l.052-.073c.48-.662.977-1.35 1.241-2.172.069-.22.141-.536-.024-.806-.165-.266-.484-.35-.71-.385a1.697 1.697 0 00-.326-.027h-3.172c-.475 0-.796.22-.98.682-.175.44-.368.904-.587 1.353-.438.883-.993 1.9-1.797 2.753l-.034.034c-.095.105-.203.218-.281.218a.122.122 0 01-.04-.007c-.167-.064-.279-.468-.274-.655v-.007l-.002-3.621c0-.01 0-.022-.002-.037-.08-.587-.258-.955-.927-1.086L11.883.47H8.612c-.533 0-.827.21-1.103.536-.074.087-.23.27-.153.485.078.218.331.265.414.286.41.072.64.324.705.757.114.76.128 1.564.044 2.542a2.2 2.2 0 01-.146.663c-.017.037-.08.179-.145.179-.02 0-.079-.012-.186-.083-.254-.174-.44-.423-.656-.727-.736-1.035-1.354-2.179-1.89-3.493-.198-.482-.568-.75-1.043-.762a88.117 88.117 0 00-2.844.003c-.382.008-.647.121-.786.34-.14.22-.13.505.027.854 1.259 2.79 2.4 4.815 3.7 6.569.912 1.23 1.826 2.083 2.877 2.68 1.107.63 2.347.938 3.793.938.163 0 .333-.003.504-.011.84-.042 1.15-.343 1.19-1.158.019-.415.065-.855.27-1.223.13-.235.25-.235.29-.235a.54.54 0 01.274.1c.183.117.34.275.468.416.12.13.24.265.36.4.258.287.525.587.804.866.611.622 1.284.896 2.057.834h2.902a.843.843 0 00.683-.437c.182-.321.178-.726-.01-1.09-.213-.414-.49-.76-.731-1.054z" opacity=".2"/></svg>