<svg xmlns="http://www.w3.org/2000/svg" width="22" height="15"><path fill="#13141c" d="M20.624 2.377c.295 1.592.448 3.244.448 4.934v.379a26.41 26.41 0 01-.422 4.771l-.004.017c-.24.85-.903 1.52-1.76 1.774-1.597.428-7.939.428-7.939.428s-6.36 0-7.939-.428l-.018-.007a2.58 2.58 0 01-1.746-1.784l.026.165C.65 9.325.654 5.62 1.244 2.538l.004-.018A2.554 2.554 0 013.008.752C4.603.314 10.945.321 10.945.321s6.359 0 7.939.431l.018.004c.84.24 1.501.91 1.746 1.782zm-6.415 5.13L8.918 4.421v6.16z" opacity=".2"/></svg>