<svg xmlns="http://www.w3.org/2000/svg" width="26" height="26" viewBox="0 0 26 26"><g><g><path fill="#fec400" d="M13-.001c7.18 0 13 5.824 13 13 0 7.184-5.82 13.003-13 13.003S0 20.182 0 12.999C0 5.823 5.82 0 13 0z"/></g><g><path fill="#bf9300" d="M19.075 13A6.08 6.08 0 0 1 13 19.071 6.08 6.08 0 0 1 6.925 13 6.08 6.08 0 0 1 13 6.923 6.08 6.08 0 0 1 19.075 13zm-1.292 0A4.79 4.79 0 0 0 13 8.214 4.79 4.79 0 0 0 8.218 13 4.79 4.79 0 0 0 13 17.784a4.79 4.79 0 0 0 4.783-4.785zm-1.117.309a.5.5 0 0 1-.5.5h-3.23a.5.5 0 0 1-.5-.5v-3.78c0-.28.223-.506.5-.506.276 0 .5.227.5.506v3.28h2.73c.276 0 .5.227.5.5z"/></g></g></svg>