<svg xmlns="http://www.w3.org/2000/svg" width="26" height="26" viewBox="0 0 26 26"><g><g><path fill="#fec400" d="M13 0c7.18 0 13 5.824 13 13.002 0 7.176-5.82 13.002-13 13.002S0 20.178 0 13.002C0 5.824 5.82-.001 13-.001z"/></g><g><path fill="#bf9300" d="M17.402 11.693c0 2.995-3.967 7.398-4.135 7.585a.407.407 0 0 1-.594 0c-.17-.187-4.136-4.59-4.136-7.585 0-2.419 1.988-4.383 4.433-4.383 2.444 0 4.432 1.964 4.432 4.383zm-2.202 0c0-1.214-1-2.207-2.23-2.207s-2.23.993-2.23 2.207c0 1.213 1 2.2 2.23 2.2s2.23-.987 2.23-2.2z"/></g></g></svg>