<svg xmlns="http://www.w3.org/2000/svg" width="21" height="21" viewBox="0 0 21 21"><g><g opacity=".2"><path fill="#13141c" d="M20.711 10.504c0 2.767-.012 3.118-.06 4.208-.048 1.085-.223 1.826-.474 2.48a5.214 5.214 0 0 1-2.99 2.981c-.646.26-1.392.429-2.477.48-1.09.048-1.437.055-4.21.055-2.773 0-3.12-.007-4.21-.054-1.085-.052-1.827-.222-2.478-.48a5.05 5.05 0 0 1-1.807-1.172 5.114 5.114 0 0 1-1.181-1.81c-.252-.652-.427-1.395-.475-2.48-.048-1.09-.06-1.441-.06-4.208 0-2.779.012-3.12.064-4.213C.4 5.2.576 4.46.828 3.813a5.037 5.037 0 0 1 1.177-1.811A5.04 5.04 0 0 1 3.816.822C4.463.572 5.21.397 6.294.345 7.384.3 7.731.288 10.504.288c2.773 0 3.12.012 4.214.066 1.085.047 1.827.218 2.478.474a5.016 5.016 0 0 1 1.807 1.174 5.038 5.038 0 0 1 1.181 1.813c.252.645.427 1.392.475 2.476.048 1.093.052 1.434.052 4.213zm-1.831.007c0-2.724-.012-3.046-.06-4.125-.044-1-.212-1.538-.351-1.894a3.205 3.205 0 0 0-.763-1.176 3.175 3.175 0 0 0-1.173-.763c-.359-.138-.897-.304-1.895-.35-1.074-.05-1.397-.058-4.126-.058-2.725 0-3.049.008-4.126.058-.993.046-1.536.212-1.895.35a3.205 3.205 0 0 0-1.173.763c-.344.329-.603.732-.767 1.176-.14.356-.307.893-.35 1.894-.049 1.07-.06 1.401-.06 4.125 0 2.728.011 3.045.06 4.124.043.99.21 1.535.35 1.893.164.442.423.84.763 1.17.327.342.73.604 1.173.769.359.139.897.302 1.895.349 1.074.045 1.4.059 4.126.059 2.725 0 3.049-.014 4.126-.059.994-.047 1.536-.21 1.895-.35a3.398 3.398 0 0 0 1.94-1.938c.14-.36.307-.902.35-1.897.049-1.076.06-1.392.06-4.12zm-3.129-.007c0 2.896-2.35 5.25-5.247 5.25a5.249 5.249 0 1 1 0-10.498 5.249 5.249 0 0 1 5.247 5.248zm-1.843 0A3.402 3.402 0 0 0 10.504 7.1a3.402 3.402 0 1 0 0 6.806 3.403 3.403 0 0 0 3.404-3.402zm3.276-5.456c0 .673-.549 1.224-1.225 1.224a1.224 1.224 0 1 1 1.225-1.225z"/></g></g></svg>