<svg xmlns="http://www.w3.org/2000/svg" width="55" height="57" viewBox="0 0 55 57"><g><g><path fill="#4896ff" d="M45.842 4.76v43.042a4.687 4.687 0 0 1-3.743 4.584v3.837h-5.614V52.48H17.772v3.743h-5.614v-3.837a4.687 4.687 0 0 1-3.743-4.584V4.76A4.684 4.684 0 0 1 13.093.082h28.07a4.684 4.684 0 0 1 4.679 4.679zM15.9 52.48h-1.87v1.871h1.87zm24.328 0h-1.871v1.871h1.871zm3.743-47.72a2.807 2.807 0 0 0-2.807-2.806h-28.07a2.807 2.807 0 0 0-2.808 2.807V47.8a2.807 2.807 0 0 0 2.807 2.808h28.07a2.807 2.807 0 0 0 2.808-2.807zm-1.872 29.007c0 8.268-6.702 14.97-14.97 14.97-8.265-.01-14.961-6.706-14.971-14.97 0-8.268 6.702-14.971 14.97-14.971 8.269 0 14.971 6.703 14.971 14.97zm-1.871 0c0-7.235-5.865-13.1-13.1-13.1-7.23.008-13.091 5.868-13.099 13.1 0 7.234 5.865 13.1 13.1 13.1 7.234 0 13.099-5.866 13.099-13.1zm-1.871 0c0 6.2-5.027 11.228-11.228 11.228-6.199-.007-11.222-5.03-11.229-11.228 0-6.201 5.027-11.228 11.229-11.228 6.2 0 11.228 5.027 11.228 11.228zm-1.872 0a9.357 9.357 0 0 0-9.356-9.357 9.367 9.367 0 0 0-9.357 9.357 9.357 9.357 0 0 0 18.713 0zm-2.807-23.392a6.55 6.55 0 0 1-6.55 6.55 6.557 6.557 0 0 1-6.55-6.55 6.55 6.55 0 0 1 13.1 0zm-1.871 0a4.679 4.679 0 0 0-4.678-4.679 4.678 4.678 0 1 0 4.678 4.678zm-1.871 0a2.807 2.807 0 1 1-5.614 0 2.807 2.807 0 0 1 5.614 0zm-1.872 0a.936.936 0 1 0-1.872 0 .936.936 0 0 0 1.872 0zm-15.906-6.55h1.871v1.871h-1.871zm28.07 0h1.871v1.871h-1.871zm-28.07 43.041h1.871v1.871h-1.871zm28.07 0h1.871v1.871h-1.871zm-8.421-13.1a4.678 4.678 0 1 1-9.357 0 4.678 4.678 0 0 1 9.357 0zm-1.871 0a2.807 2.807 0 1 0-5.614 0 2.807 2.807 0 0 0 5.614 0zm-24.328 0a.936.936 0 0 1-.936.936H.93a.936.936 0 0 1 0-1.87h3.742c.517 0 .936.418.936.935zm-.274-5.91a.936.936 0 0 1-1.323.022l-2.807-2.806a.936.936 0 0 1 1.323-1.323l2.807 2.806c.35.363.35.938 0 1.3zm0 13.122l-2.807 2.807a.936.936 0 1 1-1.323-1.323l2.807-2.807a.936.936 0 0 1 1.323 1.323zm48.929-7.211a.936.936 0 0 1-.936.935h-3.742a.936.936 0 0 1 0-1.87h3.742c.517 0 .936.418.936.935zm-1.21-8.695l-2.807 2.806a.935.935 0 1 1-1.323-1.323l2.807-2.806a.936.936 0 0 1 1.323 1.323zm0 18.69a.936.936 0 0 1-1.323.023l-2.807-2.807a.936.936 0 0 1 1.323-1.323l2.807 2.807c.35.362.35.937 0 1.3z"/></g></g></svg>