<svg xmlns="http://www.w3.org/2000/svg" width="57" height="55" viewBox="0 0 57 55"><g><g><path fill="#4896ff" d="M34.095 31.7a5.54 5.54 0 0 1-3.944 1.635 5.54 5.54 0 0 1-3.944-1.634.905.905 0 0 1 1.28-1.28 3.742 3.742 0 0 0 2.664 1.104 3.743 3.743 0 0 0 2.664-1.104.904.904 0 1 1 1.28 1.28zm-1.653-9.778v4.283a2.295 2.295 0 0 1-2.291 2.293 2.295 2.295 0 0 1-2.292-2.293v-4.283a.905.905 0 1 1 1.81 0v4.283a.483.483 0 0 0 .964 0v-4.283a.905.905 0 1 1 1.81 0zM20.695 37.761a5.745 5.745 0 0 0-2.786 4.946v4.253a.905.905 0 1 1-1.809 0v-4.253a7.542 7.542 0 0 1 3.656-6.493.904.904 0 1 1 .939 1.547zM44.2 54.095c0 .5-.405.905-.904.905H17.005a.905.905 0 0 1-.905-.905v-4.119a.905.905 0 1 1 1.81 0v3.214h25.387c.5 0 .904.405.904.905zm-.373-27.868a10.08 10.08 0 0 1-4.124 8.554l-4.95 3.6a7.81 7.81 0 0 1-9.204 0l-4.952-3.6a10.078 10.078 0 0 1-4.124-8.554 3.712 3.712 0 0 1-2.627-3.558 3.725 3.725 0 0 1 2.83-3.612c-1.543-4.146-1.552-7.626-.02-10.354 1.941-3.459 5.735-4.57 7.08-4.864.86-1.542 2.545-2.75 4.707-3.354 2.482-.693 5.306-.498 7.95.55 7.044 2.792 8.838 8.217 9.102 12.275.166 2.546-.232 4.847-.597 6.336a3.717 3.717 0 0 1 1.556 3.023 3.713 3.713 0 0 1-2.627 3.558zm-26.85-5.374a1.913 1.913 0 0 0-.338 3.488zm1.368-2.498c1.155-1.124 3.078-3.387 3.666-6.438.012-2.425.5-4.57.918-5.964-1.44.503-3.536 1.558-4.703 3.648-1.244 2.228-1.203 5.17.119 8.754zm23.645 7.516l-.621-6.442c-1.576-2.17-3.048-3.48-4.466-3.98-1.487-.525-2.758-.096-4.104.357-.888.3-1.807.61-2.77.61-3.134 0-5.383-1.468-6.65-2.598-1.167 3.492-3.641 5.786-4.537 6.53l-.533 5.522a8.259 8.259 0 0 0 3.352 7.447l4.95 3.6a6.004 6.004 0 0 0 7.078 0l4.95-3.6a8.259 8.259 0 0 0 3.351-7.446zm1.22-6.97c.313-1.37.625-3.37.476-5.528-.35-5.116-3.029-8.7-7.96-10.655-2.278-.904-4.693-1.077-6.797-.49-1.81.506-3.213 1.544-3.755 2.777-.026.062-1.282 3.044-1.352 6.694.608.715 2.752 2.907 6.208 2.907.666 0 1.407-.25 2.191-.515.949-.32 2.051-.691 3.292-.691.629 0 1.293.095 1.991.341 1.885.665 3.762 2.36 5.707 5.16zm1.435 3.768c0-.413-.133-.794-.357-1.107a.904.904 0 0 1-.858.397l.23 2.381c.59-.325.985-.951.985-1.67zm-8.307 17.933v6.103a.905.905 0 0 1-1.357.783l-4.831-2.79-4.831 2.79a.904.904 0 0 1-1.357-.783v-6.103a.905.905 0 0 1 1.357-.784l4.83 2.79 4.832-2.79a.904.904 0 0 1 1.357.784zm-7.997 3.051l-2.57-1.484v2.968zm6.187-1.484l-2.57 1.484 2.57 1.484zm-8.843-18.92v1.448a.905.905 0 1 1-1.809 0v-1.448a.905.905 0 1 1 1.81 0zm12.541-2.859a.9.9 0 0 1-1.279 0 2.008 2.008 0 0 0-1.428-.591c-.54 0-1.047.21-1.429.591a.904.904 0 1 1-1.279-1.28 3.804 3.804 0 0 1 2.708-1.122c1.023 0 1.984.399 2.707 1.122a.905.905 0 0 1 0 1.28zm-10.737 0a.901.901 0 0 1-1.28 0 2.022 2.022 0 0 0-2.857 0 .904.904 0 1 1-1.279-1.28 3.833 3.833 0 0 1 5.416 0 .905.905 0 0 1 0 1.28zm8.934 2.86v1.447a.905.905 0 1 1-1.809 0v-1.448a.905.905 0 1 1 1.81 0zM13.942 33.407a5.56 5.56 0 0 1-3.944 1.632 5.558 5.558 0 0 1-3.943-1.632.905.905 0 0 1 1.279-1.28 3.771 3.771 0 0 0 5.33 0 .904.904 0 1 1 1.278 1.28zm3.237 1.952a13.97 13.97 0 0 1-5.74 5.051 3.348 3.348 0 0 1-2.88 0 13.97 13.97 0 0 1-5.741-5.051 13.895 13.895 0 0 1-2.215-7.543c0-1.992.412-3.917 1.226-5.722a.904.904 0 0 1 .824-.533h9.223a.905.905 0 0 1 0 1.81H3.253a12.042 12.042 0 0 0-.84 4.445c0 4.656 2.717 8.958 6.923 10.96.42.2.904.2 1.325 0a12.157 12.157 0 0 0 4.998-4.398.904.904 0 1 1 1.52.98zm-8.266-6.74c0 .5-.405.905-.905.905H5.355a.905.905 0 0 1 0-1.81h2.653c.5 0 .905.406.905.905zm6.633 0c0 .5-.405.905-.904.905h-2.654a.905.905 0 0 1 0-1.81h2.654c.5 0 .904.406.904.905zm36.205 19.392a.902.902 0 0 1-1.28 0 3.609 3.609 0 0 0-5.099 0 .905.905 0 1 1-1.28-1.28 5.42 5.42 0 0 1 7.659 0 .905.905 0 0 1 0 1.28zm5.238-5.667a13.505 13.505 0 0 1-7.664 11.226 3.265 3.265 0 0 1-2.806 0 13.515 13.515 0 0 1-5.555-4.888 13.441 13.441 0 0 1-2.142-7.297c0-1.928.399-3.79 1.186-5.536a.905.905 0 0 1 .824-.533h14.18c.355 0 .678.208.824.533.412.912.72 1.872.919 2.853a.905.905 0 0 1-1.773.358 11.613 11.613 0 0 0-.57-1.934h-12.98a11.587 11.587 0 0 0-.801 4.259c0 4.482 2.616 8.623 6.665 10.55.398.19.854.19 1.252 0a11.693 11.693 0 0 0 6.636-9.718.905.905 0 0 1 1.805.127zm-10.083-.184c0 .5-.405.905-.905.905H43.44a.905.905 0 0 1 0-1.81h2.561c.5 0 .905.406.905.905zm6.402 0c0 .5-.405.905-.904.905h-2.561a.905.905 0 0 1 0-1.81h2.56c.5 0 .905.406.905.905zM12.658 9.02l-1.596 1.597a.902.902 0 0 1-1.28 0 .905.905 0 0 1 0-1.28l1.597-1.596a.904.904 0 1 1 1.28 1.279zm-4.757 4.759l-1.596 1.597a.902.902 0 0 1-1.28 0 .905.905 0 0 1 0-1.28L6.622 12.5a.905.905 0 1 1 1.28 1.28zm4.757 1.597a.901.901 0 0 1-1.28 0l-1.595-1.597a.905.905 0 0 1 1.279-1.28l1.596 1.597a.905.905 0 0 1 0 1.28zm-4.757-4.759a.902.902 0 0 1-1.28 0L5.026 9.02a.905.905 0 0 1 1.28-1.28L7.9 9.337a.905.905 0 0 1 0 1.28zm45.138 17.316l-1.263 1.264a.9.9 0 0 1-1.28 0 .905.905 0 0 1 0-1.28l1.264-1.264a.904.904 0 1 1 1.279 1.28zm-3.764 3.765l-1.263 1.264a.901.901 0 0 1-1.279 0 .905.905 0 0 1 0-1.28l1.263-1.264a.904.904 0 1 1 1.28 1.28zm3.764 1.264a.902.902 0 0 1-1.28 0l-1.262-1.264a.905.905 0 0 1 1.279-1.28l1.263 1.264a.905.905 0 0 1 0 1.28zm-3.764-3.765a.902.902 0 0 1-1.279 0l-1.263-1.264a.905.905 0 0 1 1.279-1.28l1.263 1.264a.905.905 0 0 1 0 1.28zM30.151 47.082a.905.905 0 1 1 0 1.81.905.905 0 0 1 0-1.81zm0 3.303a.905.905 0 1 1 0 1.809.905.905 0 0 1 0-1.81z"/></g></g></svg>