<svg xmlns="http://www.w3.org/2000/svg" width="57" height="57" viewBox="0 0 57 57"><g><g><path fill="#4896ff" d="M55.542 55.35a.826.826 0 0 1 0 1.65H.826a.826.826 0 0 1 0-1.65h7.12a3.255 3.255 0 0 1 2.455-2.34l2.07-.437.883-1.734 9.058-19.275v-8.312l-15.787-.009a4.23 4.23 0 0 1-4.228-4.225c0-.456.37-.826.825-.826h5.442c1.068 0 1.068 1.653 0 1.653h-4.48a2.583 2.583 0 0 0 2.442 1.749l15.796.008a5.73 5.73 0 0 1 .382-1.757H13.12c-1.068 0-1.068-1.653 0-1.653h10.663a5.86 5.86 0 0 1 .86-.827 5.126 5.126 0 0 1-1.853-3.95v-2.717a2.98 2.98 0 0 1-.428-1.892 5.35 5.35 0 0 1 1.842-3.51 3.82 3.82 0 0 1-.094-.844A3.83 3.83 0 0 1 27.935.63a3.83 3.83 0 0 1 3.824 3.822c0 .407-.067.811-.192 1.193a5.35 5.35 0 0 1 1.511 3.726v4.043a5.132 5.132 0 0 1-1.628 3.753c.423.293.802.637 1.13 1.025h20.565c.456 0 .825.37.825.826a4.23 4.23 0 0 1-4.229 4.225H33.955v8.32l4.31 9.172c.454.962-1.05 1.646-1.494.703l-4.165-8.866h-8.844L15.385 50.4l1.784.03L27.52 36.54a.836.836 0 0 1 1.325 0L39.2 50.43l1.784-.03-2.411-5.131c-.454-.966 1.04-1.67 1.495-.701l2.947 6.271.883 1.734 2.07.437a3.254 3.254 0 0 1 2.454 2.34zM18.245 51.75l-1.285 1.811c.036.551.032 1.279-.157 1.788h22.762c-.189-.51-.193-1.237-.157-1.788l-1.285-1.81-9.939-13.337zm14.059-20.829v-2.536h-8.24v2.536zm1.26-11.077c.215.553.346 1.142.38 1.749h15.797a2.583 2.583 0 0 0 2.442-1.749zm-5.63-17.56a2.172 2.172 0 0 0-2.167 2.075 5.425 5.425 0 0 1 1.938-.358c.862 0 1.676.205 2.399.564a2.172 2.172 0 0 0-2.17-2.281zm-2.347 8.171l5.84-1.028V9.37c0-2.05-1.67-3.716-3.721-3.716a3.712 3.712 0 0 0-3.701 3.323c-.094.885.707 1.633 1.582 1.478zm-1.145 2.958a3.496 3.496 0 0 0 3.491 3.495 3.497 3.497 0 0 0 3.494-3.495v-2.31l-5.554.978c-.48.086-.958.054-1.43-.092zm3.494 5.146c-.586 0-1.148-.1-1.673-.284a4.148 4.148 0 0 0-2.2 3.642v4.813h8.24v-4.813a4.14 4.14 0 0 0-2.412-3.745 5.152 5.152 0 0 1-1.955.387zM9.725 55.35h4.707a.88.88 0 0 0 .877-.879v-1.173c0-.391.42-.934.67-1.206h-1.41l-.805 1.581a.833.833 0 0 1-.564.433l-2.456.521a1.58 1.58 0 0 0-1.02.723zm32.211 0h4.707a1.579 1.579 0 0 0-1.019-.723l-2.456-.52a.833.833 0 0 1-.564-.434l-.805-1.58h-1.41c.624.68.777 1.474.67 2.378a.88.88 0 0 0 .877.879z"/></g></g></svg>