<svg xmlns="http://www.w3.org/2000/svg" width="48" height="57" viewBox="0 0 48 57"><g><g><path fill="#4896ff" d="M17.16 20.29a3.758 3.758 0 0 1 3.754 3.753c0 .455-.37.825-.825.825h-5.858a.825.825 0 0 1-.825-.825 3.758 3.758 0 0 1 3.754-3.753zm-1.935 2.928h3.87a2.107 2.107 0 0 0-1.935-1.278c-.867 0-1.614.527-1.935 1.278zm-2.116-5.03a2.107 2.107 0 0 0-2.975 0 .826.826 0 0 1-1.167-1.168 3.76 3.76 0 0 1 5.31 0 .825.825 0 1 1-1.168 1.167zm7.135 0a.826.826 0 0 1-1.167-1.167 3.731 3.731 0 0 1 2.654-1.1 3.73 3.73 0 0 1 2.655 1.1.824.824 0 1 1-1.167 1.166 2.09 2.09 0 0 0-1.488-.616 2.09 2.09 0 0 0-1.487.616zm24.657 2.37c2.942 2.942 2.942 7.728 0 10.67a7.5 7.5 0 0 1-5.337 2.209c-.324 0-.644-.02-.96-.06-1.32 1.434-3.302 1.758-4.822 1.758-.805 0-1.479-.091-1.856-.155-1.324.673-3.455 1.023-6.343 1.039a42.606 42.606 0 0 1-2.697-.075c.522 1.153 1.174 2.945 1.388 5.056l.001.018.145 1.8c.003.042.103 1.191.08 2.865a.825.825 0 0 1-.826.813h-.012a.825.825 0 0 1-.813-.836c.022-1.584-.158-3.752-.158-3.752H8.434c-.032.339-.521 6.667.906 10.868h3.913c-.282-2.004-.597-6.494 1.74-8.83a.825.825 0 0 1 1.167 0c2.339 2.335 2.024 6.826 1.741 8.83h3.915c.379-1.118.658-2.431.832-3.914a.825.825 0 0 1 1.64.192c-.19 1.62-.502 3.064-.928 4.304a3.398 3.398 0 0 1 1.5 2.817c0 .456-.37.825-.826.825h-7.11a.825.825 0 0 1-.825-.825v-2.574c0-.056.017-.17.018-.174.313-1.458.73-5.313-.54-7.54-1.275 2.23-.854 6.083-.54 7.54v.002a.82.82 0 0 1 .019.172v2.574c0 .456-.37.825-.825.825H7.12a.825.825 0 0 1-.826-.825c0-1.171.596-2.206 1.5-2.817-.69-2.01-.983-4.255-1.09-6.158-.36.06-.772.107-1.191.107-.767 0-1.554-.156-2.068-.67-1.112-1.111-.49-3.21-.241-3.903.031-7.724 2.485-11.561 4.008-13.2A7.151 7.151 0 0 1 3.43 23.57c-.023-.444-.04-.889-.055-1.334a3.31 3.31 0 0 1-2.519-3.21 3.3 3.3 0 0 1 1.139-2.493c-.059-.496-.124-1.003-.192-1.532-.393-3.06-.8-6.223-.095-8.826a.826.826 0 0 1 1.593.431c-.62 2.287-.234 5.285.14 8.184l.124.985c.155-.029.314-.046.475-.052.982-.448 1.555-1.847 1.863-2.967a4.08 4.08 0 0 1 2.776-2.838 4.07 4.07 0 0 1 3.87.84 4.616 4.616 0 0 0 6.06 0 4.07 4.07 0 0 1 3.868-.84 4.08 4.08 0 0 1 2.776 2.838c.309 1.12.881 2.519 1.863 2.967.145.005.287.02.427.043.791-2.823 1.837-8.505-.236-10.576-1.671-1.671-3.998.312-4.096.397a.828.828 0 0 1-1.266-.223c-.002-.003-.698-1.164-2.793-2.039-3.595-1.502-8.407-1.014-11.81-.34-1.132.224-2.009.632-2.68 1.246a.825.825 0 0 1-1.115-1.216c.888-.813 2.057-1.368 3.475-1.649 10.242-2.027 14.42.971 15.799 2.457 1.432-.925 3.79-1.664 5.653.2 1.497 1.496 2.008 4.177 1.518 7.968a31.46 31.46 0 0 1-.93 4.457 3.301 3.301 0 0 1 1.239 2.578 3.311 3.311 0 0 1-2.52 3.21c-.014.445-.032.89-.055 1.334a7.152 7.152 0 0 1-3.094 5.55 86.206 86.206 0 0 0 6 1.572l-2.686-2.686a.825.825 0 0 1 0-1.167l6.282-6.28c2.943-2.94 7.73-2.94 10.673 0zm-16.252-1.533c0-.62-.343-1.162-.85-1.445.025.955.032 1.916.021 2.877.495-.287.83-.82.83-1.432zM3.334 20.457c-.01-.96-.003-1.92.022-2.877-.507.284-.85.825-.85 1.445 0 .612.334 1.145.828 1.432zM23.002 55.35a1.751 1.751 0 0 0-1.538-.924H17.75v.924zm-9.596 0v-.924H9.69a1.751 1.751 0 0 0-1.537.924zM5.078 23.484a5.512 5.512 0 0 0 5.265 5.238c3.474.164 6.996.164 10.469 0a5.511 5.511 0 0 0 5.265-5.238 75.96 75.96 0 0 0 .057-6.41c-1.108-.64-1.938-1.942-2.473-3.88a2.439 2.439 0 0 0-1.659-1.697 2.427 2.427 0 0 0-2.307.502 6.272 6.272 0 0 1-8.235 0 2.427 2.427 0 0 0-2.307-.502 2.439 2.439 0 0 0-1.66 1.697c-.534 1.938-1.364 3.24-2.472 3.88a76.237 76.237 0 0 0 .057 6.41zm14.02 6.955c-1.171.036-2.346.056-3.52.056-1.06 0-2.119-.017-3.175-.046.462.93 1.807 1.624 3.345 1.624 1.543 0 2.892-.699 3.35-1.634zM4.613 45.47c.212.211 1.063.257 2.038.063-.007-.731.01-1.358.03-1.825H4.63c-.197.74-.248 1.53-.017 1.762zM21.56 34.187c1.886.2 6.997.452 9.366-.558l-.093-1.204c-1.403-.305-4.993-1.128-8.43-2.288a7.288 7.288 0 0 1-1.513.234l-.04.001c-.39 1.896-2.529 3.35-5.101 3.35-2.567 0-4.7-1.447-5.1-3.336l-.383-.016a7.295 7.295 0 0 1-1.35-.19c-.99.863-3.86 4.033-4.05 11.88h1.9c.026-.356.065-.723.121-1.099.258-1.716.754-3.05.775-3.106a.825.825 0 0 1 1.546.58c-.005.012-.282.763-.513 1.823h13.813c-.48-2.789-1.72-4.79-1.734-4.812a.825.825 0 0 1 .786-1.259zm11.005-.783c.925.117 2.744.213 4.075-.553a7.494 7.494 0 0 1-1.797-1.071l-.977.976a.826.826 0 0 1-1.167 0l-.2-.2zm11.17-3.343a5.9 5.9 0 0 0 0-8.336 5.905 5.905 0 0 0-8.34 0L33.15 23.97l.658.658a.825.825 0 1 1-1.167 1.167l-.658-.658-2.286 2.286.537.536.656-.656a.826.826 0 0 1 1.167 1.167l-.656.656.39.39.656-.656a.826.826 0 0 1 1.167 1.166l-.656.656.325.325.945-.945a.823.823 0 0 1 1.167 0 5.854 5.854 0 0 0 3.005 1.612l.027.005c.371.072.751.11 1.138.11a5.858 5.858 0 0 0 4.17-1.727zm-3.563-7.537c.6.6.932 1.4.932 2.25a3.16 3.16 0 0 1-.932 2.249c-.601.6-1.4.931-2.25.931-.851 0-1.65-.33-2.251-.931a3.16 3.16 0 0 1-.933-2.25c0-.85.332-1.649.933-2.25.6-.6 1.4-.931 2.25-.931.85 0 1.65.33 2.25.932zm-.719 2.249c0-.409-.16-.794-.449-1.083a1.522 1.522 0 0 0-1.083-.448c-.41 0-.794.159-1.083.448-.29.29-.45.674-.45 1.083 0 .409.16.794.45 1.083.289.29.674.448 1.083.448.41 0 .794-.159 1.083-.448.29-.29.45-.674.45-1.083zm-6.918-9.737a.825.825 0 0 1-.432-1.084l1.248-2.896a.826.826 0 0 1 1.516.652l-1.248 2.897a.826.826 0 0 1-1.084.431zm1.949.122l2.325-2.017a.826.826 0 0 1 1.082 1.247l-2.326 2.016a.822.822 0 0 1-1.164-.083.825.825 0 0 1 .083-1.163z"/></g></g></svg>