<svg xmlns="http://www.w3.org/2000/svg" width="22" height="36" viewBox="0 0 22 36"><g><g><path fill="#fff" d="M21.584 11.616v12.68c0 5.97-4.823 10.825-10.75 10.825-5.926 0-10.748-4.87-10.748-10.858V11.616C.086 5.631 4.908.757 10.835.757c5.926 0 10.749 4.874 10.749 10.86zm-2.022 0c0-4.878-3.915-8.848-8.727-8.848s-8.727 3.97-8.727 8.848v12.647c0 4.878 3.915 8.848 8.727 8.848s8.727-3.955 8.727-8.815zm-7.716-1.542v3.52c0 .556-.453 1.006-1.011 1.006-.559 0-1.011-.45-1.011-1.007v-3.519c0-.556.452-1.003 1.01-1.003.56 0 1.012.447 1.012 1.003z"/></g></g></svg>