<svg xmlns="http://www.w3.org/2000/svg" width="37" height="37" viewBox="0 0 37 37"><g><g><path fill="#4896ff" d="M.018 33.674a.602.602 0 0 1 .584-.75h.633a12.653 12.653 0 0 1 10.227-11.809c-.007-.074-.024-.153-.024-.232a2.409 2.409 0 1 1 4.816 0c0 .08-.017.158-.024.232a12.653 12.653 0 0 1 10.228 11.81h.633a.601.601 0 0 1 .584.75l-.603 2.405a.606.606 0 0 1-.584.457H1.204a.606.606 0 0 1-.584-.457zm26.301.455H1.373l.301 1.201h24.344zM12.65 20.944c.394-.037.793-.06 1.197-.06.405 0 .803.021 1.198.06 0-.02.006-.039.006-.06 0-.663-.539-1.207-1.204-1.207-.665 0-1.204.544-1.204 1.206 0 .022.006.04.006.06zm-10.21 11.98h22.815a11.445 11.445 0 0 0-11.408-10.838A11.445 11.445 0 0 0 2.44 32.925zm13.966-9.31l-.301 1.165a9.051 9.051 0 0 0-10.08 4.23l-1.042-.6a10.254 10.254 0 0 1 11.423-4.796zM4.356 29.687l1.116.452a8.849 8.849 0 0 0-.372 1.128l-1.165-.3c.112-.437.253-.862.421-1.28zM36.121 4.026v31.908c0 .334-.27.603-.602.603h-7.224V35.33h6.622V4.63H14.448v12.643h-1.204V4.026a.593.593 0 0 1 .51-.583v-.01L33.018.423a.603.603 0 0 1 .695.596v2.407h1.806a.6.6 0 0 1 .602.6zm-3.612-2.307l-10.91 1.707h10.91zm-13.36 9.396a1.81 1.81 0 0 0 2.05.35L18.298 8.56l.85-.851 2.902 2.9a1.808 1.808 0 0 0-.347-2.047L20 6.86l.851-.849 1.703 1.7a3.007 3.007 0 0 1 .383 3.785l1.746 1.75.894-.895a3.01 3.01 0 0 1 .383-3.788l.851-.852c.024-.027.05-.045.074-.072a3.01 3.01 0 0 1 4.182 4.33l-.85.852a3.02 3.02 0 0 1-3.789.383l-.894.896 5.533 5.53-.85.85-5.534-5.53-5.534 5.53-.851-.85 5.533-5.53-1.746-1.749a3.009 3.009 0 0 1-3.787-.383l-1.703-1.702.85-.85zm7.618-1.655a1.81 1.81 0 0 0 .044 2.557c.718.69 1.861.67 2.554-.049l.851-.853a1.802 1.802 0 0 0 0-2.507 1.807 1.807 0 0 0-2.554-.045l-.85.853-.045.044zm5.14 12.626h1.204v1.206h-1.204zm0 2.41h1.204V25.7h-1.204zm0 2.405h1.204v1.21h-1.204zm-9.03-4.815h7.826v1.206h-7.827zm2.407 2.41h5.419V25.7h-5.419zm1.807 2.405h3.612v1.21H27.09zM10.836 5.23h1.204v10.836h-1.204z"/></g></g></svg>