<svg xmlns="http://www.w3.org/2000/svg" width="35" height="32" viewBox="0 0 35 32"><g><g><path fill="#4896ff" d="M22.197 8.537c-.197 1.708-1.958 3.047-4.009 3.047-1.114 0-2.12-.412-2.761-1.13a2.677 2.677 0 0 1-.671-2.107c.197-1.68 1.984-3.05 3.983-3.05 1.12 0 2.135.42 2.786 1.155.522.59.76 1.325.672 2.085zm-1.878-1.012c-.34-.38-.93-.613-1.58-.613-1.166 0-2.279.758-2.38 1.625a1.04 1.04 0 0 0 .273.84c.33.367.911.59 1.556.59 1.203 0 2.305-.742 2.405-1.62a1.048 1.048 0 0 0-.274-.822zm.88 16.604c.103.178.237.546-.01 1.007-.511 1-2.19 2.046-3.869 2.046-.07 0-1.872.072-3.056-1.371-.735-.897-.975-2.135-.732-3.553l.002-.007c.08-.447.696-3.581.738-3.785.44-2.199-.024-2.528-.222-2.669a1.265 1.265 0 0 1-.426-.44c-.098-.183-.221-.55.037-1.005.56-1.028 2.386-2.071 4.132-1.935 1.18.098 2.178.608 2.808 1.443.698.926.919 2.16.64 3.568l-.003.01a590.942 590.942 0 0 1-.66 3.105l-.108.5c-.381 2.201.091 2.522.293 2.656.13.091.31.209.437.43zm-1.885-9.293c-.354-.469-.924-.747-1.65-.803-.497-.04-1.093.086-1.635.35-.276.134-.5.283-.663.42.571.596.959 1.636.488 3.986l-.002.007c-.026.126-.642 3.262-.73 3.74-.161.948-.022 1.733.404 2.262.365.46.942.724 1.669.766.499.025 1.091-.118 1.626-.4.272-.138.492-.292.652-.432-.587-.577-1.002-1.616-.592-3.973 0-.006.001-.008.002-.011.006-.034.025-.12.116-.546.135-.629.386-1.79.659-3.091.186-.944.067-1.73-.344-2.275zM32.679 30.81a.81.81 0 0 1-1.058.981l-5.86-2.199c-2.445 1.215-5.204 1.855-8.003 1.855-4.477 0-8.689-1.594-11.86-4.485C2.705 24.047.946 20.165.946 16.032c0-4.127 1.759-8.01 4.952-10.92 3.171-2.897 7.384-4.49 11.86-4.49 4.477 0 8.689 1.593 11.86 4.49 3.194 2.91 4.952 6.793 4.952 10.92 0 3.373-1.219 6.676-3.44 9.345zm-1.991-1.097l-1.23-4.309a.818.818 0 0 1 .171-.76c2.177-2.465 3.327-5.445 3.327-8.612 0-7.605-6.818-13.793-15.198-13.793S2.56 8.427 2.56 16.032c0 7.612 6.818 13.794 15.198 13.794 2.664 0 5.286-.633 7.58-1.835a.794.794 0 0 1 .657-.037z"/></g></g></svg>