<svg xmlns="http://www.w3.org/2000/svg" width="18" height="24" viewBox="0 0 18 24"><defs><mask id="73hjb" width="2" height="2" x="-1" y="-1"><path fill="#fff" d="M0 0h18v23H0z"/><path d="M16.523 9.254L4.075.795C3.5.401 2.92.195 2.439.195 1.51.196.933.936.933 2.177v18.286c0 1.24.575 1.979 1.503 1.979.483 0 1.053-.208 1.629-.598l12.454-8.46c.8-.544 1.244-1.28 1.244-2.068 0-.785-.438-1.519-1.24-2.061z"/></mask><filter id="73hja" width="38" height="44" x="-10" y="-10" filterUnits="userSpaceOnUse"><feOffset dy="1" in="SourceGraphic" result="FeOffset1086Out"/><feGaussianBlur in="FeOffset1086Out" result="FeGaussianBlur1087Out" stdDeviation="0 0"/></filter></defs><g><g><g filter="url(#73hja)"><path fill="none" d="M16.523 9.254L4.075.795C3.5.401 2.92.195 2.439.195 1.51.196.933.936.933 2.177v18.286c0 1.24.575 1.979 1.503 1.979.483 0 1.053-.208 1.629-.598l12.454-8.46c.8-.544 1.244-1.28 1.244-2.068 0-.785-.438-1.519-1.24-2.061z" mask="url(&quot;#73hjb&quot;)"/><path fill="#fff" fill-opacity=".6" d="M16.523 9.254L4.075.795C3.5.401 2.92.195 2.439.195 1.51.196.933.936.933 2.177v18.286c0 1.24.575 1.979 1.503 1.979.483 0 1.053-.208 1.629-.598l12.454-8.46c.8-.544 1.244-1.28 1.244-2.068 0-.785-.438-1.519-1.24-2.061z"/></g><path fill="#13141c" d="M16.523 9.254L4.075.795C3.5.401 2.92.195 2.439.195 1.51.196.933.936.933 2.177v18.286c0 1.24.575 1.979 1.503 1.979.483 0 1.053-.208 1.629-.598l12.454-8.46c.8-.544 1.244-1.28 1.244-2.068 0-.785-.438-1.519-1.24-2.061z"/></g></g></svg>