<svg xmlns="http://www.w3.org/2000/svg" width="43" height="43" viewBox="0 0 43 43"><g><g><path fill="#fff" d="M42.357 12.388v26.476a4.141 4.141 0 0 1-4.137 4.135H11.747a4.141 4.141 0 0 1-4.136-4.135v-3.476H4.136A4.143 4.143 0 0 1 0 31.248V4.778A4.142 4.142 0 0 1 4.136.64H30.61a4.141 4.141 0 0 1 4.137 4.136v3.477h3.474a4.14 4.14 0 0 1 4.137 4.134zM30.609 33.733a2.487 2.487 0 0 0 2.482-2.484V4.777a2.485 2.485 0 0 0-2.482-2.481H4.136a2.485 2.485 0 0 0-2.481 2.48V31.25a2.487 2.487 0 0 0 2.481 2.484zm10.093-21.345a2.484 2.484 0 0 0-2.482-2.48h-3.474v21.34a4.143 4.143 0 0 1-4.137 4.14H9.266v3.476a2.485 2.485 0 0 0 2.481 2.48H38.22a2.485 2.485 0 0 0 2.482-2.48zM12.595 39.275c0 .457-.37.827-.827.827h-.022a.827.827 0 1 1 0-1.655h.022c.457 0 .827.37.827.828zm26.455 0c0 .457-.37.827-.828.827H14.145a.827.827 0 1 1 0-1.655h24.077c.457 0 .828.37.828.828zM9.93 4.367c0 .453-.37.825-.827.825H9.08a.827.827 0 0 1 0-1.657h.022a.83.83 0 0 1 .827.832zm-2.399 0c0 .453-.37.825-.827.825H4.136a.827.827 0 1 1 0-1.657h2.568a.83.83 0 0 1 .827.832zm16.47 15.055a2.783 2.783 0 0 1-1.068 1.055L18.86 22.83c-.022.018-.045.032-.068.049l-4.178 2.409a2.832 2.832 0 0 1-4.247-2.446v-9.648a2.832 2.832 0 0 1 2.832-2.829c.556 0 1.094.16 1.556.462l4.037 2.332c.04.023.082.05.122.074l4.047 2.338c.652.375 1.12.983 1.317 1.71.197.73.098 1.487-.277 2.142zm-1.319-1.708a1.16 1.16 0 0 0-.546-.71l-4.068-2.348c-.014-.01-.028-.02-.042-.027a.478.478 0 0 0-.059-.037l-4.061-2.346a.241.241 0 0 1-.05-.03 1.152 1.152 0 0 0-.656-.199c-.649 0-1.177.526-1.177 1.176v9.562a.893.893 0 0 1 .004.087 1.176 1.176 0 0 0 1.76 1.013l4.108-2.372a.328.328 0 0 1 .069-.043l4.147-2.396c.004-.003.008-.007.012-.007.184-.1.338-.253.444-.438.156-.27.196-.585.115-.885z"/></g></g></svg>