<svg xmlns="http://www.w3.org/2000/svg" width="28" height="16" viewBox="0 0 28 16"><g><g><path fill="#fff" d="M26.721 12.515c-.606-.725-1.296-1.376-1.963-2.005-.238-.224-.483-.455-.72-.685-.678-.661-.703-.909-.165-1.66.371-.517.766-1.036 1.147-1.537a80.47 80.47 0 0 0 1.046-1.396l.07-.097c.655-.903 1.333-1.836 1.693-2.962.094-.297.192-.735-.033-1.1-.224-.365-.66-.477-.968-.529a2.673 2.673 0 0 0-.445-.029l-4.29-.003h-.035c-.648 0-1.085.304-1.336.93a25.59 25.59 0 0 1-.801 1.842c-.597 1.206-1.354 2.596-2.45 3.755l-.047.05c-.13.138-.276.295-.383.295a.188.188 0 0 1-.055-.01c-.227-.088-.379-.635-.372-.89v-.01l-.003-4.938a.38.38 0 0 0-.003-.051c-.11-.803-.351-1.303-1.265-1.48a.356.356 0 0 0-.073-.008h-4.46c-.727 0-1.128.294-1.504.734-.102.118-.313.363-.208.66.106.302.451.366.564.387.558.106.872.446.961 1.04.156 1.032.175 2.132.06 3.465-.031.37-.095.656-.199.9-.024.058-.11.243-.197.244-.028 0-.108-.011-.254-.112-.346-.236-.6-.573-.895-.989-1.004-1.413-1.846-2.97-2.576-4.76-.27-.66-.776-1.028-1.424-1.04C4.426.517 3.781.512 3.165.512 2.493.51 1.87.517 1.26.53.74.539.38.694.19.993 0 1.29.01 1.683.225 2.157c1.716 3.8 3.272 6.563 5.046 8.96 1.242 1.676 2.488 2.836 3.922 3.651 1.51.86 3.201 1.279 5.172 1.279a15 15 0 0 0 .687-.017c1.145-.055 1.57-.468 1.623-1.579.026-.567.088-1.162.369-1.67.176-.32.341-.32.395-.32.105 0 .234.048.373.138.25.162.463.38.638.569.165.18.328.362.491.544.353.393.717.8 1.097 1.185.833.843 1.75 1.214 2.804 1.134h3.933l.025-.001c.392-.026.731-.242.931-.594.248-.436.243-.992-.013-1.487-.29-.56-.667-1.04-.998-1.434z"/></g></g></svg>