<?xml version="1.0" standalone="no"?>
<!DOCTYPE svg PUBLIC "-//W3C//DTD SVG 1.1//EN" "http://www.w3.org/Graphics/SVG/1.1/DTD/svg11.dtd" >
<svg xmlns="http://www.w3.org/2000/svg" xmlns:xlink="http://www.w3.org/1999/xlink" version="1.1">
<metadata>
Created by FontForge 20170731 at Sat Aug 25 01:26:47 2018
 By Aleksey,,,
Copyright 2018 The Manrope Project Authors (https://github.com/sharanda/manrope)
</metadata>
<defs>
<font id="Manrope-Semibold" horiz-adv-x="569" >
  <font-face 
    font-family="Manrope Semibold"
    font-weight="600"
    font-stretch="semi-condensed"
    units-per-em="960"
    panose-1="0 0 7 6 0 0 0 0 0 0"
    ascent="768"
    descent="-192"
    x-height="540"
    cap-height="720"
    bbox="-29 -273 1091 983"
    underline-thickness="50"
    underline-position="-250"
    unicode-range="U+0020-FB02"
  />
<missing-glyph horiz-adv-x="740" 
d="M640 720v-13h-540v13h540zM640 665v-16h-540v16h540zM640 610v-18h-540v18h540zM640 554v-21h-540v21h540zM640 498v-22h-540v22h540zM640 443v-24h-540v24h540zM640 388v-28h-540v28h540zM640 333v-30h-540v30h540zM640 278v-33h-540v33h540zM640 222v-35h-540v35h540z
M640 167v-37h-540v37h540zM640 112v-40h-540v40h540zM640 0h-540v57h540v-57z" />
    <glyph glyph-name="fl" unicode="fl" horiz-adv-x="657" 
d="M482 735h105v-735h-105v456h-250v-456h-105v456h-117v84h117v10q0 88 50 138q64 58 204 45v-91q-44 6 -81 -1q-38 -6 -53 -26.5t-15 -56.5v-18h250v195z" />
    <glyph glyph-name="f_f" unicode="ff" horiz-adv-x="752" 
d="M661 641q-38 -6 -53 -26.5t-15 -56.5v-18h149v-84h-149v-456h-105v456h-256v-456h-105v456h-117v84h117v10q0 88 50 138q64 58 204 45v-91q-44 6 -81 -1q-38 -6 -53 -26.5t-15 -56.5v-18h256v10q0 88 50 138q64 58 204 45v-91q-44 6 -81 -1z" />
    <glyph glyph-name="f_f_l" unicode="ffl" horiz-adv-x="986" 
d="M811 735h105v-735h-105v456h-250v-456h-105v456h-224v-456h-105v456h-117v84h117v10q0 88 50 138q64 58 204 45v-91q-44 6 -81 -1q-38 -6 -53 -26.5t-15 -56.5v-18h224v10q0 89 50 138q64 58 204 45v-91q-44 7 -82 -1q-37 -6 -52 -26.5t-15 -56.5v-18h250v195z" />
    <glyph glyph-name="t_t" unicode="tt" horiz-adv-x="785" 
d="M581 456v-237q0 -75 12 -94q19 -34 60 -37q44 -3 88 3v-91q-70 -18 -137 -4q-77 19 -106 75q-22 44 -22 141v244h-258v-237q0 -73 13 -94q18 -34 59 -37q45 -3 89 3v-91q-71 -18 -137 -4q-78 20 -106 75q-22 42 -22 141v244h-104v84h104v150h104v-150h258v150h105v-150
h160v-84h-160z" />
    <glyph glyph-name="hyphen_greater.liga" unicode="&#x2d;&#x3e;" horiz-adv-x="1008" 
d="M630 516l238 -239l-238 -238l-52 52l145 144l-583 1v84l583 -1l-145 145z" />
    <glyph glyph-name="parenleft_greater_parenright.liga" unicode="&#x28;&#x3e;&#x29;" horiz-adv-x="1083" 
d="M542 -135q134 0 248 66t180.5 180t66.5 249t-66.5 249t-180.5 180t-248 66q-101 0 -192.5 -39t-158 -105.5t-105.5 -158t-39 -192.5t39 -192.5t105.5 -158t158 -105.5t192.5 -39zM542 -36q-165 0 -280.5 116t-115.5 281q0 164 115.5 279.5t280.5 115.5
q164 0 279.5 -115.5t115.5 -279.5q0 -165 -115.5 -281t-279.5 -116zM473 530l204 -170l-204 -170v340z" />
    <glyph glyph-name="parenleft_c_parenright.liga" unicode="&#x28;c&#x29;" horiz-adv-x="892" 
d="M446 -130q166 0 282.5 117t116.5 283q0 165 -116.5 282t-282.5 117t-282.5 -117t-116.5 -282q0 -166 116.5 -283t282.5 -117zM446 -30q-124 0 -212 88t-88 212t88 212t212 88t212 -88t88 -212t-88 -212t-212 -88zM618 381l-76 -32q-5 10 -10 17q-28 39 -84 39
q-54 0 -84 -39q-26 -35 -26 -95q0 -59 26 -95q29 -38 84 -38t84 38q4 5 10 17l76 -33q-12 -21 -22 -32q-51 -65 -148 -67q-96 0 -148 67q-49 56 -47 143q0 88 47 144q54 66 148 66t148 -66q16 -20 22 -34z" />
    <glyph glyph-name="space_less_three_space.liga" unicode="&#x20;&#x3c;&#x33;&#x20;" horiz-adv-x="1205" 
d="M711 555q78 0 137 -62q57 -61 57 -144q0 -81 -57 -143l-184 -195q-24 -26 -62 -26q-36 0 -60 26l-185 195q-57 62 -57 143q0 85 57 143q59 63 137 63q57 0 108 -35q52 35 109 35zM711 471q-54 0 -109 -59q-56 59 -108 59q-42 0 -76 -37q-32 -34 -34 -84q0 -50 34 -86
l184 -194l185 194q34 35 34 86q0 48 -34 84q-34 37 -76 37z" />
    <glyph glyph-name="less_hyphen.liga" unicode="&#x3c;&#x2d;" horiz-adv-x="1008" 
d="M868 320v-84l-583 -1l144 -144l-51 -52l-238 238l238 239l51 -52l-144 -145z" />
    <glyph glyph-name=".notdef" horiz-adv-x="740" 
d="M640 720v-13h-540v13h540zM640 665v-16h-540v16h540zM640 610v-18h-540v18h540zM640 554v-21h-540v21h540zM640 498v-22h-540v22h540zM640 443v-24h-540v24h540zM640 388v-28h-540v28h540zM640 333v-30h-540v30h540zM640 278v-33h-540v33h540zM640 222v-35h-540v35h540z
M640 167v-37h-540v37h540zM640 112v-40h-540v40h540zM640 0h-540v57h540v-57z" />
    <glyph glyph-name=".null" horiz-adv-x="400" 
 />
    <glyph glyph-name="nonmarkingreturn" horiz-adv-x="770" 
 />
    <glyph glyph-name="space" unicode=" " horiz-adv-x="213" 
 />
    <glyph glyph-name="exclam" unicode="!" horiz-adv-x="345" 
d="M120 720h105v-540h-105v540zM120 101h105v-101h-105v101z" />
    <glyph glyph-name="quotedbl" unicode="&#x22;" horiz-adv-x="442" 
d="M60 720h105v-180h-105v180zM237 720h105v-180h-105v180z" />
    <glyph glyph-name="numbersign" unicode="#" horiz-adv-x="928" 
d="M841 434h-188l-36 -132h189l-27 -99h-188l-54 -202h-103l54 202h-137l-54 -202h-103l55 202h-189l26 99h189l35 132h-189l27 99h189l50 187h103l-51 -187h138l50 187h103l-51 -187h189zM515 302l35 132h-137l-35 -132h137z" />
    <glyph glyph-name="dollar" unicode="$" horiz-adv-x="591" 
d="M474 318q57 -54 57 -133q0 -48 -24 -92.5t-67 -69.5q-39 -25 -92 -34v-88h-105v90q-93 19 -140 92q-43 58 -43 133h106q0 -45 26 -76q40 -55 102 -55q58 0 93 29q34 27 34 73q0 41 -39 71q-27 19 -85.5 43.5t-71.5 31.5q-77 34 -115 84q-38 48 -38 114q0 88 64 147
q42 39 107 52v89h105v-90q75 -19 119 -75q49 -59 50 -136l-110 -1q0 39 -26 74q-37 44 -88 44q-52 0 -83 -33q-28 -28 -28 -69q0 -34 17 -56q23 -32 99 -62q110 -47 141 -68q19 -13 35 -29z" />
    <glyph glyph-name="percent" unicode="%" horiz-adv-x="881" 
d="M240 375q-74 0 -127 52.5t-53 127.5q0 73 54 126.5t126 53.5q74 0 127 -52.5t53 -127.5t-53 -127.5t-127 -52.5zM160 10l-70 70l631 630l70 -71zM240 456q40 0 69.5 29t29.5 70t-29.5 70t-69.5 29t-69.5 -29t-29.5 -70t29.5 -70t69.5 -29zM641 -15q-74 0 -127 52.5
t-53 127.5q0 73 54 126.5t126 53.5q74 0 127 -52.5t53 -127.5t-53 -127.5t-127 -52.5zM641 66q41 0 70 29t29 70t-29 70t-70 29t-70.5 -29t-29.5 -70t29.5 -70t70.5 -29z" />
    <glyph glyph-name="ampersand" unicode="&#x26;" horiz-adv-x="663" 
d="M570 300v-96q0 -28 -9 -58l91 -83l-68 -72l-73 69q-43 -45 -109 -62q-40 -13 -96 -13q-132 0 -200 74q-53 59 -56 145q0 89 49 147q21 26 54 42q-35 38 -50.5 69.5t-15.5 73.5q0 60 32.5 109t87.5 71q47 18 104 18q102 0 158 -56q38 -34 53 -85l-103 -24q-7 26 -25 41
q-29 25 -85 25q-36 0 -63 -13q-52 -25 -52 -87q0 -39 34 -78q6 -6 50 -48l183 -169q2 20 2 27v133h189v-100h-82zM436 131l-205 188q-32 -11 -52 -35q-23 -29 -23 -74q2 -50 26 -79q38 -46 128 -46q43 0 69 11q29 11 57 35z" />
    <glyph glyph-name="quotesingle" unicode="'" horiz-adv-x="245" 
d="M60 720h105v-180h-105v180z" />
    <glyph glyph-name="parenleft" unicode="(" horiz-adv-x="422" 
d="M332 798l-86 49q-66 -113 -99 -252q-29 -131 -27 -264q2 -148 27 -265q37 -147 99 -251l86 49q-107 188 -105 467q2 285 105 467z" />
    <glyph glyph-name="parenright" unicode=")" horiz-adv-x="422" 
d="M90 798q103 -182 105 -467q2 -279 -105 -467l86 -49q62 104 99 251q25 117 27 265q2 133 -27 264q-33 139 -99 252z" />
    <glyph glyph-name="asterisk" unicode="*" horiz-adv-x="455" 
d="M395 553l-106 -35l66 -91l-76 -55l-66 91l-67 -91l-76 55l67 91l-107 35l29 89l107 -34v112h94v-112l106 34z" />
    <glyph glyph-name="plus" unicode="+" horiz-adv-x="600" 
d="M540 325v-84h-198v-198h-84v198h-198v84h198v198h84v-198h198z" />
    <glyph glyph-name="comma" unicode="," horiz-adv-x="291" 
d="M171 -10q0 -60 -28.5 -89.5t-82.5 -20.5l6 47q59 -4 52 73h-58v121h111v-131z" />
    <glyph glyph-name="hyphen" unicode="-" horiz-adv-x="420" 
d="M60 325h300v-84h-300v84z" />
    <glyph glyph-name="period" unicode="." horiz-adv-x="287" 
d="M88 111h111v-111h-111v111z" />
    <glyph glyph-name="slash" unicode="/" horiz-adv-x="418" 
d="M252 720h106l-192 -720h-106z" />
    <glyph glyph-name="zero" unicode="0" horiz-adv-x="642" 
d="M321 -14q118 0 191 81q60 69 60 182v223q0 113 -61 183q-73 82 -190 80q-55 1 -105 -20.5t-84 -59.5q-35 -41 -48.5 -83t-13.5 -100v-223q0 -109 60 -182q70 -81 191 -81zM321 636q38 0 71 -19t53 -51q20 -36 20 -94v-223q0 -64 -22 -98q-20 -31 -52.5 -49t-69.5 -17
q-36 -1 -68 17t-53 49q-23 34 -23 98v223q0 62 22 95q19 31 52 50t70 19z" />
    <glyph glyph-name="one" unicode="1" horiz-adv-x="422" 
d="M195 720h107v-720h-107v605l-135 -82v116z" />
    <glyph glyph-name="two" unicode="2" horiz-adv-x="589" 
d="M54 500q-3 106 81 180q65 55 166 55q110 0 173 -72q65 -67 65 -165q0 -67 -27 -113.5t-90 -101.5l-207 -183h312v-99h-477v99l316 274q66 58 66 125q0 57 -39 96q-39 41 -98 41q-49 0 -87 -33q-48 -43 -46 -103h-108z" />
    <glyph glyph-name="three" unicode="3" horiz-adv-x="572" 
d="M460 378q54 -63 52 -155q-3 -114 -80 -179q-63 -55 -160 -58q-92 -2 -161 57q-50 43 -71 110l101 28q13 -41 41 -63q38 -34 89 -32q54 0 90 33q44 38 44 104t-42 104q-35 34 -92 34q-35 0 -69 -18l-49 83l207 195h-292v99h433v-103l-178 -168q83 -12 137 -71z" />
    <glyph glyph-name="four" unicode="4" horiz-adv-x="599" 
d="M478 224h71v-98h-71v-126h-106v126h-322v98l234 496h109l-234 -496h213v195h106v-195z" />
    <glyph glyph-name="five" unicode="5" horiz-adv-x="583" 
d="M95 720h379v-99h-285l-12 -198q58 40 123 40q88 0 158 -59q77 -69 75 -177q0 -99 -73 -172q-67 -66 -173 -69q-99 -2 -170 66q-49 47 -67 112l101 27q9 -40 39 -67q41 -38 97 -38q57 0 99 40q42 42 42 101q0 60 -45 102q-40 38 -96 38q-57 0 -94 -36q-17 -15 -27 -34
l-93 53z" />
    <glyph glyph-name="six" unicode="6" horiz-adv-x="621" 
d="M522 649l-77 -72q-44 59 -117 59q-39 0 -73.5 -20t-51.5 -52q-26 -38 -26 -100v-67q64 66 154 66q94 0 162 -62q72 -69 72 -175q-2 -101 -74 -170q-72 -72 -174 -70q-103 -2 -175 72q-72 71 -72 198v208q0 117 65 190q72 80 193 80q120 2 194 -85zM371 108q50 20 70 74
q17 51 -4 98q-22 50 -73 69q-50 19 -99 -3q-50 -21 -70 -74q-19 -48 4 -98q21 -46 70 -67q48 -21 102 1z" />
    <glyph glyph-name="seven" unicode="7" horiz-adv-x="523" 
d="M113 0l254 620h-327v100h433v-100l-253 -620h-107z" />
    <glyph glyph-name="eight" unicode="8" horiz-adv-x="602" 
d="M78 535q3 101 73 154q58 46 149 46q93 0 150 -46q73 -55 73 -154q0 -59 -32 -104q-12 -21 -38 -45q33 -24 56 -64q33 -49 33 -113q-3 -109 -75 -168q-64 -56 -167 -56q-101 0 -166 56q-74 62 -74 168q0 66 33 113q21 39 55 64q-28 28 -38 45q-34 47 -32 104zM189 535
q0 -49 30 -75t81 -26q52 0 82 26q28 24 30 75q0 49 -30 74q-32 28 -82 26q-51 0 -80 -26q-31 -24 -31 -74zM396 117q35 34 35 92q0 60 -35 92q-34 33 -96 33q-61 0 -95 -33q-34 -31 -34 -92q0 -59 34 -92q36 -33 95 -33q60 0 96 33z" />
    <glyph glyph-name="nine" unicode="9" horiz-adv-x="621" 
d="M99 70l77 72q44 -59 117 -59q39 0 73.5 20t51.5 52q26 38 26 100v67q-64 -66 -154 -66q-94 0 -162 62q-72 69 -72 175q2 101 74 170q72 72 174 70q103 2 175 -72q72 -71 72 -198v-208q0 -117 -65 -190q-72 -80 -193 -80q-120 -2 -194 85zM250 611q-50 -20 -70 -74
q-17 -51 4 -98q22 -50 73 -69q50 -19 99 3q50 21 70 74q19 48 -4 98q-21 46 -70 67q-48 21 -102 -1z" />
    <glyph glyph-name="colon" unicode=":" horiz-adv-x="321" 
d="M104 470h111v-111h-111v111zM103 181h111v-111h-111v111z" />
    <glyph glyph-name="semicolon" unicode=";" horiz-adv-x="277" 
d="M89 540h111v-111h-111v111zM200 -10q0 -60 -28.5 -89.5t-82.5 -20.5l7 47q60 -4 51 73h-58v121h111v-131z" />
    <glyph glyph-name="less" unicode="&#x3c;" horiz-adv-x="630" 
d="M378 32l-238 238l238 238l52 -51l-187 -187l187 -187z" />
    <glyph glyph-name="equal" unicode="=" horiz-adv-x="750" 
d="M120 407v-84h510v84h-510zM120 217v-84h510v84h-510z" />
    <glyph glyph-name="greater" unicode="&#x3e;" horiz-adv-x="630" 
d="M252 32l-52 51l187 187l-187 187l52 51l238 -238z" />
    <glyph glyph-name="question" unicode="?" horiz-adv-x="543" 
d="M493 537q0 -88 -72 -163q-11 -12 -44.5 -41t-43.5 -47q-13 -22 -15.5 -38t-2.5 -52h-111q0 78 27 127q16 31 60 67t58 51q33 38 33 93q0 42 -19 64q-29 37 -92 37q-54 0 -81 -26q-32 -27 -30 -74h-110q8 102 78 154q58 45 140 45q120 0 179 -70q46 -52 46 -127zM205 0
v121h110v-121h-110z" />
    <glyph glyph-name="at" unicode="@" horiz-adv-x="915" 
d="M835 270q-2 -116 -63 -172q-36 -34 -88 -34t-90 29q-22 17 -36 38q-44 -36 -108 -36q-70 0 -117 42q-53 48 -55 133q2 86 55 132q51 43 118 43q56 0 102 -33v19h67l-2 -201q0 -43 16 -61q15 -20 46 -20q25 0 41 19q24 30 24 102q0 109 -50 182q-38 53 -101 80.5
t-136 27.5q-116 0 -195 -62q-49 -37 -72 -100t-21 -136q2 -125 68 -196q79 -87 222 -87q72 0 135 29l31 -79q-74 -34 -169 -34q-184 0 -285 115q-89 93 -92 249q-4 91 29.5 173.5t100.5 134.5q98 78 241 78q212 0 315 -143q67 -95 69 -232zM539 270q-2 39 -14 58
q-20 32 -67 32q-42 2 -67 -22q-26 -26 -24 -68q-2 -42 24 -68q23 -22 64 -22q47 0 70 31q12 20 14 59z" />
    <glyph glyph-name="A" unicode="A" horiz-adv-x="658" 
d="M530 0l-42 128h-318l-42 -128h-108l234 720h150l234 -720h-108zM202 226h254l-128 388z" />
    <glyph glyph-name="B" unicode="B" horiz-adv-x="625" 
d="M547 339q43 -56 41 -129q-2 -71 -44 -127q-42 -52 -109 -73q-40 -10 -85 -10h-280v720h265q53 0 77 -9q63 -18 100 -67q40 -49 43 -117q3 -64 -41 -118q-5 -7 -17 -21q28 -19 50 -49zM352 622h-176v-196h176q19 0 41 11t34 29q21 26 21 61q-2 37 -26 63q-27 32 -70 32z
M482 210q2 44 -27 77q-34 41 -86 41h-193v-229h173q67 0 100 34q31 30 33 77z" />
    <glyph glyph-name="C" unicode="C" horiz-adv-x="758" 
d="M601 242l104 -30q-19 -62 -58 -111q-93 -116 -259 -116q-79 0 -146.5 30t-112.5 86q-84 103 -82 259q0 158 82 259q91 116 259 116q78 0 146 -29.5t113 -86.5q43 -54 64 -130l-108 -19q-13 51 -39 85q-30 39 -76.5 60t-99.5 21q-116 0 -176 -81q-52 -67 -54 -195
q2 -126 54 -195q60 -81 176 -81q52 -1 99 20t77 61q25 37 37 77z" />
    <glyph glyph-name="D" unicode="D" horiz-adv-x="691" 
d="M644 359q0 167 -92 265q-86 96 -235 96h-247v-720h246q150 0 237 96q44 48 67.5 118t23.5 145zM533 358q-2 -126 -59 -194q-58 -63 -158 -65l-139 1v520l140 1q101 -3 157 -66q61 -71 59 -197z" />
    <glyph glyph-name="E" unicode="E" horiz-adv-x="597" 
d="M527 621h-352v-211h292v-99h-292v-212h352v-99h-457v720h457v-99z" />
    <glyph glyph-name="F" unicode="F" horiz-adv-x="517" 
d="M497 615h-322v-203h262v-104h-262v-308h-105v720h427v-105z" />
    <glyph glyph-name="G" unicode="G" horiz-adv-x="774" 
d="M435 376h293v-24q-5 -156 -82 -250q-92 -117 -259 -117q-79 0 -147.5 29.5t-110.5 87.5q-80 98 -82 258q2 160 82 258q42 57 110.5 87t147.5 30q165 0 259 -117q19 -23 34 -52l-97 -44q-14 25 -20 33q-29 39 -76 60t-100 20q-52 1 -99.5 -20t-76.5 -60q-50 -65 -54 -195
q4 -130 54 -195q29 -39 76.5 -60t99.5 -20q53 -1 100 20t76 60q36 48 48 125h-176v86z" />
    <glyph glyph-name="H" unicode="H" horiz-adv-x="709" 
d="M535 720h104v-720h-104v258h-360v-258h-105v720h105v-363h360v363z" />
    <glyph glyph-name="I" unicode="I" horiz-adv-x="265" 
d="M80 720h105v-720h-105v720z" />
    <glyph glyph-name="J" unicode="J" horiz-adv-x="488" 
d="M408 720h-108v-489v-11q0 -61 -11 -83q-11 -25 -35.5 -39t-51.5 -14q-30 0 -57 19q-35 23 -41 62l-104 -25q23 -86 96 -127q45 -28 107 -28q119 0 178 99q19 34 23 61.5t4 85.5v489z" />
    <glyph glyph-name="K" unicode="K" horiz-adv-x="646" 
d="M646 0h-134l-261 315h-75v-315h-106v720h106v-305h74l232 305h131l-267 -354z" />
    <glyph glyph-name="L" unicode="L" horiz-adv-x="526" 
d="M185 720h-105v-720h431v99h-326v621z" />
    <glyph glyph-name="M" unicode="M" horiz-adv-x="865" 
d="M795 720v-720h-106v493l-233 -493h-47l-233 492v-492h-106v720h105l258 -542l256 542h106z" />
    <glyph glyph-name="N" unicode="N" horiz-adv-x="707" 
d="M176 720l355 -535v535h106v-720h-106l-355 535v-535h-106v720h106z" />
    <glyph glyph-name="O" unicode="O" horiz-adv-x="774" 
d="M387 -15q-79 0 -147 30t-112 87q-81 101 -81 258q-2 156 81 259q91 116 259 116q167 -2 259 -116q79 -99 81 -259q-2 -160 -81 -258q-92 -117 -259 -117zM387 84q53 0 100 21t75 60q54 70 54 195q2 123 -54 195q-29 40 -75.5 60.5t-99.5 19.5q-53 1 -100 -19.5t-76 -60.5
q-52 -67 -54 -195q0 -125 54 -195q29 -40 76 -61t100 -20z" />
    <glyph glyph-name="P" unicode="P" horiz-adv-x="644" 
d="M617 489q1 -76 -51 -142q-31 -40 -79.5 -64t-102.5 -24h-209v-259h-105v720h314q39 0 75 -12q64 -23 103 -73q53 -61 55 -146zM482 408q29 38 28 81q-2 54 -35 89q-40 43 -91 43h-209v-263h209q58 0 98 50z" />
    <glyph glyph-name="Q" unicode="Q" horiz-adv-x="774" 
d="M727 360q-2 -157 -79 -256l52 -52l-66 -67l-55 55q-82 -55 -192 -55q-79 0 -147 30t-112 87q-81 101 -81 258q-2 156 81 259q91 116 259 116q167 -2 259 -116q79 -99 81 -259zM387 84q65 0 118 30l-72 71l67 67l72 -72q44 68 44 180q2 123 -54 195q-29 40 -75.5 60.5
t-99.5 19.5q-53 1 -100 -19.5t-76 -60.5q-52 -67 -54 -195q0 -125 54 -195q29 -40 76 -61t100 -20z" />
    <glyph glyph-name="R" unicode="R" horiz-adv-x="687" 
d="M627 0h-119l-126 259h-207v-259h-105v720h314q39 0 75 -12q64 -23 103 -73q53 -61 55 -146q1 -76 -51 -142q-31 -40 -77 -63zM175 621v-263h209q58 0 98 50q29 38 28 81q-2 54 -35 89q-40 43 -91 43h-209z" />
    <glyph glyph-name="S" unicode="S" horiz-adv-x="632" 
d="M596 538l-106 -28q-29 68 -78 97q-46 29 -98 29q-60 0 -97 -22q-48 -27 -48 -78q0 -29 20 -51q22 -22 92 -44l127 -37q85 -25 131 -68q63 -60 63 -144q0 -46 -24 -89.5t-64 -70.5q-66 -47 -190 -47q-156 0 -233 99q-41 53 -61 135l106 29q12 -63 39 -97q47 -67 152 -67
q82 0 126 34q38 27 38 78q0 38 -28 64q-26 25 -79 41l-133 39q-91 27 -135 66q-57 50 -57 133q0 53 30.5 98.5t78.5 68.5q59 29 147 29q89 -2 150 -36q89 -51 131 -161z" />
    <glyph glyph-name="T" unicode="T" horiz-adv-x="603" 
d="M593 720v-99h-239v-621h-105v621h-239v99h583z" />
    <glyph glyph-name="U" unicode="U" horiz-adv-x="714" 
d="M644 720v-456q0 -98 -63 -177q-80 -102 -223 -102q-67 0 -126.5 26.5t-98.5 75.5q-63 78 -63 177v455l106 1v-437q0 -80 38 -131q55 -69 144 -69q41 0 79 18.5t63 51.5q38 47 38 130v437h106z" />
    <glyph glyph-name="V" unicode="V" horiz-adv-x="628" 
d="M239 0l-234 720h108l200 -614l202 614h108l-234 -720h-150z" />
    <glyph glyph-name="W" unicode="W" horiz-adv-x="962" 
d="M839 720h110l-209 -720h-104l-155 538l-154 -538h-104l-210 720h110l152 -545l150 544l110 1l152 -545z" />
    <glyph glyph-name="X" unicode="X" horiz-adv-x="642" 
d="M386 364l251 -364h-128l-187 272l-188 -272h-129l252 364l-245 356h128l182 -264l181 264h128z" />
    <glyph glyph-name="Y" unicode="Y" horiz-adv-x="593" 
d="M471 720h122l-243 -423v-297h-106v297l-244 423h122l175 -303z" />
    <glyph glyph-name="Z" unicode="Z" horiz-adv-x="640" 
d="M194 99h386v-99h-520v99l387 522h-387v99h520v-99z" />
    <glyph glyph-name="bracketleft" unicode="[" horiz-adv-x="398" 
d="M328 800h-114v-920h114v-94h-208v1108h208v-94z" />
    <glyph glyph-name="backslash" unicode="\" horiz-adv-x="418" 
d="M166 720l192 -720h-106l-192 720h106z" />
    <glyph glyph-name="bracketright" unicode="]" horiz-adv-x="398" 
d="M278 894v-1108h-208v94h114v920h-114v94h208z" />
    <glyph glyph-name="asciicircum" unicode="^" horiz-adv-x="677" 
d="M60 497l238 239l239 -239l-52 -51l-186 187l-187 -187z" />
    <glyph glyph-name="underscore" unicode="_" horiz-adv-x="660" 
d="M0 -65h660v-84h-660v84z" />
    <glyph glyph-name="a" unicode="a" 
d="M509 0h-92v77q-37 -50 -84.5 -71t-114.5 -21q-80 0 -129 45t-49 120q0 106 95 152q19 9 43 16.5t56 13.5t53 9.5t62 9.5t55 8q-4 47 -36 72t-85 25q-91 0 -147 -61l-63 69q84 91 219 91q86 0 150 -55q67 -56 67 -173v-327zM385 151q10 16 14.5 38.5t5 36.5t0.5 48
q-86 -13 -161 -29q-44 -10 -72 -32t-28 -55q0 -37 27 -60.5t69 -23.5q100 0 145 77z" />
    <glyph glyph-name="b" unicode="b" horiz-adv-x="622" 
d="M521 469q61 -78 61 -199q0 -122 -61 -198q-70 -87 -187 -87q-106 0 -171 66v-51h-93v720h105v-220q66 55 157 55q120 0 189 -86zM437 136q34 46 34 134q0 87 -35 135q-38 55 -120 55q-75 0 -112 -49q-41 -49 -41 -141t41 -141q42 -49 116 -49q78 0 117 56z" />
    <glyph glyph-name="c" unicode="c" 
d="M534 420l-98 -43q-7 16 -15 25q-40 56 -117 54q-77 2 -117 -54q-35 -47 -37 -132q2 -85 37 -132q39 -54 117 -54t117 54q8 11 14 24l99 -43q-18 -30 -29 -44q-77 -92 -201 -89q-126 -3 -201 89q-63 77 -63 195t63 196q73 89 201 89q127 0 201 -89q19 -26 29 -46z" />
    <glyph glyph-name="d" unicode="d" horiz-adv-x="622" 
d="M447 720h105v-720h-93v51q-65 -66 -171 -66q-117 0 -187 87q-61 76 -61 198q0 121 61 199q69 86 189 86q91 0 157 -55v220zM418 129q41 49 41 141t-41 141q-37 49 -112 49q-82 0 -120 -55q-35 -48 -35 -135q0 -88 34 -134q39 -56 117 -56q74 0 116 49z" />
    <glyph glyph-name="e" unicode="e" horiz-adv-x="609" 
d="M148 233q5 -62 35 -100q41 -56 121 -56q102 0 164 86l77 -52q-78 -126 -235 -126q-61 0 -116.5 23t-90.5 66q-63 79 -63 191q0 122 63 201q74 89 201 89q130 0 201 -89q73 -90 62 -233h-419zM304 463q-80 0 -121 -56q-25 -32 -33 -80h309q-10 49 -33 80q-41 56 -122 56z
" />
    <glyph glyph-name="f" unicode="f" horiz-adv-x="391" 
d="M300 641q-38 -6 -53 -26.5t-15 -56.5v-18h149v-84h-149v-456h-105v456h-117v84h117v10q0 88 50 138q64 58 204 45v-91q-44 6 -81 -1z" />
    <glyph glyph-name="g" unicode="g" horiz-adv-x="621" 
d="M459 540h92v-555q0 -73 -21 -119t-69 -77q-66 -43 -162 -43q-83 0 -139 45q-48 26 -75 72l97 47q8 -15 25 -29q35 -36 93 -36q66 0 106 33q24 19 32.5 43.5t7.5 65.5v52q-63 -54 -158 -54q-117 0 -187 87q-61 76 -61 198q0 121 61 199q69 86 189 86q101 0 169 -66v51z
M302 80q74 0 116 49q41 49 41 141t-41 141q-37 49 -112 49q-82 0 -120 -55q-35 -48 -35 -135q0 -88 34 -134q39 -56 117 -56z" />
    <glyph glyph-name="h" unicode="h" horiz-adv-x="615" 
d="M484 504q45 -39 58.5 -98.5t12.5 -143.5v-262h-106v258q0 125 -50 168q-35 32 -94 30q-47 -3 -79 -29q-34 -27 -44 -80q-7 -30 -7 -110v-237h-105v720h93v-246l17 20q49 55 137 60q102 7 167 -50z" />
    <glyph glyph-name="i" unicode="i" horiz-adv-x="265" 
d="M80 727h105v-102h-105v102zM80 540h105v-540h-105v540z" />
    <glyph glyph-name="j" unicode="j" horiz-adv-x="282" 
d="M98 717h104v-102h-104v102zM20 -148v-107q89 0 139 64q43 51 43 168v563h-104v-563q0 -78 -23 -104q-19 -21 -55 -21z" />
    <glyph glyph-name="k" unicode="k" horiz-adv-x="533" 
d="M177 238v-238h-107l1 720h106v-398h56l160 218h120l-189 -259l209 -281h-121l-178 238h-57z" />
    <glyph glyph-name="l" unicode="l" horiz-adv-x="245" 
d="M70 0h105v735h-105v-735z" />
    <glyph glyph-name="m" unicode="m" horiz-adv-x="884" 
d="M767 509q36 -34 46.5 -73.5t10.5 -104.5v-331h-106l1 324q0 40 -7 63.5t-28 43.5q-29 29 -74 29q-52 0 -84 -37q-26 -33 -26 -85v-7l-1 -331h-105v324q0 40 -7 63.5t-28 43.5q-29 29 -73 29q-53 0 -84 -37q-27 -33 -27 -85v-338h-105v540h93v-59q57 73 153 73
q81 0 127 -45q19 -17 34 -43v1q26 41 70 64t93 23q81 0 127 -45z" />
    <glyph glyph-name="n" unicode="n" horiz-adv-x="615" 
d="M484 504q45 -39 58.5 -98.5t12.5 -143.5v-262h-106v258q0 125 -50 168q-35 32 -94 30q-47 -3 -79 -29q-34 -27 -44 -80q-7 -30 -7 -110v-1v-236h-105v540h93v-66l17 20q49 55 137 60q102 7 167 -50z" />
    <glyph glyph-name="o" unicode="o" horiz-adv-x="609" 
d="M304 -15q-127 0 -201 89q-63 80 -63 196q0 117 63 196q74 89 201 89q130 0 201 -89q64 -78 64 -196q0 -117 -64 -196q-73 -89 -201 -89zM422 138q36 48 36 132q0 85 -36 133q-38 53 -118 53q-79 0 -117 -53q-36 -48 -36 -133q0 -84 36 -132q39 -54 117 -54q79 0 118 54z
" />
    <glyph glyph-name="p" unicode="p" horiz-adv-x="622" 
d="M521 469q61 -78 61 -199q0 -122 -61 -198q-70 -87 -187 -87q-97 0 -159 55v-280h-105v780h93v-51q68 66 169 66q120 0 189 -86zM437 136q34 46 34 134q0 87 -35 135q-38 55 -120 55q-75 0 -112 -49q-41 -49 -41 -141t41 -141q42 -49 116 -49q78 0 117 56z" />
    <glyph glyph-name="q" unicode="q" horiz-adv-x="622" 
d="M459 540h93v-780h-105v280q-62 -55 -159 -55q-117 0 -187 87q-61 76 -61 198q0 121 61 199q69 86 189 86q101 0 169 -66v51zM302 80q74 0 116 49q41 49 41 141t-41 141q-37 49 -112 49q-82 0 -120 -55q-35 -48 -35 -135q0 -88 34 -134q39 -56 117 -56z" />
    <glyph glyph-name="r" unicode="r" horiz-adv-x="431" 
d="M325 554q42 3 81 -12v-98q-41 15 -90 12q-63 -3 -97 -39q-26 -25 -35 -59.5t-9 -85.5v-272h-105v540h93v-78q18 32 51 56q47 34 111 36z" />
    <glyph glyph-name="s" unicode="s" horiz-adv-x="544" 
d="M501 398l-99 -24q-20 49 -58 70q-33 17 -77 19q-39 2 -70 -13q-37 -16 -37 -47q0 -25 22 -38q18 -11 51 -20q40 -12 106 -30q66 -17 104 -48q61 -47 61 -118q0 -38 -20 -73t-53 -55q-57 -36 -145 -36q-124 0 -189 72q-9 10 -16 19.5t-11 16t-9 19t-6.5 17.5t-7 22.5
t-7.5 24.5l99 24q4 -49 31 -78q38 -45 117 -45q61 0 92 22q28 20 28 50t-29 46q-20 11 -65 24q-103 29 -124 37q-65 24 -93 54q-33 36 -33 89q0 45 26 81.5t67 54.5q48 20 117 20q63 0 114 -27q39 -19 69.5 -54t44.5 -76z" />
    <glyph glyph-name="t" unicode="t" horiz-adv-x="422" 
d="M379 456h-161v-237q0 -73 13 -94q18 -34 59 -37q45 -3 89 3v-91q-71 -18 -137 -4q-78 20 -106 75q-22 42 -22 141v244h-104v84h104v150h104v-150h161v-84z" />
    <glyph glyph-name="u" unicode="u" horiz-adv-x="615" 
d="M440 540h105v-540h-93v66l-17 -20q-49 -55 -137 -60q-102 -7 -167 50q-45 39 -58.5 98.5t-12.5 143.5v262h106v-258q0 -125 50 -168q35 -32 94 -30q47 3 79 29q34 27 44 80q7 30 7 110v1v236z" />
    <glyph glyph-name="v" unicode="v" horiz-adv-x="539" 
d="M413 540h106l-197 -540h-105l-197 540h105l145 -409z" />
    <glyph glyph-name="w" unicode="w" horiz-adv-x="791" 
d="M668 540h103l-165 -540h-90l-121 391l-126 -391h-84l-165 541l104 -1l113 -371l114 371h90l113 -371z" />
    <glyph glyph-name="x" unicode="x" horiz-adv-x="558" 
d="M533 540l-194 -267l199 -273h-121l-137 188l-139 -188h-121l199 273l-195 267h121l135 -182l133 182h120z" />
    <glyph glyph-name="y" unicode="y" horiz-adv-x="561" 
d="M446 540h105l-239 -630q-34 -88 -79 -121q-38 -29 -112 -29h-11v101l16 -2q36 -4 54 9q25 16 61 116l-221 556h106l164 -422z" />
    <glyph glyph-name="z" unicode="z" horiz-adv-x="576" 
d="M506 93v-93h-436v91l299 356h-299v93h436v-94l-298 -353h298z" />
    <glyph glyph-name="braceleft" unicode="{" horiz-adv-x="468" 
d="M378 -208v99h-59q-17 0 -28.5 11.5t-11.5 28.5v228q0 43 -26 80l-23 32l23 32q26 37 26 80v228q0 17 11.5 28.5t28.5 11.5h59v99h-59q-58 0 -99 -41t-41 -98v-228q0 -12 -7 -22l-43 -62q-20 -28 0 -56l43 -62q7 -8 7 -22v-228q0 -57 41 -98t99 -41h59z" />
    <glyph glyph-name="bar" unicode="|" horiz-adv-x="285" 
d="M90 720h105v-720h-105v720z" />
    <glyph glyph-name="braceright" unicode="}" horiz-adv-x="468" 
d="M90 -208h59q58 0 99 41t41 98v228q0 14 7 22l43 62q20 28 0 56l-43 62q-7 10 -7 22v228q0 57 -41 98t-99 41h-59v-99h59q17 0 28.5 -11.5t11.5 -28.5v-228q0 -43 26 -80l23 -32l-23 -32q-26 -37 -26 -80v-228q0 -17 -11.5 -28.5t-28.5 -11.5h-59v-99z" />
    <glyph glyph-name="asciitilde" unicode="~" horiz-adv-x="698" 
d="M574 346q13 -61 -12 -103q-26 -45 -78 -55q-61 -13 -133 23q-10 4 -28.5 13t-28.5 13.5t-23.5 8t-25.5 2.5q-23 -1 -30.5 -18t0.5 -35h-91q-13 61 12 103q25 45 77 55q62 13 134 -23q10 -5 28.5 -13.5t28.5 -13t23.5 -8.5t25.5 -3q23 2 30.5 19.5t-0.5 34.5h91z" />
    <glyph glyph-name="exclamdown" unicode="&#xa1;" horiz-adv-x="345" 
d="M120 439v101h105v-101h-105zM120 -180v540h105v-540h-105z" />
    <glyph glyph-name="cent" unicode="&#xa2;" 
d="M421 213q8 11 14 24l99 -43q-18 -30 -29 -44q-61 -73 -157 -86v-93h-84v92q-100 13 -161 87q-63 77 -63 195t63 196q60 73 161 86v93h84v-93q97 -14 157 -86q19 -26 29 -46l-98 -43q-7 16 -15 25q-40 56 -117 54q-77 2 -117 -54q-35 -47 -37 -132q2 -85 37 -132
q39 -54 117 -54t117 54z" />
    <glyph glyph-name="sterling" unicode="&#xa3;" horiz-adv-x="618" 
d="M265 313v-214h252v-99h-457v99h26q30 0 51.5 22t21.5 51v141h-99v99h99v132q0 82 57.5 136.5t141.5 54.5q137 0 200 -181l-95 -31q-17 56 -42 84.5t-63 28.5q-42 0 -67 -27t-25 -70v-127h161v-99h-162z" />
    <glyph glyph-name="yen" unicode="&#xa5;" horiz-adv-x="593" 
d="M593 720l-195 -339h99v-84h-147v-106h147v-84h-147v-107h-106v107h-147v84h147v106h-147v84h99l-196 339h122l175 -303l174 303h122z" />
    <glyph glyph-name="copyright" unicode="&#xa9;" horiz-adv-x="892" 
d="M446 -130q166 0 282.5 117t116.5 283q0 165 -116.5 282t-282.5 117t-282.5 -117t-116.5 -282q0 -166 116.5 -283t282.5 -117zM446 -30q-124 0 -212 88t-88 212t88 212t212 88t212 -88t88 -212t-88 -212t-212 -88zM618 381l-76 -32q-5 10 -10 17q-28 39 -84 39
q-54 0 -84 -39q-26 -35 -26 -95q0 -59 26 -95q29 -38 84 -38t84 38q4 5 10 17l76 -33q-12 -21 -22 -32q-51 -65 -148 -67q-96 0 -148 67q-49 56 -47 143q0 88 47 144q54 66 148 66t148 -66q16 -20 22 -34z" />
    <glyph glyph-name="guillemotleft" unicode="&#xab;" 
d="M255 50l58 45l-140 175l140 175l-58 45l-175 -220zM448 50l58 45l-139 175l139 175l-58 45l-175 -220z" />
    <glyph glyph-name="registered" unicode="&#xae;" horiz-adv-x="645" 
d="M322 783q105 0 179 -74t74 -178q0 -105 -74 -179t-179 -74q-104 0 -178 74t-74 179q0 104 74 178t178 74zM323 711q-75 0 -127.5 -53t-52.5 -127q0 -75 52.5 -128t127.5 -53q74 0 127 53.5t53 127.5t-53 127t-127 53zM235 650h110q35 0 58 -22.5t23 -55.5q0 -49 -43 -71
l43 -87h-59l-38 78h-41v-78h-53v236zM288 602v-60h55q12 0 21 9.5t9 20.5q0 13 -10 21.5t-20 8.5h-55z" />
    <glyph glyph-name="degree" unicode="&#xb0;" horiz-adv-x="450" 
d="M210 375q-74 0 -127 52.5t-53 127.5q0 73 54 126.5t126 53.5q74 0 127 -52.5t53 -127.5t-53 -127.5t-127 -52.5zM210 456q40 0 69.5 29t29.5 70t-29.5 70t-69.5 29t-69.5 -29t-29.5 -70t29.5 -70t69.5 -29z" />
    <glyph glyph-name="plusminus" unicode="&#xb1;" horiz-adv-x="600" 
d="M342 422h198v-84h-198v-118h-84v118h-198v84h198v118h84v-118zM60 69v84h480v-84h-480z" />
    <glyph glyph-name="periodcentered" unicode="&#xb7;" horiz-adv-x="613" 
d="M308 203q-29 0 -48.5 19.5t-19.5 47.5t19.5 47.5t48.5 19.5q27 0 46 -19.5t19 -47.5t-19 -47.5t-46 -19.5z" />
    <glyph glyph-name="guillemotright" unicode="&#xbb;" horiz-adv-x="570" 
d="M121 50l175 220l-175 220l-58 -45l140 -175l-140 -175zM314 50l175 220l-175 220l-57 -45l139 -175l-139 -175z" />
    <glyph glyph-name="questiondown" unicode="&#xbf;" horiz-adv-x="543" 
d="M339 540v-121h-111v121h111zM50 3q0 86 72 163q11 12 44.5 41t44.5 47q12 22 14.5 38t2.5 52h111q0 -78 -27 -127q-12 -24 -30 -41.5t-44 -37.5t-44 -39q-33 -38 -33 -93q0 -41 19 -64q30 -37 92 -37q55 0 82 26q31 26 29 74h110q-8 -102 -78 -154q-57 -45 -140 -45
q-120 0 -179 70q-46 52 -46 127z" />
    <glyph glyph-name="Agrave" unicode="&#xc0;" horiz-adv-x="658" 
d="M503 862l-28 -77l-254 95l28 78zM530 0l-42 128h-318l-42 -128h-108l234 720h150l234 -720h-108zM202 226h254l-126 388z" />
    <glyph glyph-name="Aacute" unicode="&#xc1;" horiz-adv-x="658" 
d="M437 880l-254 -95l-28 77l254 96zM530 0l-42 128h-318l-42 -128h-108l234 720h150l234 -720h-108zM202 226h254l-128 388z" />
    <glyph glyph-name="Acircumflex" unicode="&#xc2;" horiz-adv-x="658" 
d="M315 856l-122 -70l-39 73l161 93l161 -93l-40 -73zM530 0l-42 128h-318l-42 -128h-108l234 720h150l234 -720h-108zM202 226h254l-128 388z" />
    <glyph glyph-name="Atilde" unicode="&#xc3;" horiz-adv-x="658" 
d="M220 845h-65q-9 42 8 74q19 30 55 39q43 9 95 -17q6 -3 20 -9.5t20.5 -9.5t17 -5.5t18.5 -1.5q32 3 20 38h65q9 -43 -8 -74q-20 -31 -55 -39q-43 -9 -95 17q-6 3 -20 9.5t-20.5 9.5t-16.5 5.5t-18 1.5q-33 -3 -21 -38zM530 0l-42 128h-318l-42 -128h-108l234 720h150
l234 -720h-108zM202 226h254l-128 388z" />
    <glyph glyph-name="Adieresis" unicode="&#xc4;" horiz-adv-x="658" 
d="M264 940v-100h-100v100h100zM465 940v-100h-100v100h100zM530 0l-42 128h-318l-42 -128h-108l234 720h150l234 -720h-108zM202 226h254l-128 388z" />
    <glyph glyph-name="Aring" unicode="&#xc5;" horiz-adv-x="658" 
d="M530 0l-42 128h-318l-42 -128h-108l217 668q-59 42 -59 112q0 56 40.5 96t96.5 40t96 -40t40 -96q0 -52 -36 -93l223 -687h-108zM315 840q-25 0 -42.5 -17.5t-17.5 -42.5t17.5 -42.5t42.5 -17.5t42.5 17.5t17.5 42.5t-17.5 42.5t-42.5 17.5zM202 226h254l-128 388z" />
    <glyph glyph-name="AE" unicode="&#xc6;" horiz-adv-x="938" 
d="M868 621h-352v-211h292v-99h-292v-212h352v-99h-456v127h-242l-42 -127h-108l234 720h614v-99zM202 226h210v389h-83z" />
    <glyph glyph-name="Ccedilla" unicode="&#xc7;" horiz-adv-x="758" 
d="M564 165q25 37 37 77l104 -30q-19 -62 -58 -111q-86 -107 -234 -115l-12 -34q32 -13 48 -43q14 -23 12.5 -53t-17.5 -53q-35 -51 -95 -43q-24 1 -56 16l24 65q18 -6 34 -8q21 0 29 14q10 13 4 27q-3 10 -13.5 17t-20 10.5t-30.5 9.5l27 76q-139 16 -218 114
q-84 103 -82 259q0 158 82 259q91 116 259 116q78 0 146 -29.5t113 -86.5q43 -54 64 -130l-108 -19q-13 51 -39 85q-30 39 -76.5 60t-99.5 21q-116 0 -176 -81q-52 -67 -54 -195q2 -126 54 -195q60 -81 176 -81q52 -1 99 20t77 61z" />
    <glyph glyph-name="Egrave" unicode="&#xc8;" horiz-adv-x="597" 
d="M440 862l-29 -77l-254 95l28 78zM527 621h-352v-211h292v-99h-292v-212h352v-99h-457v720h457v-99z" />
    <glyph glyph-name="Eacute" unicode="&#xc9;" horiz-adv-x="597" 
d="M434 880l-254 -95l-28 77l255 96zM527 621h-352v-211h292v-99h-292v-212h352v-99h-457v720h457v-99z" />
    <glyph glyph-name="Ecircumflex" unicode="&#xca;" horiz-adv-x="597" 
d="M288 856l-121 -70l-40 73l161 93l161 -93l-40 -73zM527 621h-352v-211h292v-99h-292v-212h352v-99h-457v720h457v-99z" />
    <glyph glyph-name="Edieresis" unicode="&#xcb;" horiz-adv-x="597" 
d="M244 940v-100h-100v100h100zM445 940v-100h-100v100h100zM527 621h-352v-211h292v-99h-292v-212h352v-99h-457v720h457v-99z" />
    <glyph glyph-name="Igrave" unicode="&#xcc;" horiz-adv-x="265" 
d="M249 785l28 77l-255 96l-27 -78zM80 720h105v-720h-105v720z" />
    <glyph glyph-name="Iacute" unicode="&#xcd;" horiz-adv-x="265" 
d="M15 785l254 95l-28 78l-254 -96zM80 720h105v-720h-105v720z" />
    <glyph glyph-name="Icircumflex" unicode="&#xce;" horiz-adv-x="265" 
d="M11 786l121 70l122 -70l39 73l-161 93l-161 -93zM80 720h105v-720h-105v720z" />
    <glyph glyph-name="Idieresis" unicode="&#xcf;" horiz-adv-x="265" 
d="M-18 940h100v-100h-100v100zM183 940h100v-100h-100v100zM80 720h105v-720h-105v720z" />
    <glyph glyph-name="Eth" unicode="&#xd0;" horiz-adv-x="690" 
d="M551 624q92 -98 92 -265q0 -75 -23.5 -145t-67.5 -118q-87 -96 -237 -96h-246v318h-59v84h59v318h247q150 0 235 -96zM532 358q2 126 -59 197q-56 63 -157 66l-140 -1v-218h164v-84h-164v-218l139 -1q100 2 158 65q57 68 59 194z" />
    <glyph glyph-name="Ntilde" unicode="&#xd1;" horiz-adv-x="707" 
d="M525 928q9 -44 -9 -74q-18 -31 -55 -39q-43 -9 -95 17q-5 2 -19 9t-20.5 10t-16.5 5.5t-18 1.5q-34 -3 -22 -38h-64q-10 42 8 74q17 30 55 39q43 9 95 -17q6 -3 20 -9.5t20.5 -9.5t16.5 -5.5t18 -1.5q16 1 21.5 13t-0.5 25h65zM176 720l355 -535v535h106v-720h-106
l-355 535v-535h-106v720h106z" />
    <glyph glyph-name="Ograve" unicode="&#xd2;" horiz-adv-x="774" 
d="M514 785l28 77l-255 96l-27 -78zM387 -15q-79 0 -147 30t-112 87q-81 101 -81 258q-2 156 81 259q91 116 259 116q167 -2 259 -116q79 -99 81 -259q-2 -160 -81 -258q-92 -117 -259 -117zM387 84q53 0 100 21t75 60q54 70 54 195q2 123 -54 195q-29 40 -75.5 60.5
t-99.5 19.5q-53 1 -100 -19.5t-76 -60.5q-52 -67 -54 -195q0 -125 54 -195q29 -40 76 -61t100 -20z" />
    <glyph glyph-name="Oacute" unicode="&#xd3;" horiz-adv-x="774" 
d="M278 785l254 95l-28 78l-254 -96zM387 -15q-79 0 -147 30t-112 87q-81 101 -81 258q-2 156 81 259q91 116 259 116q167 -2 259 -116q79 -99 81 -259q-2 -160 -81 -258q-92 -117 -259 -117zM387 84q53 0 100 21t75 60q54 70 54 195q2 123 -54 195q-29 40 -75.5 60.5
t-99.5 19.5q-53 1 -100 -19.5t-76 -60.5q-52 -67 -54 -195q0 -125 54 -195q29 -40 76 -61t100 -20z" />
    <glyph glyph-name="Ocircumflex" unicode="&#xd4;" horiz-adv-x="774" 
d="M259 786l121 70l122 -70l39 73l-161 93l-161 -93zM387 -15q-79 0 -147 30t-112 87q-81 101 -81 258q-2 156 81 259q91 116 259 116q167 -2 259 -116q79 -99 81 -259q-2 -160 -81 -258q-92 -117 -259 -117zM387 84q53 0 100 21t75 60q54 70 54 195q2 123 -54 195
q-29 40 -75.5 60.5t-99.5 19.5q-53 1 -100 -19.5t-76 -60.5q-52 -67 -54 -195q0 -125 54 -195q29 -40 76 -61t100 -20z" />
    <glyph glyph-name="Otilde" unicode="&#xd5;" horiz-adv-x="774" 
d="M540 953q9 -43 -8 -74q-20 -31 -55 -39q-43 -9 -95 17q-6 3 -20 9.5t-20.5 9.5t-16.5 5.5t-18 1.5q-33 -3 -21 -38h-65q-9 42 8 74q19 30 55 39q43 9 95 -17q6 -3 20 -9.5t20.5 -9.5t17 -5.5t18.5 -1.5q32 3 20 38h65zM387 -15q-79 0 -147 30t-112 87q-81 101 -81 258
q-2 156 81 259q91 116 259 116q167 -2 259 -116q79 -99 81 -259q-2 -160 -81 -258q-92 -117 -259 -117zM387 84q53 0 100 21t75 60q54 70 54 195q2 123 -54 195q-29 40 -75.5 60.5t-99.5 19.5q-53 1 -100 -19.5t-76 -60.5q-52 -67 -54 -195q0 -125 54 -195q29 -40 76 -61
t100 -20z" />
    <glyph glyph-name="Odieresis" unicode="&#xd6;" horiz-adv-x="774" 
d="M230 940h100v-100h-100v100zM431 940h100v-100h-100v100zM387 -15q-79 0 -147 30t-112 87q-81 101 -81 258q-2 156 81 259q91 116 259 116q167 -2 259 -116q79 -99 81 -259q-2 -160 -81 -258q-92 -117 -259 -117zM387 84q53 0 100 21t75 60q54 70 54 195q2 123 -54 195
q-29 40 -75.5 60.5t-99.5 19.5q-53 1 -100 -19.5t-76 -60.5q-52 -67 -54 -195q0 -125 54 -195q29 -40 76 -61t100 -20z" />
    <glyph glyph-name="multiply" unicode="&#xd7;" horiz-adv-x="520" 
d="M460 148l-60 -59l-140 140l-140 -140l-60 59l141 141l-140 139l59 60l140 -140l140 140l59 -60l-139 -139z" />
    <glyph glyph-name="Oslash" unicode="&#xd8;" horiz-adv-x="774" 
d="M731 639l-58 -58q52 -90 54 -221q-2 -160 -81 -258q-92 -117 -259 -117q-139 0 -228 83l-59 -58l-70 70l67 67q-50 91 -50 213q-2 156 81 259q91 116 259 116q133 -2 222 -77l52 52zM157 360q0 -77 20 -133l358 357q-59 53 -148 51q-53 1 -100 -19.5t-76 -60.5
q-52 -67 -54 -195zM616 360q2 79 -23 141l-361 -360q62 -59 155 -57q53 0 100 21t75 60q54 70 54 195z" />
    <glyph glyph-name="Ugrave" unicode="&#xd9;" horiz-adv-x="714" 
d="M487 785l29 77l-255 96l-28 -78zM644 720v-456q0 -98 -63 -177q-80 -102 -223 -102q-67 0 -126.5 26.5t-98.5 75.5q-63 78 -63 177v455l106 1v-437q0 -80 38 -131q55 -69 144 -69q41 0 79 18.5t63 51.5q38 47 38 130v437h106z" />
    <glyph glyph-name="Uacute" unicode="&#xda;" horiz-adv-x="714" 
d="M255 785l254 95l-28 78l-254 -96zM644 720v-456q0 -98 -63 -177q-80 -102 -223 -102q-67 0 -126.5 26.5t-98.5 75.5q-63 78 -63 177v455l106 1v-437q0 -80 38 -131q55 -69 144 -69q41 0 79 18.5t63 51.5q38 47 38 130v437h106z" />
    <glyph glyph-name="Ucircumflex" unicode="&#xdb;" horiz-adv-x="714" 
d="M244 786l121 70l121 -70l40 73l-161 93l-161 -93zM644 720v-456q0 -98 -63 -177q-80 -102 -223 -102q-67 0 -126.5 26.5t-98.5 75.5q-63 78 -63 177v455l106 1v-437q0 -80 38 -131q55 -69 144 -69q41 0 79 18.5t63 51.5q38 47 38 130v437h106z" />
    <glyph glyph-name="Udieresis" unicode="&#xdc;" horiz-adv-x="714" 
d="M207 940h100v-100h-100v100zM408 940h100v-100h-100v100zM644 720v-456q0 -98 -63 -177q-80 -102 -223 -102q-67 0 -126.5 26.5t-98.5 75.5q-63 78 -63 177v455l106 1v-437q0 -80 38 -131q55 -69 144 -69q41 0 79 18.5t63 51.5q38 47 38 130v437h106z" />
    <glyph glyph-name="Yacute" unicode="&#xdd;" horiz-adv-x="593" 
d="M194 785l254 95l-28 78l-254 -96zM471 720h122l-243 -423v-297h-106v297l-244 423h122l175 -303z" />
    <glyph glyph-name="Thorn" unicode="&#xde;" horiz-adv-x="615" 
d="M588 360q2 -78 -51 -142q-31 -41 -79 -64.5t-102 -23.5h-180v-130h-106v720h106v-129h180q35 0 74 -13q65 -20 104 -72q54 -64 54 -146zM453 279q29 38 28 81q-2 54 -35 89q-37 42 -91 42h-179v-262h179q59 0 98 50z" />
    <glyph glyph-name="germandbls" unicode="&#xdf;" horiz-adv-x="623" 
d="M70 0v540q0 45 21.5 86.5t59.5 68.5q55 40 135 40q79 0 136 -42q38 -27 59.5 -70t21.5 -87q0 -49 -25 -88q-17 -29 -45 -52q49 -22 81 -57q49 -53 49 -129q0 -104 -74 -159q-67 -51 -203 -51h-44v104h44q87 0 128 30q40 27 40 79q0 58 -49 90q-40 27 -118 33v93
q57 10 84 41q26 27 26 64q0 48 -41 80q-28 22 -70 22q-39 0 -70 -22q-39 -28 -39 -75v-539h-107z" />
    <glyph glyph-name="agrave" unicode="&#xe0;" 
d="M439 605l29 77l-255 96l-28 -78zM509 0h-92v77q-37 -50 -84.5 -71t-114.5 -21q-80 0 -129 45t-49 120q0 106 95 152q19 9 43 16.5t56 13.5t53 9.5t62 9.5t55 8q-4 47 -36 72t-85 25q-91 0 -147 -61l-63 69q84 91 219 91q86 0 150 -55q67 -56 67 -173v-327zM385 151
q10 16 14.5 38.5t5 36.5t0.5 48q-86 -13 -161 -29q-44 -10 -72 -32t-28 -55q0 -37 27 -60.5t69 -23.5q100 0 145 77z" />
    <glyph glyph-name="aacute" unicode="&#xe1;" 
d="M189 605l254 95l-28 78l-255 -96zM509 0h-92v77q-37 -50 -84.5 -71t-114.5 -21q-80 0 -129 45t-49 120q0 106 95 152q19 9 43 16.5t56 13.5t53 9.5t62 9.5t55 8q-4 47 -36 72t-85 25q-91 0 -147 -61l-63 69q84 91 219 91q86 0 150 -55q67 -56 67 -173v-327zM385 151
q10 16 14.5 38.5t5 36.5t0.5 48q-86 -13 -161 -29q-44 -10 -72 -32t-28 -55q0 -37 27 -60.5t69 -23.5q100 0 145 77z" />
    <glyph glyph-name="acircumflex" unicode="&#xe2;" 
d="M175 606l121 70l122 -70l39 73l-161 93l-161 -93zM509 0h-92v77q-37 -50 -84.5 -71t-114.5 -21q-80 0 -129 45t-49 120q0 106 95 152q19 9 43 16.5t56 13.5t53 9.5t62 9.5t55 8q-4 47 -36 72t-85 25q-91 0 -147 -61l-63 69q84 91 219 91q86 0 150 -55q67 -56 67 -173
v-327zM385 151q10 16 14.5 38.5t5 36.5t0.5 48q-86 -13 -161 -29q-44 -10 -72 -32t-28 -55q0 -37 27 -60.5t69 -23.5q100 0 145 77z" />
    <glyph glyph-name="atilde" unicode="&#xe3;" 
d="M457 748q11 -43 -8 -74q-18 -31 -55 -39q-43 -9 -95 17q-6 3 -20 9.5t-20.5 9.5t-16.5 5.5t-18 1.5q-33 -3 -21 -38h-65q-9 43 9 74q17 30 55 39q43 9 95 -17q5 -2 19.5 -9t20.5 -10t16.5 -5.5t18.5 -1.5q16 1 21.5 13t-0.5 25h64zM509 0h-92v77q-37 -50 -84.5 -71
t-114.5 -21q-80 0 -129 45t-49 120q0 106 95 152q19 9 43 16.5t56 13.5t53 9.5t62 9.5t55 8q-4 47 -36 72t-85 25q-91 0 -147 -61l-63 69q84 91 219 91q86 0 150 -55q67 -56 67 -173v-327zM385 151q10 16 14.5 38.5t5 36.5t0.5 48q-86 -13 -161 -29q-44 -10 -72 -32t-28 -55
q0 -37 27 -60.5t69 -23.5q100 0 145 77z" />
    <glyph glyph-name="adieresis" unicode="&#xe4;" 
d="M149 760h100v-100h-100v100zM351 760h100v-100h-100v100zM509 0h-92v77q-37 -50 -84.5 -71t-114.5 -21q-80 0 -129 45t-49 120q0 106 95 152q19 9 43 16.5t56 13.5t53 9.5t62 9.5t55 8q-4 47 -36 72t-85 25q-91 0 -147 -61l-63 69q84 91 219 91q86 0 150 -55
q67 -56 67 -173v-327zM385 151q10 16 14.5 38.5t5 36.5t0.5 48q-86 -13 -161 -29q-44 -10 -72 -32t-28 -55q0 -37 27 -60.5t69 -23.5q100 0 145 77z" />
    <glyph glyph-name="aring" unicode="&#xe5;" 
d="M442 500q67 -56 67 -173v-327h-92v77q-37 -50 -84.5 -71t-114.5 -21q-80 0 -129 45t-49 120q0 106 95 152q19 9 43 16.5t56 13.5t53 9.5t62 9.5t55 8q-4 47 -36 72t-85 25q-91 0 -147 -61l-63 69q45 50 105 72q-25 34 -25 79q0 56 40 96t96 40t96 -40t40 -96
q0 -47 -30 -85q24 -11 47 -30zM289 675q-25 0 -42.5 -17.5t-17.5 -42.5t17.5 -42.5t42.5 -17.5t42.5 17.5t17.5 42.5t-17.5 42.5t-42.5 17.5zM385 151q10 16 14.5 38.5t5 36.5t0.5 48q-86 -13 -161 -29q-44 -10 -72 -32t-28 -55q0 -37 27 -60.5t69 -23.5q100 0 145 77z" />
    <glyph glyph-name="ae" unicode="&#xe6;" horiz-adv-x="956" 
d="M518 233q5 -61 33 -100q38 -56 115 -56q95 0 154 86l73 -52q-73 -126 -222 -126q-58 0 -110.5 23t-84.5 66q-11 14 -21 32l-6 -9q-40 -59 -100 -88q-39 -18 -92 -21.5t-87 7.5q-69 19 -100 66q-24 34 -29 75t12 81q15 32 41 55t57 32q58 22 170 22h97q-1 73 -47 104
q-36 26 -98 26q-60 0 -95 -34q-14 -11 -24 -28l-96 46q11 16 14 20q66 94 203 94q85 0 149 -37q30 -19 54 -49q69 87 188 87q122 0 190 -89q69 -91 58 -233h-396zM666 463q-77 0 -115 -56q-21 -28 -29 -70v-10h289q-8 50 -31 80q-38 56 -114 56zM388 155q19 28 28 80h-72
q-86 0 -114 -3q-55 -5 -77 -41q-22 -38 5 -73q22 -32 66 -36q46 -5 95 16q44 21 69 57z" />
    <glyph glyph-name="ccedilla" unicode="&#xe7;" 
d="M421 138q8 11 14 24l99 -43q-18 -30 -29 -44q-61 -73 -159 -87l-12 -36q30 -13 48 -43q13 -24 11.5 -53.5t-16.5 -52.5q-36 -51 -95 -43q-27 1 -56 16l24 65q16 -6 33 -8q21 0 29 14q10 13 4 27q-3 10 -13 17t-20 10.5t-30 9.5l26 75q-110 8 -176 89q-63 77 -63 195
t63 196q73 89 201 89q127 0 201 -89q19 -26 29 -46l-98 -43q-7 16 -15 25q-40 56 -117 54q-77 2 -117 -54q-35 -47 -37 -132q2 -85 37 -132q39 -54 117 -54t117 54z" />
    <glyph glyph-name="egrave" unicode="&#xe8;" horiz-adv-x="609" 
d="M484 682l-29 -77l-254 95l28 78zM148 233q5 -62 35 -100q41 -56 121 -56q102 0 164 86l77 -52q-78 -126 -235 -126q-61 0 -116.5 23t-90.5 66q-63 79 -63 191q0 122 63 201q74 89 201 89q130 0 201 -89q73 -90 62 -233h-419zM304 463q-80 0 -121 -56q-25 -32 -33 -80h309
q-10 49 -33 80q-41 56 -122 56z" />
    <glyph glyph-name="eacute" unicode="&#xe9;" horiz-adv-x="609" 
d="M445 700l-254 -95l-28 77l254 96zM148 233q5 -62 35 -100q41 -56 121 -56q102 0 164 86l77 -52q-78 -126 -235 -126q-61 0 -116.5 23t-90.5 66q-63 79 -63 191q0 122 63 201q74 89 201 89q130 0 201 -89q73 -90 62 -233h-419zM304 463q-80 0 -121 -56q-25 -32 -33 -80
h309q-10 49 -33 80q-41 56 -122 56z" />
    <glyph glyph-name="ecircumflex" unicode="&#xea;" horiz-adv-x="609" 
d="M304 676l-121 -70l-40 73l161 93l161 -93l-39 -73zM148 233q5 -62 35 -100q41 -56 121 -56q102 0 164 86l77 -52q-78 -126 -235 -126q-61 0 -116.5 23t-90.5 66q-63 79 -63 191q0 122 63 201q74 89 201 89q130 0 201 -89q73 -90 62 -233h-419zM304 463q-80 0 -121 -56
q-25 -32 -33 -80h309q-10 49 -33 80q-41 56 -122 56z" />
    <glyph glyph-name="edieresis" unicode="&#xeb;" horiz-adv-x="609" 
d="M254 760v-100h-100v100h100zM455 760v-100h-100v100h100zM148 233q5 -62 35 -100q41 -56 121 -56q102 0 164 86l77 -52q-78 -126 -235 -126q-61 0 -116.5 23t-90.5 66q-63 79 -63 191q0 122 63 201q74 89 201 89q130 0 201 -89q73 -90 62 -233h-419zM304 463
q-80 0 -121 -56q-25 -32 -33 -80h309q-10 49 -33 80q-41 56 -122 56z" />
    <glyph glyph-name="igrave" unicode="&#xec;" horiz-adv-x="265" 
d="M246 605l28 77l-255 96l-27 -78zM80 540h105v-540h-105v540z" />
    <glyph glyph-name="iacute" unicode="&#xed;" horiz-adv-x="265" 
d="M19 605l254 95l-28 78l-254 -96zM80 540h105v-540h-105v540z" />
    <glyph glyph-name="icircumflex" unicode="&#xee;" horiz-adv-x="265" 
d="M18 606l121 70l121 -70l40 73l-161 93l-161 -93zM80 540h105v-540h-105v540z" />
    <glyph glyph-name="idieresis" unicode="&#xef;" horiz-adv-x="265" 
d="M-18 760h100v-100h-100v100zM183 760h100v-100h-100v100zM80 540h105v-540h-105v540z" />
    <glyph glyph-name="eth" unicode="&#xf0;" horiz-adv-x="592" 
d="M469 625q50 -67 66.5 -153t16.5 -218q0 -116 -65 -190q-57 -79 -191 -79q-121 0 -191 79q-65 74 -65 187q0 116 65 188q34 39 84.5 59.5t106.5 19.5q79 2 128 -37q20 -13 26 -17q-7 59 -44 102q-16 21 -41 43l-49 -62l-67 52l42 53q-38 14 -80 17l15 82q69 -3 122 -26
l58 74l67 -52l-53 -67q28 -23 49 -55zM425 182q25 57 5 124q-18 63 -72 92q-55 28 -113 5q-57 -22 -79 -80q-24 -58 -4 -125q19 -65 71 -92q54 -29 114 -6q56 21 78 82z" />
    <glyph glyph-name="ntilde" unicode="&#xf1;" horiz-adv-x="615" 
d="M231 640h-65q-9 42 8 74q19 30 55 39q43 9 95 -17q6 -3 20 -9.5t20.5 -9.5t17 -5.5t18.5 -1.5q32 3 20 38h65q9 -43 -8 -74q-20 -31 -55 -39q-43 -9 -95 17q-6 3 -20 9.5t-20.5 9.5t-16.5 5.5t-18 1.5q-33 -3 -21 -38zM484 504q45 -39 58.5 -98.5t12.5 -143.5v-262h-106
v258q0 125 -50 168q-35 32 -94 30q-47 -3 -79 -29q-34 -27 -44 -80q-7 -30 -7 -110v-1v-236h-105v540h93v-66l17 20q49 55 137 60q102 7 167 -50z" />
    <glyph glyph-name="ograve" unicode="&#xf2;" horiz-adv-x="609" 
d="M429 605l28 77l-255 96l-27 -78zM305 -15q-128 0 -201 89q-64 79 -64 196q0 118 64 196q71 89 201 89q127 0 201 -89q63 -79 63 -196q0 -116 -63 -196q-74 -89 -201 -89zM187 138q39 -54 118 -54q78 0 117 54q36 48 36 132q0 85 -36 133q-38 53 -117 53q-80 0 -118 -53
q-36 -48 -36 -133q0 -84 36 -132z" />
    <glyph glyph-name="oacute" unicode="&#xf3;" horiz-adv-x="609" 
d="M180 605l254 95l-27 78l-255 -96zM304 -15q-127 0 -201 89q-63 80 -63 196q0 117 63 196q74 89 201 89q130 0 201 -89q64 -78 64 -196q0 -117 -64 -196q-73 -89 -201 -89zM422 138q36 48 36 132q0 85 -36 133q-38 53 -118 53q-79 0 -117 -53q-36 -48 -36 -133
q0 -84 36 -132q39 -54 117 -54q79 0 118 54z" />
    <glyph glyph-name="ocircumflex" unicode="&#xf4;" horiz-adv-x="609" 
d="M184 606l121 70l121 -70l40 73l-161 93l-161 -93zM304 -15q-127 0 -201 89q-63 80 -63 196q0 117 63 196q74 89 201 89q130 0 201 -89q64 -78 64 -196q0 -117 -64 -196q-73 -89 -201 -89zM422 138q36 48 36 132q0 85 -36 133q-38 53 -118 53q-79 0 -117 -53
q-36 -48 -36 -133q0 -84 36 -132q39 -54 117 -54q79 0 118 54z" />
    <glyph glyph-name="otilde" unicode="&#xf5;" horiz-adv-x="609" 
d="M465 748q9 -44 -9 -74q-18 -31 -55 -39q-43 -9 -95 17q-5 2 -19 9t-20.5 10t-16.5 5.5t-18 1.5q-34 -3 -22 -38h-64q-10 42 8 74q17 30 55 39q43 9 95 -17q6 -3 20 -9.5t20.5 -9.5t16.5 -5.5t18 -1.5q16 1 21.5 13t-0.5 25h65zM304 -15q-127 0 -201 89q-63 80 -63 196
q0 117 63 196q74 89 201 89q130 0 201 -89q64 -78 64 -196q0 -117 -64 -196q-73 -89 -201 -89zM422 138q36 48 36 132q0 85 -36 133q-38 53 -118 53q-79 0 -117 -53q-36 -48 -36 -133q0 -84 36 -132q39 -54 117 -54q79 0 118 54z" />
    <glyph glyph-name="odieresis" unicode="&#xf6;" horiz-adv-x="609" 
d="M154 760h100v-100h-100v100zM356 760h100v-100h-100v100zM304 -15q-127 0 -201 89q-63 80 -63 196q0 117 63 196q74 89 201 89q130 0 201 -89q64 -78 64 -196q0 -117 -64 -196q-73 -89 -201 -89zM422 138q36 48 36 132q0 85 -36 133q-38 53 -118 53q-79 0 -117 -53
q-36 -48 -36 -133q0 -84 36 -132q39 -54 117 -54q79 0 118 54z" />
    <glyph glyph-name="oslash" unicode="&#xf8;" horiz-adv-x="609" 
d="M585 480l-53 -53q37 -66 37 -157q0 -117 -64 -196q-73 -89 -201 -89q-93 0 -163 52l-47 -47l-70 70l53 53q-37 68 -37 157q0 117 63 196q74 89 201 89q96 0 164 -52l47 47zM151 270q0 -40 9 -74l235 234q-38 26 -91 26q-79 0 -117 -53q-36 -48 -36 -133zM458 270
q0 44 -9 75l-234 -234q37 -27 89 -27q79 0 118 54q36 48 36 132z" />
    <glyph glyph-name="ugrave" unicode="&#xf9;" horiz-adv-x="615" 
d="M459 682l-28 -77l-254 95l27 78zM440 540h105v-540h-93v66l-17 -20q-49 -55 -137 -60q-102 -7 -167 50q-45 39 -58.5 98.5t-12.5 143.5v262h106v-258q0 -125 50 -168q35 -32 94 -30q47 3 79 29q34 27 44 80q7 30 7 110v1v236z" />
    <glyph glyph-name="uacute" unicode="&#xfa;" horiz-adv-x="615" 
d="M442 700l-254 -95l-28 77l255 96zM440 540h105v-540h-93v66l-17 -20q-49 -55 -137 -60q-102 -7 -167 50q-45 39 -58.5 98.5t-12.5 143.5v262h106v-258q0 -125 50 -168q35 -32 94 -30q47 3 79 29q34 27 44 80q7 30 7 110v1v236z" />
    <glyph glyph-name="ucircumflex" unicode="&#xfb;" horiz-adv-x="615" 
d="M293 676l-122 -70l-39 73l161 93l161 -93l-40 -73zM440 540h105v-540h-93v66l-17 -20q-49 -55 -137 -60q-102 -7 -167 50q-45 39 -58.5 98.5t-12.5 143.5v262h106v-258q0 -125 50 -168q35 -32 94 -30q47 3 79 29q34 27 44 80q7 30 7 110v1v236z" />
    <glyph glyph-name="udieresis" unicode="&#xfc;" horiz-adv-x="615" 
d="M242 760v-100h-100v100h100zM443 760v-100h-100v100h100zM440 540h105v-540h-93v66l-17 -20q-49 -55 -137 -60q-102 -7 -167 50q-45 39 -58.5 98.5t-12.5 143.5v262h106v-258q0 -125 50 -168q35 -32 94 -30q47 3 79 29q34 27 44 80q7 30 7 110v1v236z" />
    <glyph glyph-name="yacute" unicode="&#xfd;" horiz-adv-x="561" 
d="M184 605l254 95l-27 78l-255 -96zM446 540h105l-239 -630q-34 -88 -79 -121q-38 -29 -112 -29h-11v101l16 -2q36 -4 54 9q25 16 61 116l-221 556h106l164 -422z" />
    <glyph glyph-name="thorn" unicode="&#xfe;" horiz-adv-x="622" 
d="M521 469q61 -78 61 -199q0 -122 -61 -198q-70 -87 -187 -87q-97 0 -159 55v-280h-105v960h105v-220q66 55 157 55q120 0 189 -86zM437 136q34 46 34 134q0 87 -35 135q-38 55 -120 55q-75 0 -112 -49q-41 -49 -41 -141t41 -141q42 -49 116 -49q78 0 117 56z" />
    <glyph glyph-name="ydieresis" unicode="&#xff;" horiz-adv-x="561" 
d="M135 760h100v-100h-100v100zM337 760h100v-100h-100v100zM446 540h105l-239 -630q-34 -88 -79 -121q-38 -29 -112 -29h-11v101l16 -2q36 -4 54 9q25 16 61 116l-221 556h106l164 -422z" />
    <glyph glyph-name="Amacron" unicode="&#x100;" horiz-adv-x="658" 
d="M445 923v-83h-261v83h261zM530 0l-42 128h-318l-42 -128h-108l234 720h150l234 -720h-108zM202 226h254l-128 388z" />
    <glyph glyph-name="amacron" unicode="&#x101;" 
d="M175 743h261v-83h-261v83zM509 0h-92v77q-37 -50 -84.5 -71t-114.5 -21q-80 0 -129 45t-49 120q0 106 95 152q19 9 43 16.5t56 13.5t53 9.5t62 9.5t55 8q-4 47 -36 72t-85 25q-91 0 -147 -61l-63 69q84 91 219 91q86 0 150 -55q67 -56 67 -173v-327zM385 151
q10 16 14.5 38.5t5 36.5t0.5 48q-86 -13 -161 -29q-44 -10 -72 -32t-28 -55q0 -37 27 -60.5t69 -23.5q100 0 145 77z" />
    <glyph glyph-name="Abreve" unicode="&#x102;" horiz-adv-x="658" 
d="M320 780q-60 0 -102 42t-42 102h83q0 -26 17.5 -43.5t43.5 -17.5t43.5 17.5t17.5 43.5h83q0 -60 -42 -102t-102 -42zM530 0l-42 128h-318l-42 -128h-108l234 720h150l234 -720h-108zM202 226h254l-128 388z" />
    <glyph glyph-name="abreve" unicode="&#x103;" 
d="M362 744h83q0 -60 -42.5 -102t-101.5 -42q-60 0 -102 42t-42 102h83q0 -26 18 -43.5t43 -17.5t43 17.5t18 43.5zM509 0h-92v77q-37 -50 -84.5 -71t-114.5 -21q-80 0 -129 45t-49 120q0 106 95 152q19 9 43 16.5t56 13.5t53 9.5t62 9.5t55 8q-4 47 -36 72t-85 25
q-91 0 -147 -61l-63 69q84 91 219 91q86 0 150 -55q67 -56 67 -173v-327zM385 151q10 16 14.5 38.5t5 36.5t0.5 48q-86 -13 -161 -29q-44 -10 -72 -32t-28 -55q0 -37 27 -60.5t69 -23.5q100 0 145 77z" />
    <glyph glyph-name="Aogonek" unicode="&#x104;" horiz-adv-x="658" 
d="M534 -149q13 -13 31 -9.5t33 17.5l40 -51q-15 -24 -47 -39t-66.5 -6.5t-55.5 35.5q-43 48 -17 120q20 52 73 97l-37 113h-318l-42 -128h-108l234 720h150l234 -720h-16q-32 -23 -54 -50q-29 -32 -38 -60q-10 -25 4 -39zM202 226h254l-128 388z" />
    <glyph glyph-name="aogonek" unicode="&#x105;" 
d="M499 -141l40 -51q-17 -25 -47 -39q-33 -15 -67 -6.5t-56 35.5q-42 48 -16 120q18 47 64 89v70q-37 -50 -84.5 -71t-114.5 -21q-80 0 -129 45t-49 120q0 106 95 152q19 9 43 16.5t56 13.5t53 9.5t62 9.5t55 8q-4 47 -36 72t-85 25q-91 0 -147 -61l-63 69q84 91 219 91
q86 0 150 -55q67 -56 67 -173v-305l14 -22q-32 -23 -54 -50q-27 -29 -39 -60q-8 -27 4 -39q14 -13 31.5 -9.5t33.5 17.5zM385 151q10 16 14.5 38.5t5 36.5t0.5 48q-86 -13 -161 -29q-44 -10 -72 -32t-28 -55q0 -37 27 -60.5t69 -23.5q100 0 145 77z" />
    <glyph glyph-name="Cacute" unicode="&#x106;" horiz-adv-x="758" 
d="M273 785l254 95l-28 78l-255 -96zM601 242l104 -30q-19 -62 -58 -111q-93 -116 -259 -116q-79 0 -146.5 30t-112.5 86q-84 103 -82 259q0 158 82 259q91 116 259 116q78 0 146 -29.5t113 -86.5q43 -54 64 -130l-108 -19q-13 51 -39 85q-30 39 -76.5 60t-99.5 21
q-116 0 -176 -81q-52 -67 -54 -195q2 -126 54 -195q60 -81 176 -81q52 -1 99 20t77 61q25 37 37 77z" />
    <glyph glyph-name="cacute" unicode="&#x107;" 
d="M186 605l254 95l-28 78l-254 -96zM534 420l-98 -43q-7 16 -15 25q-40 56 -117 54q-77 2 -117 -54q-35 -47 -37 -132q2 -85 37 -132q39 -54 117 -54t117 54q8 11 14 24l99 -43q-18 -30 -29 -44q-77 -92 -201 -89q-126 -3 -201 89q-63 77 -63 195t63 196q73 89 201 89
q127 0 201 -89q19 -26 29 -46z" />
    <glyph glyph-name="Cdotaccent" unicode="&#x10a;" horiz-adv-x="758" 
d="M334 965h111v-111h-111v111zM601 242l104 -30q-19 -62 -58 -111q-93 -116 -259 -116q-79 0 -146.5 30t-112.5 86q-84 103 -82 259q0 158 82 259q91 116 259 116q78 0 146 -29.5t113 -86.5q43 -54 64 -130l-108 -19q-13 51 -39 85q-30 39 -76.5 60t-99.5 21
q-116 0 -176 -81q-52 -67 -54 -195q2 -126 54 -195q60 -81 176 -81q52 -1 99 20t77 61q25 37 37 77z" />
    <glyph glyph-name="cdotaccent" unicode="&#x10b;" 
d="M259 760h111v-111h-111v111zM534 420l-98 -43q-7 16 -15 25q-40 56 -117 54q-77 2 -117 -54q-35 -47 -37 -132q2 -85 37 -132q39 -54 117 -54t117 54q8 11 14 24l99 -43q-18 -30 -29 -44q-77 -92 -201 -89q-126 -3 -201 89q-63 77 -63 195t63 196q73 89 201 89
q127 0 201 -89q19 -26 29 -46z" />
    <glyph glyph-name="Ccaron" unicode="&#x10c;" horiz-adv-x="758" 
d="M265 952l-40 -73l161 -93l161 93l-40 73l-121 -70zM601 242l104 -30q-19 -62 -58 -111q-93 -116 -259 -116q-79 0 -146.5 30t-112.5 86q-84 103 -82 259q0 158 82 259q91 116 259 116q78 0 146 -29.5t113 -86.5q43 -54 64 -130l-108 -19q-13 51 -39 85q-30 39 -76.5 60
t-99.5 21q-116 0 -176 -81q-52 -67 -54 -195q2 -126 54 -195q60 -81 176 -81q52 -1 99 20t77 61q25 37 37 77z" />
    <glyph glyph-name="ccaron" unicode="&#x10d;" 
d="M188 772l-40 -73l161 -93l161 93l-39 73l-122 -70zM534 420l-98 -43q-7 16 -15 25q-40 56 -117 54q-77 2 -117 -54q-35 -47 -37 -132q2 -85 37 -132q39 -54 117 -54t117 54q8 11 14 24l99 -43q-18 -30 -29 -44q-77 -92 -201 -89q-126 -3 -201 89q-63 77 -63 195t63 196
q73 89 201 89q127 0 201 -89q19 -26 29 -46z" />
    <glyph glyph-name="Dcaron" unicode="&#x10e;" horiz-adv-x="691" 
d="M164 952l-39 -73l161 -93l161 93l-40 73l-121 -70zM644 359q0 167 -92 265q-86 96 -235 96h-247v-720h246q150 0 237 96q44 48 67.5 118t23.5 145zM533 358q-2 -126 -59 -194q-58 -63 -158 -65l-139 1v520l140 1q101 -3 157 -66q61 -71 59 -197z" />
    <glyph glyph-name="dcaron" unicode="&#x10f;" horiz-adv-x="763" 
d="M627 723h110v-130q0 -60 -28 -89.5t-82 -20.5l6 47q31 -3 43 17.5t8 55.5h-57v120zM447 500v220h105v-720h-93v51q-65 -66 -171 -66q-117 0 -187 87q-61 76 -61 198q0 121 61 199q69 86 189 86q91 0 157 -55zM418 129q41 49 41 141t-41 141q-37 49 -112 49
q-82 0 -120 -55q-35 -48 -35 -135q0 -88 34 -134q39 -56 117 -56q74 0 116 49z" />
    <glyph glyph-name="Dcroat" unicode="&#x110;" horiz-adv-x="690" 
d="M551 624q92 -98 92 -265q0 -75 -23.5 -145t-67.5 -118q-87 -96 -237 -96h-246v318h-59v84h59v318h247q150 0 235 -96zM532 358q2 126 -59 197q-56 63 -157 66l-140 -1v-218h164v-84h-164v-218l139 -1q100 2 158 65q57 68 59 194z" />
    <glyph glyph-name="dcroat" unicode="&#x111;" horiz-adv-x="622" 
d="M605 670v-83h-53v-587h-93v51q-65 -66 -171 -66q-117 0 -187 87q-61 76 -61 198q0 121 61 199q69 86 189 86q91 0 157 -55v87h-104v83h104v50h105v-50h53zM418 129q41 49 41 141t-41 141q-37 49 -112 49q-82 0 -120 -55q-35 -48 -35 -135q0 -88 34 -134q39 -56 117 -56
q74 0 116 49z" />
    <glyph glyph-name="Emacron" unicode="&#x112;" horiz-adv-x="597" 
d="M434 923v-83h-261v83h261zM527 621h-352v-211h292v-99h-292v-212h352v-99h-457v720h457v-99z" />
    <glyph glyph-name="emacron" unicode="&#x113;" horiz-adv-x="609" 
d="M445 743v-83h-261v83h261zM148 233q5 -62 35 -100q41 -56 121 -56q102 0 164 86l77 -52q-78 -126 -235 -126q-61 0 -116.5 23t-90.5 66q-63 79 -63 191q0 122 63 201q74 89 201 89q130 0 201 -89q73 -90 62 -233h-419zM304 463q-80 0 -121 -56q-25 -32 -33 -80h309
q-10 49 -33 80q-41 56 -122 56z" />
    <glyph glyph-name="Edotaccent" unicode="&#x116;" horiz-adv-x="597" 
d="M370 940v-111h-111v111h111zM527 621h-352v-211h292v-99h-292v-212h352v-99h-457v720h457v-99z" />
    <glyph glyph-name="edotaccent" unicode="&#x117;" horiz-adv-x="609" 
d="M368 760v-111h-111v111h111zM148 233q5 -62 35 -100q41 -56 121 -56q102 0 164 86l77 -52q-78 -126 -235 -126q-61 0 -116.5 23t-90.5 66q-63 79 -63 191q0 122 63 201q74 89 201 89q130 0 201 -89q73 -90 62 -233h-419zM304 463q-80 0 -121 -56q-25 -32 -33 -80h309
q-10 49 -33 80q-41 56 -122 56z" />
    <glyph glyph-name="Eogonek" unicode="&#x118;" horiz-adv-x="597" 
d="M527 621h-352v-211h292v-99h-292v-212h352v-99h-20q-35 -24 -55 -50q-26 -30 -38 -60q-8 -27 4 -39q14 -13 31.5 -9.5t33.5 17.5l40 -51q-16 -24 -47 -39q-33 -15 -67.5 -6.5t-55.5 35.5q-42 47 -16 120q18 44 57 82h-324v720h457v-99z" />
    <glyph glyph-name="eogonek" unicode="&#x119;" horiz-adv-x="609" 
d="M148 233q5 -62 35 -100q41 -56 121 -56q102 0 164 86l77 -52l-3 -5q-17 -29 -49.5 -77.5t-38.5 -59.5q-26 -42 -38 -78q-7 -27 6 -40q14 -12 31.5 -8.5t32.5 16.5l40 -51q-15 -24 -47 -39q-33 -14 -67 -5.5t-55 34.5q-20 23 -24.5 55.5t7.5 64.5q9 22 41 75
q-35 -8 -71 -8q-61 0 -116.5 23t-90.5 66q-63 79 -63 191q0 122 63 201q74 89 201 89q130 0 201 -89q73 -90 62 -233h-419zM304 463q-80 0 -121 -56q-25 -32 -33 -80h309q-10 49 -33 80q-41 56 -122 56z" />
    <glyph glyph-name="Ecaron" unicode="&#x11a;" horiz-adv-x="597" 
d="M464 879l-161 -93l-161 93l40 73l121 -70l122 70zM527 621h-352v-211h292v-99h-292v-212h352v-99h-457v720h457v-99z" />
    <glyph glyph-name="ecaron" unicode="&#x11b;" horiz-adv-x="609" 
d="M482 699l-161 -93l-161 93l39 73l122 -70l121 70zM148 233q5 -62 35 -100q41 -56 121 -56q102 0 164 86l77 -52q-78 -126 -235 -126q-61 0 -116.5 23t-90.5 66q-63 79 -63 191q0 122 63 201q74 89 201 89q130 0 201 -89q73 -90 62 -233h-419zM304 463q-80 0 -121 -56
q-25 -32 -33 -80h309q-10 49 -33 80q-41 56 -122 56z" />
    <glyph glyph-name="Gbreve" unicode="&#x11e;" horiz-adv-x="774" 
d="M393 780q-60 0 -102 42t-42 102h83q0 -26 18 -43.5t43 -17.5t43 17.5t18 43.5h83q0 -60 -42 -102t-102 -42zM435 376h293v-24q-5 -156 -82 -250q-92 -117 -259 -117q-79 0 -147.5 29.5t-110.5 87.5q-80 98 -82 258q2 160 82 258q42 57 110.5 87t147.5 30q165 0 259 -117
q19 -23 34 -52l-97 -44q-14 25 -20 33q-29 39 -76 60t-100 20q-52 1 -99.5 -20t-76.5 -60q-50 -65 -54 -195q4 -130 54 -195q29 -39 76.5 -60t99.5 -20q53 -1 100 20t76 60q36 48 48 125h-176v86z" />
    <glyph glyph-name="gbreve" unicode="&#x11f;" horiz-adv-x="621" 
d="M331 600q-60 0 -102 42t-42 102h83q0 -26 18 -43.5t43 -17.5t43 17.5t18 43.5h83q0 -60 -42.5 -102t-101.5 -42zM459 540h92v-555q0 -73 -21 -119t-69 -77q-66 -43 -162 -43q-83 0 -139 45q-48 26 -75 72l97 47q8 -15 25 -29q35 -36 93 -36q66 0 106 33q24 19 32.5 43.5
t7.5 65.5v52q-63 -54 -158 -54q-117 0 -187 87q-61 76 -61 198q0 121 61 199q69 86 189 86q101 0 169 -66v51zM302 80q74 0 116 49q41 49 41 141t-41 141q-37 49 -112 49q-82 0 -120 -55q-35 -48 -35 -135q0 -88 34 -134q39 -56 117 -56z" />
    <glyph glyph-name="Gdotaccent" unicode="&#x120;" horiz-adv-x="774" 
d="M436 940v-111h-110v111h110zM435 376h293v-24q-5 -156 -82 -250q-92 -117 -259 -117q-79 0 -147.5 29.5t-110.5 87.5q-80 98 -82 258q2 160 82 258q42 57 110.5 87t147.5 30q165 0 259 -117q19 -23 34 -52l-97 -44q-14 25 -20 33q-29 39 -76 60t-100 20q-52 1 -99.5 -20
t-76.5 -60q-50 -65 -54 -195q4 -130 54 -195q29 -39 76.5 -60t99.5 -20q53 -1 100 20t76 60q36 48 48 125h-176v86z" />
    <glyph glyph-name="gdotaccent" unicode="&#x121;" horiz-adv-x="621" 
d="M380 760v-111h-110v111h110zM459 540h92v-555q0 -73 -21 -119t-69 -77q-66 -43 -162 -43q-83 0 -139 45q-48 26 -75 72l97 47q8 -15 25 -29q35 -36 93 -36q66 0 106 33q24 19 32.5 43.5t7.5 65.5v52q-63 -54 -158 -54q-117 0 -187 87q-61 76 -61 198q0 121 61 199
q69 86 189 86q101 0 169 -66v51zM302 80q74 0 116 49q41 49 41 141t-41 141q-37 49 -112 49q-82 0 -120 -55q-35 -48 -35 -135q0 -88 34 -134q39 -56 117 -56z" />
    <glyph glyph-name="uni0122" unicode="&#x122;" horiz-adv-x="774" 
d="M435 376h293v-24q-5 -156 -82 -250q-92 -117 -259 -117q-79 0 -147.5 29.5t-110.5 87.5q-80 98 -82 258q2 160 82 258q42 57 110.5 87t147.5 30q165 0 259 -117q19 -23 34 -52l-97 -44q-14 25 -20 33q-29 39 -76 60t-100 20q-52 1 -99.5 -20t-76.5 -60q-50 -65 -54 -195
q4 -130 54 -195q29 -39 76.5 -60t99.5 -20q53 -1 100 20t76 60q36 48 48 125h-176v86zM325 -175v105h106v-105q0 -45 -30 -71.5t-76 -26.5v48q10 0 22 3t24 15t12 32h-58z" />
    <glyph glyph-name="uni0123" unicode="&#x123;" horiz-adv-x="621" 
d="M381 705v-105h-106v105q0 45 30 71.5t76 26.5v-48q-10 0 -22 -3t-24 -15t-12 -32h58zM459 540h92v-555q0 -73 -21 -119t-69 -77q-66 -43 -162 -43q-83 0 -139 45q-48 26 -75 72l97 47q8 -15 25 -29q35 -36 93 -36q66 0 106 33q24 19 32.5 43.5t7.5 65.5v52
q-63 -54 -158 -54q-117 0 -187 87q-61 76 -61 198q0 121 61 199q69 86 189 86q101 0 169 -66v51zM302 80q74 0 116 49q41 49 41 141t-41 141q-37 49 -112 49q-82 0 -120 -55q-35 -48 -35 -135q0 -88 34 -134q39 -56 117 -56z" />
    <glyph glyph-name="Hbar" unicode="&#x126;" horiz-adv-x="729" 
d="M719 591v-105h-80v-486h-104v258h-360v-258h-105v486h-60v105h60v129h105v-129h360v129h104v-129h80zM535 357v129h-360v-129h360z" />
    <glyph glyph-name="hbar" unicode="&#x127;" horiz-adv-x="615" 
d="M484 504q45 -39 58.5 -98.5t12.5 -143.5v-262h-106v258q0 125 -50 168q-35 32 -94 30q-47 -3 -79 -29q-34 -27 -44 -80q-7 -30 -7 -110v-237h-105v587h-58v83h58v50h93v-50h110v-83h-110v-113l17 20q49 55 137 60q102 7 167 -50z" />
    <glyph glyph-name="Imacron" unicode="&#x12a;" horiz-adv-x="265" 
d="M2 923h261v-83h-261v83zM80 720h105v-720h-105v720z" />
    <glyph glyph-name="imacron" unicode="&#x12b;" horiz-adv-x="265" 
d="M2 743h261v-83h-261v83zM80 540h105v-540h-105v540z" />
    <glyph glyph-name="Iogonek" unicode="&#x12e;" horiz-adv-x="265" 
d="M161 -141l40 -51q-16 -24 -47 -39q-33 -15 -67.5 -6.5t-55.5 35.5q-42 47 -16 120q18 47 65 90v712h105v-720q-35 -24 -55 -50q-26 -30 -38 -60q-8 -27 4 -39q14 -13 31.5 -9.5t33.5 17.5z" />
    <glyph glyph-name="iogonek" unicode="&#x12f;" horiz-adv-x="265" 
d="M185 727v-102h-105v102h105zM161 -141l40 -51q-16 -24 -47 -39q-33 -15 -67.5 -6.5t-55.5 35.5q-42 47 -16 120q18 47 65 90v532h105v-540q-35 -24 -55 -50q-26 -30 -38 -60q-8 -27 4 -39q14 -13 31.5 -9.5t33.5 17.5z" />
    <glyph glyph-name="Idotaccent" unicode="&#x130;" horiz-adv-x="265" 
d="M77 940h111v-111h-111v111zM80 720h105v-720h-105v720z" />
    <glyph glyph-name="dotlessi" unicode="&#x131;" horiz-adv-x="265" 
d="M80 540h105v-540h-105v540z" />
    <glyph glyph-name="uni0136" unicode="&#x136;" horiz-adv-x="646" 
d="M646 0h-134l-261 315h-75v-315h-106v720h106v-305h74l232 305h131l-267 -354zM398 -175q0 -45 -30 -71.5t-75 -26.5v48q10 0 21.5 3t23.5 15t12 32h-57v105h105v-105z" />
    <glyph glyph-name="uni0137" unicode="&#x137;" horiz-adv-x="533" 
d="M177 238v-238h-107l1 720h106v-398h56l160 218h120l-189 -259l209 -281h-121l-178 238h-57zM343 -175q0 -45 -30 -71.5t-76 -26.5v48q10 0 22 3t24 15t12 32h-58v105h106v-105z" />
    <glyph glyph-name="Lacute" unicode="&#x139;" horiz-adv-x="526" 
d="M108 785l254 95l-27 78l-255 -96zM185 720h-105v-720h431v99h-326v621z" />
    <glyph glyph-name="lacute" unicode="&#x13a;" horiz-adv-x="245" 
d="M9 785l254 95l-28 78l-254 -96zM70 0h105v735h-105v-735z" />
    <glyph glyph-name="uni013B" unicode="&#x13b;" horiz-adv-x="526" 
d="M185 720h-105v-720h431v99h-326v621zM348 -175q0 -45 -30 -71.5t-75 -26.5v48q10 0 21.5 3t23.5 15t12 32h-57v105h105v-105z" />
    <glyph glyph-name="uni013C" unicode="&#x13c;" horiz-adv-x="245" 
d="M70 0h105v735h-105v-735zM178 -175q0 -45 -30 -71.5t-76 -26.5v48q10 0 22 3t24 15t12 32h-58v105h106v-105z" />
    <glyph glyph-name="Lcaron" unicode="&#x13d;" horiz-adv-x="526" 
d="M435 593q0 -60 -28.5 -89.5t-82.5 -20.5l7 47q31 -3 43 17.5t8 55.5h-58v120h111v-130zM185 720h-105v-720h431v99h-326v621z" />
    <glyph glyph-name="lcaron" unicode="&#x13e;" horiz-adv-x="403" 
d="M70 0h105v735h-105v-735zM377 593q0 -60 -28.5 -89.5t-82.5 -20.5l7 47q31 -3 43 17.5t8 55.5h-58v120h111v-130z" />
    <glyph glyph-name="Lslash" unicode="&#x141;" horiz-adv-x="539" 
d="M198 99h326v-99h-431v215l-58 -33v115l58 33v390h105v-330l165 95v-115l-165 -95v-176z" />
    <glyph glyph-name="lslash" unicode="&#x142;" horiz-adv-x="391" 
d="M359 519v-115l-111 -64v-340h-105v280l-111 -64v115l111 64v340h105v-280z" />
    <glyph glyph-name="Nacute" unicode="&#x143;" horiz-adv-x="707" 
d="M264 785l254 95l-28 78l-254 -96zM176 720l355 -535v535h106v-720h-106l-355 535v-535h-106v720h106z" />
    <glyph glyph-name="nacute" unicode="&#x144;" horiz-adv-x="615" 
d="M467 700l-254 -95l-28 77l255 96zM484 504q45 -39 58.5 -98.5t12.5 -143.5v-262h-106v258q0 125 -50 168q-35 32 -94 30q-47 -3 -79 -29q-34 -27 -44 -80q-7 -30 -7 -110v-1v-236h-105v540h93v-66l17 20q49 55 137 60q102 7 167 -50z" />
    <glyph glyph-name="uni0145" unicode="&#x145;" horiz-adv-x="707" 
d="M176 720l355 -535v535h106v-720h-106l-355 535v-535h-106v720h106zM416 -175q0 -45 -30 -71.5t-75 -26.5v48q10 0 22 3t24 15t12 32h-58v105h105v-105z" />
    <glyph glyph-name="uni0146" unicode="&#x146;" horiz-adv-x="615" 
d="M484 504q45 -39 58.5 -98.5t12.5 -143.5v-262h-106v258q0 125 -50 168q-35 32 -94 30q-47 -3 -79 -29q-34 -27 -44 -80q-7 -30 -7 -110v-1v-236h-105v540h93v-66l17 20q49 55 137 60q102 7 167 -50zM262 -175v105h105v-105q0 -45 -30 -71.5t-75 -26.5v48q10 0 22 3t24 15
t12 32h-58z" />
    <glyph glyph-name="Ncaron" unicode="&#x147;" horiz-adv-x="707" 
d="M244 952l-40 -73l161 -93l161 93l-40 73l-121 -70zM176 720l355 -535v535h106v-720h-106l-355 535v-535h-106v720h106z" />
    <glyph glyph-name="ncaron" unicode="&#x148;" horiz-adv-x="615" 
d="M485 699l-161 -93l-161 93l40 73l121 -70l122 70zM484 504q45 -39 58.5 -98.5t12.5 -143.5v-262h-106v258q0 125 -50 168q-35 32 -94 30q-47 -3 -79 -29q-34 -27 -44 -80q-7 -30 -7 -110v-1v-236h-105v540h93v-66l17 20q49 55 137 60q102 7 167 -50z" />
    <glyph glyph-name="Eng" unicode="&#x14a;" horiz-adv-x="707" 
d="M531 720h106v-810q0 -109 -82 -125q-51 -10 -111 4v81q23 -2 46 -3t40.5 16t17.5 53q0 28 -15 64h-2l-355 535v-535h-106v720h106l355 -535v535z" />
    <glyph glyph-name="eng" unicode="&#x14b;" horiz-adv-x="615" 
d="M484 504q45 -39 58.5 -98.5t12.5 -143.5v-352q0 -53 -23 -85t-64 -40q-48 -9 -105 4v77q22 -1 41 -0.5t32 18.5t13 54v320q0 125 -50 168q-35 32 -94 30q-47 -3 -79 -29q-34 -27 -44 -80q-7 -30 -7 -110v-1v-236h-105v540h93v-66l17 20q49 55 137 60q102 7 167 -50z" />
    <glyph glyph-name="Omacron" unicode="&#x14c;" horiz-adv-x="774" 
d="M243 923h261v-83h-261v83zM387 -15q-79 0 -147 30t-112 87q-81 101 -81 258q-2 156 81 259q91 116 259 116q167 -2 259 -116q79 -99 81 -259q-2 -160 -81 -258q-92 -117 -259 -117zM387 84q53 0 100 21t75 60q54 70 54 195q2 123 -54 195q-29 40 -75.5 60.5t-99.5 19.5
q-53 1 -100 -19.5t-76 -60.5q-52 -67 -54 -195q0 -125 54 -195q29 -40 76 -61t100 -20z" />
    <glyph glyph-name="omacron" unicode="&#x14d;" horiz-adv-x="609" 
d="M174 743h262v-83h-262v83zM304 -15q-127 0 -201 89q-63 80 -63 196q0 117 63 196q74 89 201 89q130 0 201 -89q64 -78 64 -196q0 -117 -64 -196q-73 -89 -201 -89zM422 138q36 48 36 132q0 85 -36 133q-38 53 -118 53q-79 0 -117 -53q-36 -48 -36 -133q0 -84 36 -132
q39 -54 117 -54q79 0 118 54z" />
    <glyph glyph-name="Ohungarumlaut" unicode="&#x150;" horiz-adv-x="774" 
d="M321 792l116 114l-51 52l-116 -114zM478 792l116 114l-51 52l-116 -114zM387 -15q-79 0 -147 30t-112 87q-81 101 -81 258q-2 156 81 259q91 116 259 116q167 -2 259 -116q79 -99 81 -259q-2 -160 -81 -258q-92 -117 -259 -117zM387 84q53 0 100 21t75 60q54 70 54 195
q2 123 -54 195q-29 40 -75.5 60.5t-99.5 19.5q-53 1 -100 -19.5t-76 -60.5q-52 -67 -54 -195q0 -125 54 -195q29 -40 76 -61t100 -20z" />
    <glyph glyph-name="ohungarumlaut" unicode="&#x151;" horiz-adv-x="609" 
d="M226 612l116 114l-51 52l-116 -114zM383 612l116 114l-51 52l-116 -114zM304 -15q-127 0 -201 89q-63 80 -63 196q0 117 63 196q74 89 201 89q130 0 201 -89q64 -78 64 -196q0 -117 -64 -196q-73 -89 -201 -89zM422 138q36 48 36 132q0 85 -36 133q-38 53 -118 53
q-79 0 -117 -53q-36 -48 -36 -133q0 -84 36 -132q39 -54 117 -54q79 0 118 54z" />
    <glyph glyph-name="OE" unicode="&#x152;" horiz-adv-x="1161" 
d="M1091 621h-352v-211h292v-99h-292v-212h352v-99h-456v89q-92 -104 -248 -104q-79 0 -147 30t-112 87q-81 101 -81 258q-2 156 81 259q91 116 259 116q156 -2 248 -103v88h456v-99zM616 360q2 123 -54 195q-29 40 -75.5 60.5t-99.5 19.5q-53 1 -100 -19.5t-76 -60.5
q-52 -67 -54 -195q0 -125 54 -195q29 -40 76 -61t100 -20q53 0 100 21t75 60q54 70 54 195z" />
    <glyph glyph-name="oe" unicode="&#x153;" horiz-adv-x="1028" 
d="M567 233v-7q7 -57 34 -93q41 -56 122 -56q101 0 163 86l77 -52q-77 -126 -235 -126q-61 0 -116.5 23t-89.5 66q-8 10 -8 11l-9 -11q-73 -89 -201 -89q-127 0 -201 89q-63 80 -63 196q0 117 63 196q74 89 201 89q130 0 201 -89l9 -11q0 1 8 11q74 89 201 89q128 0 201 -89
q73 -90 62 -233h-419zM723 463q-81 0 -122 -56q-24 -33 -32 -80h308q-8 49 -33 80q-41 56 -121 56zM422 138q36 48 36 132q0 85 -36 133q-38 53 -118 53q-79 0 -117 -53q-36 -48 -36 -133q0 -84 36 -132q39 -54 117 -54q79 0 118 54z" />
    <glyph glyph-name="Racute" unicode="&#x154;" horiz-adv-x="687" 
d="M457 880l-254 -95l-28 77l255 96zM627 0h-119l-126 259h-207v-259h-105v720h314q39 0 75 -12q64 -23 103 -73q53 -61 55 -146q1 -76 -51 -142q-31 -40 -77 -63zM175 621v-263h209q58 0 98 50q29 38 28 81q-2 54 -35 89q-40 43 -91 43h-209z" />
    <glyph glyph-name="racute" unicode="&#x155;" horiz-adv-x="431" 
d="M352 700l-254 -95l-28 77l255 96zM325 554q42 3 81 -12v-98q-41 15 -90 12q-63 -3 -97 -39q-26 -25 -35 -59.5t-9 -85.5v-272h-105v540h93v-78q18 32 51 56q47 34 111 36z" />
    <glyph glyph-name="uni0156" unicode="&#x156;" horiz-adv-x="687" 
d="M627 0h-119l-126 259h-207v-259h-105v720h314q39 0 75 -12q64 -23 103 -73q53 -61 55 -146q1 -76 -51 -142q-31 -40 -77 -63zM175 621v-263h209q58 0 98 50q29 38 28 81q-2 54 -35 89q-40 43 -91 43h-209zM269 -175v105h105v-105q0 -45 -30 -71.5t-75 -26.5v48q10 0 22 3
t24 15t12 32h-58z" />
    <glyph glyph-name="uni0157" unicode="&#x157;" horiz-adv-x="431" 
d="M325 554q42 3 81 -12v-98q-41 15 -90 12q-63 -3 -97 -39q-26 -25 -35 -59.5t-9 -85.5v-272h-105v540h93v-78q18 32 51 56q47 34 111 36zM70 -175v105h106v-105q0 -45 -30 -71.5t-76 -26.5v48q10 0 22 3t24 15t12 32h-58z" />
    <glyph glyph-name="Rcaron" unicode="&#x158;" horiz-adv-x="687" 
d="M472 879l-161 -93l-161 93l39 73l122 -70l121 70zM627 0h-119l-126 259h-207v-259h-105v720h314q39 0 75 -12q64 -23 103 -73q53 -61 55 -146q1 -76 -51 -142q-31 -40 -77 -63zM175 621v-263h209q58 0 98 50q29 38 28 81q-2 54 -35 89q-40 43 -91 43h-209z" />
    <glyph glyph-name="rcaron" unicode="&#x159;" horiz-adv-x="431" 
d="M392 699l-161 -93l-161 93l40 73l121 -70l121 70zM325 554q42 3 81 -12v-98q-41 15 -90 12q-63 -3 -97 -39q-26 -25 -35 -59.5t-9 -85.5v-272h-105v540h93v-78q18 32 51 56q47 34 111 36z" />
    <glyph glyph-name="Sacute" unicode="&#x15a;" horiz-adv-x="632" 
d="M202 785l254 95l-28 78l-255 -96zM596 538l-106 -28q-29 68 -78 97q-46 29 -98 29q-60 0 -97 -22q-48 -27 -48 -78q0 -29 20 -51q22 -22 92 -44l127 -37q85 -25 131 -68q63 -60 63 -144q0 -46 -24 -89.5t-64 -70.5q-66 -47 -190 -47q-156 0 -233 99q-41 53 -61 135
l106 29q12 -63 39 -97q47 -67 152 -67q82 0 126 34q38 27 38 78q0 38 -28 64q-26 25 -79 41l-133 39q-91 27 -135 66q-57 50 -57 133q0 53 30.5 98.5t78.5 68.5q59 29 147 29q89 -2 150 -36q89 -51 131 -161z" />
    <glyph glyph-name="sacute" unicode="&#x15b;" horiz-adv-x="544" 
d="M164 605l254 95l-27 78l-255 -96zM501 398l-99 -24q-20 49 -58 70q-33 17 -77 19q-39 2 -70 -13q-37 -16 -37 -47q0 -25 22 -38q18 -11 51 -20q40 -12 106 -30q66 -17 104 -48q61 -47 61 -118q0 -38 -20 -73t-53 -55q-57 -36 -145 -36q-124 0 -189 72q-9 10 -16 19.5
t-11 16t-9 19t-6.5 17.5t-7 22.5t-7.5 24.5l99 24q4 -49 31 -78q38 -45 117 -45q61 0 92 22q28 20 28 50t-29 46q-20 11 -65 24q-103 29 -124 37q-65 24 -93 54q-33 36 -33 89q0 45 26 81.5t67 54.5q48 20 117 20q63 0 114 -27q39 -19 69.5 -54t44.5 -76z" />
    <glyph glyph-name="Scedilla" unicode="&#x15e;" horiz-adv-x="632" 
d="M539 336q63 -60 63 -144q0 -46 -24 -89.5t-64 -70.5q-58 -42 -166 -47l-12 -33q32 -13 48 -43q14 -23 12.5 -53t-17.5 -53q-35 -51 -95 -43q-24 1 -56 16l24 65q18 -6 34 -8q21 0 29 14q10 13 4 27q-3 10 -13.5 17t-20 10.5t-30.5 9.5l27 76q-125 11 -191 97
q-41 53 -61 135l106 29q12 -63 39 -97q47 -67 152 -67q82 0 126 34q38 27 38 78q0 38 -28 64q-26 25 -79 41l-133 39q-91 27 -135 66q-57 50 -57 133q0 53 30.5 98.5t78.5 68.5q59 29 147 29q89 -2 150 -36q89 -51 131 -161l-106 -28q-29 68 -78 97q-46 29 -98 29
q-60 0 -97 -22q-48 -27 -48 -78q0 -29 20 -51q22 -22 92 -44l127 -37q85 -25 131 -68z" />
    <glyph glyph-name="scedilla" unicode="&#x15f;" horiz-adv-x="544" 
d="M443 267q61 -47 61 -118q0 -38 -20 -73t-53 -55q-50 -32 -118 -35l-11 -34q30 -13 48 -43q13 -24 11.5 -53.5t-16.5 -52.5q-36 -51 -95 -43q-27 1 -56 16l24 65q16 -6 33 -8q21 0 29 14q10 13 4 27q-3 10 -13 17t-20 10.5t-30 9.5l26 76q-95 8 -150 70q-9 10 -16 19.5
t-11 16t-9 19t-6.5 17.5t-7 22.5t-7.5 24.5l99 24q4 -49 31 -78q38 -45 117 -45q61 0 92 22q28 20 28 50t-29 46q-20 11 -65 24q-103 29 -124 37q-65 24 -93 54q-33 36 -33 89q0 45 26 81.5t67 54.5q48 20 117 20q63 0 114 -27q39 -19 69.5 -54t44.5 -76l-99 -24
q-20 49 -58 70q-33 17 -77 19q-39 2 -70 -13q-37 -16 -37 -47q0 -25 22 -38q18 -11 51 -20q40 -12 106 -30q66 -17 104 -48z" />
    <glyph glyph-name="Scaron" unicode="&#x160;" horiz-adv-x="632" 
d="M196 952l-40 -73l161 -93l161 93l-39 73l-122 -70zM596 538l-106 -28q-29 68 -78 97q-46 29 -98 29q-60 0 -97 -22q-48 -27 -48 -78q0 -29 20 -51q22 -22 92 -44l127 -37q85 -25 131 -68q63 -60 63 -144q0 -46 -24 -89.5t-64 -70.5q-66 -47 -190 -47q-156 0 -233 99
q-41 53 -61 135l106 29q12 -63 39 -97q47 -67 152 -67q82 0 126 34q38 27 38 78q0 38 -28 64q-26 25 -79 41l-133 39q-91 27 -135 66q-57 50 -57 133q0 53 30.5 98.5t78.5 68.5q59 29 147 29q89 -2 150 -36q89 -51 131 -161z" />
    <glyph glyph-name="scaron" unicode="&#x161;" horiz-adv-x="544" 
d="M156 772l-40 -73l161 -93l161 93l-39 73l-122 -70zM501 398l-99 -24q-20 49 -58 70q-33 17 -77 19q-39 2 -70 -13q-37 -16 -37 -47q0 -25 22 -38q18 -11 51 -20q40 -12 106 -30q66 -17 104 -48q61 -47 61 -118q0 -38 -20 -73t-53 -55q-57 -36 -145 -36q-124 0 -189 72
q-9 10 -16 19.5t-11 16t-9 19t-6.5 17.5t-7 22.5t-7.5 24.5l99 24q4 -49 31 -78q38 -45 117 -45q61 0 92 22q28 20 28 50t-29 46q-20 11 -65 24q-103 29 -124 37q-65 24 -93 54q-33 36 -33 89q0 45 26 81.5t67 54.5q48 20 117 20q63 0 114 -27q39 -19 69.5 -54t44.5 -76z
" />
    <glyph glyph-name="uni0162" unicode="&#x162;" horiz-adv-x="603" 
d="M354 0h-18l-17 -48q30 -13 48 -43q13 -24 11.5 -53.5t-16.5 -52.5q-36 -51 -95 -43q-27 1 -56 16l24 65q16 -6 33 -8q21 0 29 14q10 13 4 27q-3 10 -13 17t-20 10.5t-30 9.5l31 89h-20v621h-239v99h583v-99h-239v-621z" />
    <glyph glyph-name="uni0163" unicode="&#x163;" horiz-adv-x="442" 
d="M379 456h-161v-237q0 -73 13 -94q18 -34 59 -37q45 -3 89 3v-91q-67 -17 -130 -5l-15 -44q30 -13 48 -43q14 -23 12.5 -53.5t-17.5 -52.5q-35 -51 -95 -43q-24 1 -56 16l24 65q16 -6 33 -8q21 0 30 14q8 13 3 27q-3 10 -13 17t-19.5 10.5t-30.5 9.5l37 106q-37 21 -54 55
q-22 42 -22 141v244h-104v84h104v150h104v-150h161v-84z" />
    <glyph glyph-name="Tcaron" unicode="&#x164;" horiz-adv-x="603" 
d="M443 879l-161 -93l-161 93l39 73l122 -70l121 70zM593 720v-99h-239v-621h-105v621h-239v99h583z" />
    <glyph glyph-name="tcaron" unicode="&#x165;" horiz-adv-x="422" 
d="M330 847h110v-130q0 -60 -28 -89.5t-82 -20.5l6 47q31 -3 43 17.5t8 55.5h-57v120zM218 690v-150h161v-84h-161v-237q0 -73 13 -94q18 -34 59 -37q45 -3 89 3v-91q-71 -18 -137 -4q-78 20 -106 75q-22 42 -22 141v244h-104v84h104v150h104z" />
    <glyph glyph-name="Tbar" unicode="&#x166;" horiz-adv-x="603" 
d="M593 621h-239v-209h178v-104h-178v-308h-105v308h-177v104h177v209h-239v99h583v-99z" />
    <glyph glyph-name="tbar" unicode="&#x167;" horiz-adv-x="442" 
d="M392 235h-174v-16q0 -73 13 -94q18 -34 59 -37q45 -3 89 3v-91q-71 -18 -137 -4q-78 20 -106 75q-22 42 -22 141v23h-104v84h104v137h-104v84h104v150h104v-150h161v-84h-161v-137h174v-84z" />
    <glyph glyph-name="Umacron" unicode="&#x16a;" horiz-adv-x="714" 
d="M235 923h261v-83h-261v83zM644 720v-456q0 -98 -63 -177q-80 -102 -223 -102q-67 0 -126.5 26.5t-98.5 75.5q-63 78 -63 177v455l106 1v-437q0 -80 38 -131q55 -69 144 -69q41 0 79 18.5t63 51.5q38 47 38 130v437h106z" />
    <glyph glyph-name="umacron" unicode="&#x16b;" horiz-adv-x="615" 
d="M436 743v-83h-261v83h261zM440 540h105v-540h-93v66l-17 -20q-49 -55 -137 -60q-102 -7 -167 50q-45 39 -58.5 98.5t-12.5 143.5v262h106v-258q0 -125 50 -168q35 -32 94 -30q47 3 79 29q34 27 44 80q7 30 7 110v1v236z" />
    <glyph glyph-name="Uring" unicode="&#x16e;" horiz-adv-x="714" 
d="M367 983q56 0 96 -40t40 -96t-40 -96.5t-96 -40.5t-96 40.5t-40 96.5t40 96t96 40zM367 907q-25 0 -42.5 -17.5t-17.5 -42.5t17.5 -42.5t42.5 -17.5t42.5 17.5t17.5 42.5t-17.5 42.5t-42.5 17.5zM644 720v-456q0 -98 -63 -177q-80 -102 -223 -102q-67 0 -126.5 26.5
t-98.5 75.5q-63 78 -63 177v455l106 1v-437q0 -80 38 -131q55 -69 144 -69q41 0 79 18.5t63 51.5q38 47 38 130v437h106z" />
    <glyph glyph-name="uring" unicode="&#x16f;" horiz-adv-x="615" 
d="M302 576q-56 0 -96 40t-40 96t40 96t96 40t96 -40t40 -96t-40 -96t-96 -40zM302 772q-25 0 -42.5 -17.5t-17.5 -42.5t17.5 -42.5t42.5 -17.5t42.5 17.5t17.5 42.5t-17.5 42.5t-42.5 17.5zM440 540h105v-540h-93v66l-17 -20q-49 -55 -137 -60q-102 -7 -167 50
q-45 39 -58.5 98.5t-12.5 143.5v262h106v-258q0 -125 50 -168q35 -32 94 -30q47 3 79 29q34 27 44 80q7 30 7 110v1v236z" />
    <glyph glyph-name="Uhungarumlaut" unicode="&#x170;" horiz-adv-x="714" 
d="M279 792l117 114l-51 52l-117 -114zM436 792l117 114l-51 52l-117 -114zM644 720v-456q0 -98 -63 -177q-80 -102 -223 -102q-67 0 -126.5 26.5t-98.5 75.5q-63 78 -63 177v455l106 1v-437q0 -80 38 -131q55 -69 144 -69q41 0 79 18.5t63 51.5q38 47 38 130v437h106z" />
    <glyph glyph-name="uhungarumlaut" unicode="&#x171;" horiz-adv-x="615" 
d="M336 726l-117 -114l-51 52l117 114zM376 612l-51 52l117 114l51 -52zM440 540h105v-540h-93v66l-17 -20q-49 -55 -137 -60q-102 -7 -167 50q-45 39 -58.5 98.5t-12.5 143.5v262h106v-258q0 -125 50 -168q35 -32 94 -30q47 3 79 29q34 27 44 80q7 30 7 110v1v236z" />
    <glyph glyph-name="Uogonek" unicode="&#x172;" horiz-adv-x="714" 
d="M538 720h106v-456q0 -98 -63 -177q-12 -16 -33 -35q-87 -82 -99 -98q-29 -39 -38 -64q-8 -27 4 -39q14 -13 31.5 -9.5t33.5 17.5l40 -51q-16 -24 -47 -39q-33 -15 -67.5 -6.5t-55.5 35.5q-42 47 -16 120q14 37 41 67h-17q-67 0 -126.5 26.5t-98.5 75.5q-63 78 -63 177
v455l106 1v-437q0 -80 38 -131q55 -69 144 -69q41 0 79 18.5t63 51.5q38 47 38 130v437z" />
    <glyph glyph-name="uogonek" unicode="&#x173;" horiz-adv-x="615" 
d="M511 -141l40 -51q-17 -25 -47 -39q-33 -15 -67 -6.5t-56 35.5q-42 48 -16 120q25 63 87 107v41l-17 -20q-49 -55 -137 -60q-102 -7 -167 50q-45 39 -58.5 98.5t-12.5 143.5v262h106v-258q0 -125 50 -168q35 -32 94 -30q47 3 79 29q34 27 44 80q7 30 7 110v1v236h105v-540
h-10q-32 -23 -54 -50q-27 -29 -39 -60q-8 -27 4 -39q14 -13 31.5 -9.5t33.5 17.5z" />
    <glyph glyph-name="Wcircumflex" unicode="&#x174;" horiz-adv-x="962" 
d="M360 786l122 70l121 -70l40 73l-161 93l-161 -93zM839 720h110l-209 -720h-104l-155 538l-154 -538h-104l-210 720h110l152 -545l150 544l110 1l152 -545z" />
    <glyph glyph-name="wcircumflex" unicode="&#x175;" horiz-adv-x="791" 
d="M279 606l121 70l121 -70l40 73l-161 93l-161 -93zM668 540h103l-165 -540h-90l-121 391l-126 -391h-84l-165 541l104 -1l113 -371l114 371h90l113 -371z" />
    <glyph glyph-name="Ycircumflex" unicode="&#x176;" horiz-adv-x="593" 
d="M175 786l122 70l121 -70l40 73l-161 93l-161 -93zM471 720h122l-243 -423v-297h-106v297l-244 423h122l175 -303z" />
    <glyph glyph-name="ycircumflex" unicode="&#x177;" horiz-adv-x="561" 
d="M170 606l121 70l121 -70l40 73l-161 93l-161 -93zM446 540h105l-239 -630q-34 -88 -79 -121q-38 -29 -112 -29h-11v101l16 -2q36 -4 54 9q25 16 61 116l-221 556h106l164 -422z" />
    <glyph glyph-name="Ydieresis" unicode="&#x178;" horiz-adv-x="593" 
d="M146 940h100v-100h-100v100zM347 940h100v-100h-100v100zM471 720h122l-243 -423v-297h-106v297l-244 423h122l175 -303z" />
    <glyph glyph-name="Zacute" unicode="&#x179;" horiz-adv-x="640" 
d="M231 785l254 95l-28 78l-254 -96zM194 99h386v-99h-520v99l387 522h-387v99h520v-99z" />
    <glyph glyph-name="zacute" unicode="&#x17a;" horiz-adv-x="576" 
d="M181 605l254 95l-28 78l-254 -96zM506 93v-93h-436v91l299 356h-299v93h436v-94l-298 -353h298z" />
    <glyph glyph-name="Zdotaccent" unicode="&#x17b;" horiz-adv-x="640" 
d="M287 940h111v-111h-111v111zM194 99h386v-99h-520v99l387 522h-387v99h520v-99z" />
    <glyph glyph-name="zdotaccent" unicode="&#x17c;" horiz-adv-x="576" 
d="M247 760h110v-111h-110v111zM506 93v-93h-436v91l299 356h-299v93h436v-94l-298 -353h298z" />
    <glyph glyph-name="Zcaron" unicode="&#x17d;" horiz-adv-x="640" 
d="M214 952l-40 -73l161 -93l161 93l-39 73l-122 -70zM194 99h386v-99h-520v99l387 522h-387v99h520v-99z" />
    <glyph glyph-name="zcaron" unicode="&#x17e;" horiz-adv-x="576" 
d="M182 772l-40 -73l161 -93l161 93l-40 73l-121 -70zM506 93v-93h-436v91l299 356h-299v93h436v-94l-298 -353h298z" />
    <glyph glyph-name="florin" unicode="&#x192;" horiz-adv-x="759" 
d="M563 735q74 0 136 -31l-49 -87q-1 2 -10.5 6t-29.5 8.5t-40 4.5q-39 0 -73 -22.5t-43 -71.5l-23 -140h196v-84h-210l-20 -122q-17 -106 -72.5 -158.5t-134.5 -52.5q-60 0 -130 30l44 89q34 -20 81 -20q40 0 68 31.5t38 95.5l17 107h-154v84h168l20 121q17 107 75.5 159.5
t145.5 52.5z" />
    <glyph glyph-name="uni0218" unicode="&#x218;" horiz-adv-x="632" 
d="M596 538l-106 -28q-29 68 -78 97q-46 29 -98 29q-60 0 -97 -22q-48 -27 -48 -78q0 -29 20 -51q22 -22 92 -44l127 -37q85 -25 131 -68q63 -60 63 -144q0 -46 -24 -89.5t-64 -70.5q-66 -47 -190 -47q-156 0 -233 99q-41 53 -61 135l106 29q12 -63 39 -97q47 -67 152 -67
q82 0 126 34q38 27 38 78q0 38 -28 64q-26 25 -79 41l-133 39q-91 27 -135 66q-57 50 -57 133q0 53 30.5 98.5t78.5 68.5q59 29 147 29q89 -2 150 -36q89 -51 131 -161zM370 -175q0 -45 -30 -71.5t-75 -26.5v48q10 0 21.5 3t23.5 15t12 32h-57v105h105v-105z" />
    <glyph glyph-name="uni0219" unicode="&#x219;" horiz-adv-x="544" 
d="M501 398l-99 -24q-20 49 -58 70q-33 17 -77 19q-39 2 -70 -13q-37 -16 -37 -47q0 -25 22 -38q18 -11 51 -20q40 -12 106 -30q66 -17 104 -48q61 -47 61 -118q0 -38 -20 -73t-53 -55q-57 -36 -145 -36q-124 0 -189 72q-9 10 -16 19.5t-11 16t-9 19t-6.5 17.5t-7 22.5
t-7.5 24.5l99 24q4 -49 31 -78q38 -45 117 -45q61 0 92 22q28 20 28 50t-29 46q-20 11 -65 24q-103 29 -124 37q-65 24 -93 54q-33 36 -33 89q0 45 26 81.5t67 54.5q48 20 117 20q63 0 114 -27q39 -19 69.5 -54t44.5 -76zM327 -175q0 -45 -30 -71.5t-76 -26.5v48q10 0 22 3
t24 15t12 32h-58v105h106v-105z" />
    <glyph glyph-name="uni021A" unicode="&#x21a;" horiz-adv-x="603" 
d="M593 720v-99h-239v-621h-105v621h-239v99h583zM249 -175v105h105v-105q0 -45 -30 -71.5t-75 -26.5v48q10 0 22 3t24 15t12 32h-58z" />
    <glyph glyph-name="uni021B" unicode="&#x21b;" horiz-adv-x="422" 
d="M379 456h-161v-237q0 -73 13 -94q18 -34 59 -37q45 -3 89 3v-91q-71 -18 -137 -4q-78 20 -106 75q-22 42 -22 141v244h-104v84h104v150h104v-150h161v-84zM177 -175v105h105v-105q0 -45 -30 -71.5t-75 -26.5v48q10 0 21.5 3t23.5 15t12 32h-57z" />
    <glyph glyph-name="alpha" unicode="&#x3b1;" horiz-adv-x="624" 
d="M569 191q0 -40 10.5 -63t44.5 -28v-100q-88 3 -129 62q-73 -77 -191 -77q-127 0 -201 89q-63 80 -63 196q0 117 63 196q74 89 201 89q104 0 172 -59v44h93v-349zM422 138q36 48 36 132q0 85 -36 133q-38 53 -118 53q-79 0 -117 -53q-36 -48 -36 -133q0 -84 36 -132
q39 -54 117 -54q79 0 118 54z" />
    <glyph glyph-name="beta" unicode="&#x3b2;" horiz-adv-x="600" 
d="M515 338q48 -52 48 -128q0 -93 -67 -159q-69 -66 -180 -66q-84 0 -141 32v-257h-105v780q0 45 21.5 86.5t59.5 68.5q55 40 135 40q79 0 136 -42q38 -27 59.5 -70t21.5 -87q0 -49 -25 -88q-17 -29 -45 -52q53 -24 82 -58zM427 130q30 38 30 79q0 60 -56 94q-44 28 -114 33
v93q57 10 84 41q26 27 26 64q0 48 -41 80q-28 22 -70 22q-39 0 -70 -22q-39 -28 -39 -75v-331q0 -63 37 -93q38 -32 105 -32t108 47z" />
    <glyph glyph-name="uni03BC" unicode="&#x3bc;" horiz-adv-x="610" 
d="M555 191q0 -40 10.5 -63t44.5 -28v-100q-76 1 -116 46q-4 -6 -10 -10q-65 -57 -167 -50q-88 5 -137 60l-17 20v-246h-93v720h105v-237q0 -80 7 -110q10 -53 44 -80q32 -26 79 -29q59 -2 94 30q50 43 50 168v258h106v-262v-30v-57z" />
    <glyph glyph-name="uni0400" unicode="&#x400;" horiz-adv-x="597" 
d="M440 862l-29 -77l-254 95l28 78zM527 621h-352v-211h292v-99h-292v-212h352v-99h-457v720h457v-99z" />
    <glyph glyph-name="uni0401" unicode="&#x401;" horiz-adv-x="597" 
d="M244 940v-100h-100v100h100zM445 940v-100h-100v100h100zM527 621h-352v-211h292v-99h-292v-212h352v-99h-457v720h457v-99z" />
    <glyph glyph-name="uni0402" unicode="&#x402;" horiz-adv-x="603" 
d="M489 497q74 -67 74 -203q0 -155 -87 -234q-66 -58 -156 -60v106q53 2 86 33q51 47 51 148q0 88 -44 132q-35 35 -94 35q-48 0 -82 -25q-37 -27 -49 -86q-6 -25 -6 -69v-274h-105v626h-77v94h330v-94h-160v-135q1 2 3 3.5t4 3.5l3 3q62 54 146 54q99 0 163 -58z" />
    <glyph glyph-name="uni0403" unicode="&#x403;" horiz-adv-x="540" 
d="M402 880l-254 -95l-28 77l255 96zM530 720v-99h-355v-621h-105v720h460z" />
    <glyph glyph-name="uni0404" unicode="&#x404;" horiz-adv-x="745" 
d="M564 165q24 33 37 77l104 -30q-19 -62 -58 -111q-93 -116 -259 -116q-79 0 -146.5 30t-112.5 86q-84 105 -82 259q2 160 82 259q91 116 259 116q78 0 146 -29.5t113 -86.5q42 -53 65 -130l-108 -19q-15 52 -40 85q-29 39 -76 60t-100 21q-116 0 -175 -81
q-41 -52 -52 -143h251v-104h-251q10 -90 52 -143q59 -81 175 -81q52 -1 99.5 20t76.5 61z" />
    <glyph glyph-name="uni0405" unicode="&#x405;" horiz-adv-x="632" 
d="M596 538l-106 -28q-29 68 -78 97q-46 29 -98 29q-60 0 -97 -22q-48 -27 -48 -78q0 -29 20 -51q22 -22 92 -44l127 -37q85 -25 131 -68q63 -60 63 -144q0 -46 -24 -89.5t-64 -70.5q-66 -47 -190 -47q-156 0 -233 99q-41 53 -61 135l106 29q12 -63 39 -97q47 -67 152 -67
q82 0 126 34q38 27 38 78q0 38 -28 64q-26 25 -79 41l-133 39q-91 27 -135 66q-57 50 -57 133q0 53 30.5 98.5t78.5 68.5q59 29 147 29q89 -2 150 -36q89 -51 131 -161z" />
    <glyph glyph-name="uni0406" unicode="&#x406;" horiz-adv-x="265" 
d="M80 720h105v-720h-105v720z" />
    <glyph glyph-name="uni0407" unicode="&#x407;" horiz-adv-x="265" 
d="M-18 940h100v-100h-100v100zM183 940h100v-100h-100v100zM80 720h105v-720h-105v720z" />
    <glyph glyph-name="uni0408" unicode="&#x408;" horiz-adv-x="488" 
d="M408 720h-108v-489v-11q0 -61 -11 -83q-11 -25 -35.5 -39t-51.5 -14q-30 0 -57 19q-35 23 -41 62l-104 -25q23 -86 96 -127q45 -28 107 -28q119 0 178 99q19 34 23 61.5t4 85.5v489z" />
    <glyph glyph-name="uni0409" unicode="&#x409;" horiz-adv-x="1110" 
d="M1033 373q51 -66 51 -142q-2 -83 -55 -146q-39 -51 -104 -73q-34 -12 -74 -12h-314v621h-261l-48 -405q-14 -113 -61.5 -169t-146.5 -47v94q55 1 79.5 36t32.5 107l58 483h461v-259h200q53 0 102 -24t80 -64zM977 231q1 42 -29 81q-39 50 -98 50h-199v-263h199
q52 0 92 43q33 35 35 89z" />
    <glyph glyph-name="uni040A" unicode="&#x40a;" horiz-adv-x="1095" 
d="M1017 373q52 -66 51 -142q0 -82 -54 -146q-39 -51 -104 -73q-36 -12 -74 -12h-315v362h-346v-362h-105v720h105v-259h346v259h105v-259h210q53 0 101.5 -24t79.5 -64zM961 231q1 43 -28 81q-40 50 -98 50h-209v-263h209q53 0 91 43q33 33 35 89z" />
    <glyph glyph-name="uni040B" unicode="&#x40b;" horiz-adv-x="663" 
d="M561 384q55 -72 55 -212v-172h-106v151q0 121 -42 171q-42 56 -124 56q-86 0 -129 -57q-24 -34 -36 -91q-4 -32 -4 -55v-175h-105v626h-70v94h330v-94h-155v-222q68 76 183 76q60 0 114.5 -25.5t88.5 -70.5z" />
    <glyph glyph-name="uni040C" unicode="&#x40c;" horiz-adv-x="646" 
d="M229 785l254 95l-27 78l-255 -96zM646 0h-134l-261 315h-75v-315h-106v720h106v-305h74l232 305h131l-267 -354z" />
    <glyph glyph-name="uni040D" unicode="&#x40d;" horiz-adv-x="707" 
d="M471 785l29 77l-255 96l-28 -78zM531 720h106v-720h-106v535l-355 -535h-106v720h106v-535z" />
    <glyph glyph-name="uni040E" unicode="&#x40e;" horiz-adv-x="640" 
d="M383 924h83q0 -60 -42 -102t-102 -42q-59 0 -101.5 42t-42.5 102h83q0 -25 18 -43t43 -18q26 0 43.5 17.5t17.5 43.5zM522 720h108l-279 -596q-43 -90 -97 -120q-37 -19 -84 -19q-37 0 -80 15l35 92q22 -10 45 -10q27 0 41 9q29 16 63 85l-254 544h107l197 -435z" />
    <glyph glyph-name="uni040F" unicode="&#x40f;" horiz-adv-x="757" 
d="M582 720h105v-720h-256v-120h-105v120h-256v720h105v-621h407v621z" />
    <glyph glyph-name="uni0410" unicode="&#x410;" horiz-adv-x="658" 
d="M530 0l-42 128h-318l-42 -128h-108l234 720h150l234 -720h-108zM202 226h254l-128 388z" />
    <glyph glyph-name="uni0411" unicode="&#x411;" horiz-adv-x="644" 
d="M566 373q52 -66 51 -142q-2 -85 -55 -146q-39 -50 -103 -73q-36 -12 -75 -12h-314v720h481v-99h-376v-160h209q54 0 102.5 -24t79.5 -64zM510 231q1 43 -28 81q-40 50 -98 50h-209v-263h209q51 0 91 43q33 35 35 89z" />
    <glyph glyph-name="uni0412" unicode="&#x412;" horiz-adv-x="625" 
d="M547 339q43 -56 41 -129q-2 -71 -44 -127q-42 -52 -109 -73q-40 -10 -85 -10h-280v720h265q53 0 77 -9q63 -18 100 -67q40 -49 43 -117q3 -64 -41 -118q-5 -7 -17 -21q28 -19 50 -49zM352 622h-176v-196h176q19 0 41 11t34 29q21 26 21 61q-2 37 -26 63q-27 32 -70 32z
M482 210q2 44 -27 77q-34 41 -86 41h-193v-229h173q67 0 100 34q31 30 33 77z" />
    <glyph glyph-name="uni0413" unicode="&#x413;" horiz-adv-x="540" 
d="M530 720v-99h-355v-621h-105v720h460z" />
    <glyph glyph-name="uni0414" unicode="&#x414;" horiz-adv-x="769" 
d="M666 99h53v-186h-100v87h-488v-87h-99v186q95 0 118 196l49 425h467v-621zM567 99v522h-279l-40 -338q-16 -135 -62 -184h381z" />
    <glyph glyph-name="uni0415" unicode="&#x415;" horiz-adv-x="597" 
d="M527 621h-352v-211h292v-99h-292v-212h352v-99h-457v720h457v-99z" />
    <glyph glyph-name="uni0416" unicode="&#x416;" horiz-adv-x="984" 
d="M5 0l244 375l-224 345h126l190 -303h98v303h106v-303h98l190 303h126l-224 -345l244 -375h-127l-209 333h-98v-333h-106v333h-98l-209 -333h-127z" />
    <glyph glyph-name="uni0417" unicode="&#x417;" horiz-adv-x="618" 
d="M65 562q10 89 91 138q58 35 152 35q93 0 152 -35q93 -57 93 -164q0 -68 -43 -115q-12 -17 -34 -34q31 -21 54 -55q41 -51 41 -123q0 -118 -92 -179q-66 -45 -171 -45q-104 0 -171 45q-79 53 -90 149l109 19q3 -55 43 -83q43 -33 109 -31q67 0 108 31q46 31 44 94
q2 63 -44 94q-41 31 -108 31h-50v101h50q57 0 94 24q40 26 40 77q0 50 -40 76q-37 24 -94 24q-58 0 -95 -24q-35 -23 -38 -69z" />
    <glyph glyph-name="uni0418" unicode="&#x418;" horiz-adv-x="707" 
d="M531 720h106v-720h-106v535l-355 -535h-106v720h106v-535z" />
    <glyph glyph-name="uni0419" unicode="&#x419;" horiz-adv-x="707" 
d="M435 924h83q0 -60 -42.5 -102t-101.5 -42q-60 0 -102 42t-42 102h83q0 -26 17.5 -43.5t43.5 -17.5t43.5 17.5t17.5 43.5zM531 720h106v-720h-106v535l-355 -535h-106v720h106v-535z" />
    <glyph glyph-name="uni041A" unicode="&#x41a;" horiz-adv-x="646" 
d="M646 0h-134l-261 315h-75v-315h-106v720h106v-305h74l232 305h131l-267 -354z" />
    <glyph glyph-name="uni041B" unicode="&#x41b;" horiz-adv-x="721" 
d="M651 720v-720h-104v621h-271l-48 -405q-14 -113 -61.5 -169t-146.5 -47v94q55 1 79.5 36t32.5 107l58 483h461z" />
    <glyph glyph-name="uni041C" unicode="&#x41c;" horiz-adv-x="865" 
d="M795 720v-720h-106v493l-233 -493h-47l-233 492v-492h-106v720h105l258 -542l256 542h106z" />
    <glyph glyph-name="uni041D" unicode="&#x41d;" horiz-adv-x="709" 
d="M535 720h104v-720h-104v258h-360v-258h-105v720h105v-363h360v363z" />
    <glyph glyph-name="uni041E" unicode="&#x41e;" horiz-adv-x="774" 
d="M387 -15q-79 0 -147 30t-112 87q-81 101 -81 258q-2 156 81 259q91 116 259 116q167 -2 259 -116q79 -99 81 -259q-2 -160 -81 -258q-92 -117 -259 -117zM387 84q53 0 100 21t75 60q54 70 54 195q2 123 -54 195q-29 40 -75.5 60.5t-99.5 19.5q-53 1 -100 -19.5t-76 -60.5
q-52 -67 -54 -195q0 -125 54 -195q29 -40 76 -61t100 -20z" />
    <glyph glyph-name="uni041F" unicode="&#x41f;" horiz-adv-x="757" 
d="M687 720v-720h-105v621h-407v-621h-105v720h617z" />
    <glyph glyph-name="uni0420" unicode="&#x420;" horiz-adv-x="644" 
d="M617 489q1 -76 -51 -142q-31 -40 -79.5 -64t-102.5 -24h-209v-259h-105v720h314q39 0 75 -12q64 -23 103 -73q53 -61 55 -146zM482 408q29 38 28 81q-2 54 -35 89q-40 43 -91 43h-209v-263h209q58 0 98 50z" />
    <glyph glyph-name="uni0421" unicode="&#x421;" horiz-adv-x="758" 
d="M601 242l104 -30q-19 -62 -58 -111q-93 -116 -259 -116q-79 0 -146.5 30t-112.5 86q-84 103 -82 259q0 158 82 259q91 116 259 116q78 0 146 -29.5t113 -86.5q43 -54 64 -130l-108 -19q-13 51 -39 85q-30 39 -76.5 60t-99.5 21q-116 0 -176 -81q-52 -67 -54 -195
q2 -126 54 -195q60 -81 176 -81q52 -1 99 20t77 61q25 37 37 77z" />
    <glyph glyph-name="uni0422" unicode="&#x422;" horiz-adv-x="603" 
d="M593 720v-99h-239v-621h-105v621h-239v99h583z" />
    <glyph glyph-name="uni0423" unicode="&#x423;" horiz-adv-x="640" 
d="M522 720h108l-279 -596q-43 -90 -97 -120q-37 -19 -84 -19q-37 0 -80 15l35 92q22 -10 45 -10q27 0 41 9q29 16 63 85l-254 544h107l197 -435z" />
    <glyph glyph-name="uni0424" unicode="&#x424;" horiz-adv-x="784" 
d="M626 609q55 -39 83.5 -99t27.5 -129q2 -146 -111 -226q-76 -52 -182 -62v-93h-104v93q-107 9 -182 62q-54 38 -83 97.5t-28 128.5q-1 69 27 128.5t83 99.5q75 51 183 63v48h104v-47q105 -10 182 -64zM219 244q47 -35 121 -45v363q-75 -10 -120 -45q-62 -45 -62 -136
t61 -137zM565 244q61 46 61 137t-62 136q-46 35 -120 45v-364q74 12 121 46z" />
    <glyph glyph-name="uni0425" unicode="&#x425;" horiz-adv-x="642" 
d="M386 364l251 -364h-128l-187 272l-188 -272h-129l252 364l-245 356h128l182 -264l181 264h128z" />
    <glyph glyph-name="uni0426" unicode="&#x426;" horiz-adv-x="805" 
d="M687 99h78v-186h-104v87h-591v720h105v-621h407v621h105v-621z" />
    <glyph glyph-name="uni0427" unicode="&#x427;" horiz-adv-x="663" 
d="M488 720h105v-720h-105v316q-68 -76 -183 -76q-60 0 -114.5 25.5t-88.5 70.5q-55 72 -55 212v172h106v-151q0 -121 42 -171q42 -56 124 -56q85 0 129 57q24 34 36 91q4 32 4 55v175z" />
    <glyph glyph-name="uni0428" unicode="&#x428;" horiz-adv-x="933" 
d="M759 720h104v-720h-793v720h105v-621h239v621h105v-621h240v621z" />
    <glyph glyph-name="uni0429" unicode="&#x429;" horiz-adv-x="982" 
d="M863 99h79v-186h-105v87h-767v720h105v-621h239v621h105v-621h240v621h104v-621z" />
    <glyph glyph-name="uni042A" unicode="&#x42a;" horiz-adv-x="638" 
d="M583 373q51 -66 51 -142q-2 -83 -55 -146q-39 -51 -104 -73q-35 -12 -74 -12h-314v636h-97v84h201v-259h210q53 0 102 -24t80 -64zM527 231q1 42 -29 81q-39 50 -98 50h-209v-263h209q52 0 92 43q33 35 35 89z" />
    <glyph glyph-name="uni042B" unicode="&#x42b;" horiz-adv-x="909" 
d="M384 461q54 0 102.5 -24t79.5 -64q52 -66 51 -142q-2 -85 -55 -146q-39 -50 -103 -73q-36 -12 -75 -12h-314v720h105v-259h209zM724 720h105v-720h-105v720zM510 231q1 43 -28 81q-40 50 -98 50h-209v-263h209q51 0 91 43q33 35 35 89z" />
    <glyph glyph-name="uni042C" unicode="&#x42c;" horiz-adv-x="644" 
d="M566 373q52 -66 51 -142q-2 -85 -55 -146q-39 -50 -103 -73q-36 -12 -75 -12h-314v720h105v-259h209q54 0 102.5 -24t79.5 -64zM510 231q1 43 -28 81q-40 50 -98 50h-209v-263h209q51 0 91 43q33 35 35 89z" />
    <glyph glyph-name="uni042D" unicode="&#x42d;" horiz-adv-x="745" 
d="M698 360q2 -154 -82 -259q-45 -56 -112.5 -86t-146.5 -30q-166 0 -259 116q-39 49 -58 111l104 30q13 -44 37 -77q29 -40 76.5 -61t99.5 -20q53 0 100 21t75 60q42 53 52 143h-251v104h251q-11 91 -52 143q-28 39 -75 60t-100 21t-100 -21t-76 -60q-25 -33 -40 -85
l-108 19q23 77 65 130q45 57 113 86.5t146 29.5q168 0 259 -116q80 -99 82 -259z" />
    <glyph glyph-name="uni042E" unicode="&#x42e;" horiz-adv-x="1054" 
d="M926 619q79 -99 81 -259q-2 -160 -81 -258q-92 -117 -259 -117q-79 0 -147 30t-112 87q-66 83 -79 206h-154v-308h-105v720h105v-308h154q11 122 79 207q91 116 259 116q167 -2 259 -116zM896 360q2 123 -54 195q-29 40 -75.5 60.5t-99.5 19.5q-53 1 -100 -19.5
t-76 -60.5q-52 -67 -54 -195q0 -125 54 -195q29 -40 76 -61t100 -20q53 0 100 21t75 60q54 70 54 195z" />
    <glyph glyph-name="uni042F" unicode="&#x42f;" horiz-adv-x="687" 
d="M617 720v-720h-105v259h-207l-126 -259h-119l138 284q-46 23 -77 63q-52 66 -51 142q2 85 55 146q39 50 103 73q36 12 75 12h314zM512 358v263h-209q-51 0 -91 -43q-33 -35 -35 -89q-1 -43 28 -81q40 -50 98 -50h209z" />
    <glyph glyph-name="uni0430" unicode="&#x430;" 
d="M509 0h-92v77q-37 -50 -84.5 -71t-114.5 -21q-80 0 -129 45t-49 120q0 106 95 152q19 9 43 16.5t56 13.5t53 9.5t62 9.5t55 8q-4 47 -36 72t-85 25q-91 0 -147 -61l-63 69q84 91 219 91q86 0 150 -55q67 -56 67 -173v-327zM385 151q10 16 14.5 38.5t5 36.5t0.5 48
q-86 -13 -161 -29q-44 -10 -72 -32t-28 -55q0 -37 27 -60.5t69 -23.5q100 0 145 77z" />
    <glyph glyph-name="uni0431" unicode="&#x431;" horiz-adv-x="593" 
d="M307 508q117 2 185 -80q61 -73 61 -183q3 -110 -69 -187q-75 -76 -191 -73q-117 0 -187 82q-60 68 -65 184q-3 131 9 211q21 138 113 202q76 56 229 56q52 0 118 -11v-97q-67 10 -118 10q-119 4 -173 -34q-55 -39 -68 -146q64 66 156 66zM297 414q-71 2 -110 -45
q-35 -40 -35 -117q0 -76 35 -118q39 -46 110 -46t110 46q36 42 36 117q0 76 -36 118q-39 47 -110 45z" />
    <glyph glyph-name="uni0432" unicode="&#x432;" horiz-adv-x="577" 
d="M70 539l266 1q73 0 119 -40q55 -47 55 -116q0 -45 -24 -81q-10 -14 -18 -21q29 -20 42 -44q27 -35 27 -82q0 -73 -57 -120q-42 -36 -101 -36h-309v539zM176 455v-144h160q35 0 53 26q16 20 14 47q0 25 -14 45q-18 26 -53 26h-160zM176 228v-145h185q34 0 54 24
q16 22 16 49q0 26 -16 48q-21 24 -60 24h-179z" />
    <glyph glyph-name="uni0433" unicode="&#x433;" horiz-adv-x="475" 
d="M450 540v-105h-275v-435h-105v540h380z" />
    <glyph glyph-name="uni0434" unicode="&#x434;" horiz-adv-x="632" 
d="M532 540v-441h46v-168h-99v69h-360v-69h-99v168q87 0 109 182l30 259h373zM432 99v347h-187l-20 -177q-14 -121 -54 -170h261z" />
    <glyph glyph-name="uni0435" unicode="&#x435;" horiz-adv-x="609" 
d="M148 233q5 -62 35 -100q41 -56 121 -56q102 0 164 86l77 -52q-78 -126 -235 -126q-61 0 -116.5 23t-90.5 66q-63 79 -63 191q0 122 63 201q74 89 201 89q130 0 201 -89q73 -90 62 -233h-419zM304 463q-80 0 -121 -56q-25 -32 -33 -80h309q-10 49 -33 80q-41 56 -122 56z
" />
    <glyph glyph-name="uni0436" unicode="&#x436;" horiz-adv-x="794" 
d="M765 540l-168 -269l177 -271h-118l-142 228h-70v-228h-94v228h-70l-142 -228h-118l177 271l-168 269h117l134 -228h70v228h94v-228h70l134 228h117z" />
    <glyph glyph-name="uni0437" unicode="&#x437;" horiz-adv-x="552" 
d="M53 419q14 71 84 108q55 28 137 28q83 0 138 -28q83 -44 89 -138q0 -64 -43 -106q56 -40 54 -122q-1 -47 -25.5 -84.5t-65.5 -59.5q-58 -31 -147 -31t-146 31q-68 35 -88 116l103 25q8 -33 37 -51q35 -22 94 -22t94 22q38 21 38 59q0 52 -54 63q-31 8 -76 8h-51v84h51
q49 0 70 7q28 8 38 21.5t10 34.5q0 34 -34 53q-32 19 -86 19t-85 -19q-26 -17 -32 -43z" />
    <glyph glyph-name="uni0438" unicode="&#x438;" horiz-adv-x="606" 
d="M536 540v-540h-106v372l-267 -372h-93v540h106v-365l267 365h93z" />
    <glyph glyph-name="uni0439" unicode="&#x439;" horiz-adv-x="606" 
d="M375 744h83q0 -60 -42 -102t-102 -42q-59 0 -101.5 42t-42.5 102h83q0 -25 18 -43t43 -18q26 0 43.5 17.5t17.5 43.5zM536 540v-540h-106v372l-267 -372h-93v540h106v-365l267 365h93z" />
    <glyph glyph-name="uni043A" unicode="&#x43a;" horiz-adv-x="533" 
d="M177 228v-228h-107l1 540h106v-228h56l159 228h118l-186 -269l209 -271h-122l-177 228h-57z" />
    <glyph glyph-name="uni043B" unicode="&#x43b;" horiz-adv-x="590" 
d="M149 540h371v-540h-99v446h-186l-33 -261q-12 -100 -53.5 -148t-128.5 -37v94q49 0 64 25t23 88z" />
    <glyph glyph-name="uni043C" unicode="&#x43c;" horiz-adv-x="711" 
d="M547 540h94v-540h-106v339l-148 -248h-63l-148 248v-339h-106v540h94l192 -318z" />
    <glyph glyph-name="uni043D" unicode="&#x43d;" horiz-adv-x="613" 
d="M438 540h105v-540h-105v232h-263v-232h-105v540h105v-204h263v204z" />
    <glyph glyph-name="uni043E" unicode="&#x43e;" horiz-adv-x="609" 
d="M304 -15q-127 0 -201 89q-63 80 -63 196q0 117 63 196q74 89 201 89q130 0 201 -89q64 -78 64 -196q0 -117 -64 -196q-73 -89 -201 -89zM422 138q36 48 36 132q0 85 -36 133q-38 53 -118 53q-79 0 -117 -53q-36 -48 -36 -133q0 -84 36 -132q39 -54 117 -54q79 0 118 54z
" />
    <glyph glyph-name="uni043F" unicode="&#x43f;" horiz-adv-x="613" 
d="M543 540v-540h-105v435h-263v-435h-105v540h473z" />
    <glyph glyph-name="uni0440" unicode="&#x440;" horiz-adv-x="622" 
d="M521 469q61 -78 61 -199q0 -122 -61 -198q-70 -87 -187 -87q-97 0 -159 55v-280h-105v780h93v-51q68 66 169 66q120 0 189 -86zM437 136q34 46 34 134q0 87 -35 135q-38 55 -120 55q-75 0 -112 -49q-41 -49 -41 -141t41 -141q42 -49 116 -49q78 0 117 56z" />
    <glyph glyph-name="uni0441" unicode="&#x441;" 
d="M534 420l-98 -43q-7 16 -15 25q-40 56 -117 54q-77 2 -117 -54q-35 -47 -37 -132q2 -85 37 -132q39 -54 117 -54t117 54q8 11 14 24l99 -43q-18 -30 -29 -44q-77 -92 -201 -89q-126 -3 -201 89q-63 77 -63 195t63 196q73 89 201 89q127 0 201 -89q19 -26 29 -46z" />
    <glyph glyph-name="uni0442" unicode="&#x442;" horiz-adv-x="523" 
d="M498 540v-94h-184v-446h-105v446h-184v94h473z" />
    <glyph glyph-name="uni0443" unicode="&#x443;" horiz-adv-x="561" 
d="M446 540h105l-239 -630q-34 -88 -79 -121q-38 -29 -112 -29h-11v101l16 -2q36 -4 54 9q25 16 61 116l-221 556h106l164 -422z" />
    <glyph glyph-name="uni0444" unicode="&#x444;" horiz-adv-x="722" 
d="M580 490q97 -77 102 -220q-3 -143 -102 -222q-63 -52 -172 -62v-211h-94v211q-105 9 -172 62q-100 82 -102 222q2 140 102 220q64 53 172 63v160h94v-160q108 -10 172 -63zM212 123q35 -28 102 -37v367q-65 -7 -102 -38q-63 -47 -65 -145q2 -95 65 -147zM510 123
q63 51 65 147q-2 97 -65 145q-37 30 -102 38v-367q66 9 102 37z" />
    <glyph glyph-name="uni0445" unicode="&#x445;" horiz-adv-x="558" 
d="M533 540l-194 -267l199 -273h-121l-137 188l-139 -188h-121l199 273l-195 267h121l135 -182l133 182h120z" />
    <glyph glyph-name="uni0446" unicode="&#x446;" horiz-adv-x="671" 
d="M543 99h88v-186h-104v87h-457v540h105v-435h263v435h105v-441z" />
    <glyph glyph-name="uni0447" unicode="&#x447;" horiz-adv-x="595" 
d="M420 540h105v-540h-105v173q-58 -50 -142 -53q-92 -3 -157 52q-49 40 -65.5 96t-15.5 138v134h106v-134q0 -115 50 -155q35 -31 94 -29q47 2 79 28q35 29 44 81q7 29 7 106v1v102z" />
    <glyph glyph-name="uni0448" unicode="&#x448;" horiz-adv-x="750" 
d="M70 0v540h94v-441h165v441h94v-441h163v441h94v-540h-610z" />
    <glyph glyph-name="uni0449" unicode="&#x449;" horiz-adv-x="809" 
d="M680 99h89v-186h-105v87h-594v540h94v-441h165v441h94v-441h163v441h94v-441z" />
    <glyph glyph-name="uni044A" unicode="&#x44a;" horiz-adv-x="539" 
d="M448 303q51 -48 51 -127q0 -78 -51 -127q-49 -49 -125 -49h-253v456h-77v84h183v-188h147q76 0 125 -49zM371 123q21 21 21 53q0 29 -20 51q-22 25 -53 25h-143v-153h143q30 0 52 24z" />
    <glyph glyph-name="uni044B" unicode="&#x44b;" horiz-adv-x="717" 
d="M70 540h106v-188h130q76 0 126 -49q51 -49 51 -127q0 -76 -51 -127q-50 -49 -126 -49h-236v540zM542 540h105v-540h-105v540zM176 252v-153h126q30 0 52 24q22 22 22 53q0 28 -21 51q-20 25 -53 25h-126z" />
    <glyph glyph-name="uni044C" unicode="&#x44c;" horiz-adv-x="539" 
d="M70 540h106v-188h147q76 0 125 -49q51 -48 51 -127q0 -78 -51 -127q-49 -49 -125 -49h-253v540zM176 252v-153h143q30 0 52 24q21 21 21 53q0 29 -20 51q-22 25 -53 25h-143z" />
    <glyph glyph-name="uni044D" unicode="&#x44d;" 
d="M466 466q63 -78 63 -196t-63 -195q-75 -92 -201 -89q-124 -3 -201 89q-11 14 -29 44l99 43q6 -13 14 -24q39 -54 117 -54t117 54q25 33 34 90h-202v84h202q-9 57 -34 90q-40 56 -117 54q-77 2 -117 -54q-8 -9 -15 -25l-98 43q10 20 29 46q74 89 201 89q128 0 201 -89z
" />
    <glyph glyph-name="uni044E" unicode="&#x44e;" horiz-adv-x="828" 
d="M724 466q64 -78 64 -196q0 -117 -64 -196q-73 -89 -201 -89q-127 0 -201 89q-49 62 -60 144h-87v-218h-105v540h105v-218h88q11 85 59 144q74 89 201 89q130 0 201 -89zM641 138q36 48 36 132q0 85 -36 133q-38 53 -118 53q-79 0 -117 -53q-36 -48 -36 -133
q0 -84 36 -132q39 -54 117 -54q79 0 118 54z" />
    <glyph glyph-name="uni044F" unicode="&#x44f;" 
d="M216 540h283v-540h-106v188h-142l-92 -188h-119l99 204q-28 13 -48 33q-51 49 -51 127q0 76 51 127q49 49 125 49zM393 288v153h-173q-28 0 -52 -24q-21 -23 -21 -53q0 -28 21 -51q20 -25 52 -25h173z" />
    <glyph glyph-name="uni0450" unicode="&#x450;" horiz-adv-x="609" 
d="M484 682l-29 -77l-254 95l28 78zM148 233q5 -62 35 -100q41 -56 121 -56q102 0 164 86l77 -52q-78 -126 -235 -126q-61 0 -116.5 23t-90.5 66q-63 79 -63 191q0 122 63 201q74 89 201 89q130 0 201 -89q73 -90 62 -233h-419zM304 463q-80 0 -121 -56q-25 -32 -33 -80h309
q-10 49 -33 80q-41 56 -122 56z" />
    <glyph glyph-name="uni0451" unicode="&#x451;" horiz-adv-x="609" 
d="M254 760v-100h-100v100h100zM455 760v-100h-100v100h100zM148 233q5 -62 35 -100q41 -56 121 -56q102 0 164 86l77 -52q-78 -126 -235 -126q-61 0 -116.5 23t-90.5 66q-63 79 -63 191q0 122 63 201q74 89 201 89q130 0 201 -89q73 -90 62 -233h-419zM304 463
q-80 0 -121 -56q-25 -32 -33 -80h309q-10 49 -33 80q-41 56 -122 56z" />
    <glyph glyph-name="uni0452" unicode="&#x452;" horiz-adv-x="615" 
d="M484 504q45 -39 58.5 -98.5t12.5 -143.5v-352q0 -53 -23 -85t-64 -40q-48 -9 -105 4v77q22 -1 41 -0.5t32 18.5t13 54v320q0 125 -50 168q-35 32 -94 30q-47 -3 -79 -29q-34 -27 -44 -80q-7 -30 -7 -110v-237h-105v587h-58v83h58v50h93v-50h110v-83h-110v-113l17 20
q49 55 137 60q102 7 167 -50z" />
    <glyph glyph-name="uni0453" unicode="&#x453;" horiz-adv-x="475" 
d="M125 605l254 95l-28 78l-254 -96zM450 540v-105h-275v-435h-105v540h380z" />
    <glyph glyph-name="uni0454" unicode="&#x454;" 
d="M421 138q8 11 14 24l99 -43q-18 -30 -29 -44q-77 -92 -201 -89q-126 -3 -201 89q-63 77 -63 195t63 196q73 89 201 89q127 0 201 -89q19 -26 29 -46l-98 -43q-7 16 -15 25q-40 56 -117 54q-77 2 -117 -54q-25 -33 -34 -90h202v-84h-202q9 -57 34 -90q39 -54 117 -54
t117 54z" />
    <glyph glyph-name="uni0455" unicode="&#x455;" horiz-adv-x="544" 
d="M501 398l-99 -24q-20 49 -58 70q-33 17 -77 19q-39 2 -70 -13q-37 -16 -37 -47q0 -25 22 -38q18 -11 51 -20q40 -12 106 -30q66 -17 104 -48q61 -47 61 -118q0 -38 -20 -73t-53 -55q-57 -36 -145 -36q-124 0 -189 72q-9 10 -16 19.5t-11 16t-9 19t-6.5 17.5t-7 22.5
t-7.5 24.5l99 24q4 -49 31 -78q38 -45 117 -45q61 0 92 22q28 20 28 50t-29 46q-20 11 -65 24q-103 29 -124 37q-65 24 -93 54q-33 36 -33 89q0 45 26 81.5t67 54.5q48 20 117 20q63 0 114 -27q39 -19 69.5 -54t44.5 -76z" />
    <glyph glyph-name="uni0456" unicode="&#x456;" horiz-adv-x="265" 
d="M80 727h105v-102h-105v102zM80 540h105v-540h-105v540z" />
    <glyph glyph-name="uni0457" unicode="&#x457;" horiz-adv-x="265" 
d="M-18 760h100v-100h-100v100zM183 760h100v-100h-100v100zM80 540h105v-540h-105v540z" />
    <glyph glyph-name="uni0458" unicode="&#x458;" horiz-adv-x="282" 
d="M98 717h104v-102h-104v102zM20 -148v-107q89 0 139 64q43 51 43 168v563h-104v-563q0 -78 -23 -104q-19 -21 -55 -21z" />
    <glyph glyph-name="uni0459" unicode="&#x459;" horiz-adv-x="890" 
d="M799 303q51 -49 51 -127q0 -76 -51 -127q-50 -49 -126 -49h-252l-1 446h-185l-33 -261q-12 -100 -53.5 -148t-128.5 -37v94q49 0 64 25t23 88l42 333h378v-188h146q76 0 126 -49zM721 123q22 22 22 53q0 28 -21 51q-20 25 -53 25h-142v-153h142q30 0 52 24z" />
    <glyph glyph-name="uni045A" unicode="&#x45a;" horiz-adv-x="901" 
d="M810 303q51 -48 51 -127q0 -78 -51 -127q-49 -49 -125 -49h-253v252h-257v-252h-105v540h105v-188h257v188h106v-188h147q76 0 125 -49zM733 123q21 21 21 53q0 29 -20 51q-22 25 -53 25h-143v-153h143q30 0 52 24z" />
    <glyph glyph-name="uni045B" unicode="&#x45b;" horiz-adv-x="615" 
d="M484 504q45 -39 58.5 -98.5t12.5 -143.5v-262h-106v258q0 125 -50 168q-35 32 -94 30q-47 -3 -79 -29q-34 -27 -44 -80q-7 -30 -7 -110v-237h-105v587h-58v83h58v50h93v-50h110v-83h-110v-113l17 20q49 55 137 60q102 7 167 -50z" />
    <glyph glyph-name="uni045C" unicode="&#x45c;" horiz-adv-x="533" 
d="M146 605l254 95l-28 78l-254 -96zM177 228v-228h-107l1 540h106v-228h56l159 228h118l-186 -269l209 -271h-122l-177 228h-57z" />
    <glyph glyph-name="uni045D" unicode="&#x45d;" horiz-adv-x="606" 
d="M440 605l28 77l-254 96l-28 -78zM536 540v-540h-106v372l-267 -372h-93v540h106v-365l267 365h93z" />
    <glyph glyph-name="uni045E" unicode="&#x45e;" horiz-adv-x="561" 
d="M350 744h83q0 -60 -42.5 -102t-101.5 -42q-60 0 -102 42t-42 102h83q0 -26 18 -43.5t43 -17.5t43 17.5t18 43.5zM446 540h105l-239 -630q-34 -88 -79 -121q-38 -29 -112 -29h-11v101l16 -2q36 -4 54 9q25 16 61 116l-221 556h106l164 -422z" />
    <glyph glyph-name="uni045F" unicode="&#x45f;" horiz-adv-x="613" 
d="M438 540h105v-540h-184v-120h-105v120h-184v540h105v-435h263v435z" />
    <glyph glyph-name="uni0490" unicode="&#x490;" horiz-adv-x="550" 
d="M435 807h105v-186h-365v-621h-105v720h365v87z" />
    <glyph glyph-name="uni0491" unicode="&#x491;" horiz-adv-x="475" 
d="M345 627h105v-192h-275v-435h-105v540h275v87z" />
    <glyph glyph-name="uni04AE" unicode="&#x4ae;" horiz-adv-x="593" 
d="M471 720h122l-243 -423v-297h-106v297l-244 423h122l175 -303z" />
    <glyph glyph-name="uni04AF" unicode="&#x4af;" horiz-adv-x="539" 
d="M519 540l-197 -540h-7v-180h-104v190h2l-193 530h105l145 -409l143 409h106z" />
    <glyph glyph-name="uni04BA" unicode="&#x4ba;" horiz-adv-x="663" 
d="M175 0h-105v720h105v-316q68 76 183 76q60 0 114.5 -25.5t88.5 -70.5q55 -72 55 -212v-172h-106v151q0 121 -42 171q-42 56 -124 56q-86 0 -129 -57q-24 -34 -36 -91q-4 -32 -4 -55v-175z" />
    <glyph glyph-name="uni04BB" unicode="&#x4bb;" horiz-adv-x="595" 
d="M474 368q49 -40 65.5 -96t15.5 -138v-134h-106v134q0 115 -50 155q-35 31 -94 29q-47 -2 -79 -28q-35 -29 -44 -81q-7 -29 -7 -106v-103h-105v540h105v-173q58 50 142 53q92 3 157 -52z" />
    <glyph glyph-name="uni04E8" unicode="&#x4e8;" horiz-adv-x="761" 
d="M646 619q79 -99 81 -259q-2 -160 -81 -258q-92 -117 -259 -117q-79 0 -147 30t-112 87q-81 101 -81 258q-2 156 81 259q91 116 259 116q167 -2 259 -116zM387 635q-53 1 -100 -19.5t-76 -60.5q-41 -52 -51 -143h454q-10 89 -52 143q-29 40 -75.5 60.5t-99.5 19.5zM387 84
q53 0 100 21t75 60q43 55 51 143h-453q8 -88 51 -143q29 -40 76 -61t100 -20z" />
    <glyph glyph-name="uni04E9" unicode="&#x4e9;" horiz-adv-x="609" 
d="M505 466q64 -78 64 -196q0 -117 -64 -196q-73 -89 -201 -89q-127 0 -201 89q-63 80 -63 196q0 117 63 196q74 89 201 89q130 0 201 -89zM304 456q-79 0 -117 -53q-26 -35 -33 -91h301q-7 56 -33 91q-38 53 -118 53zM304 84q79 0 118 54q26 35 33 90h-301q7 -55 33 -90
q39 -54 117 -54z" />
    <glyph glyph-name="Wgrave" unicode="&#x1e80;" horiz-adv-x="962" 
d="M604 785l28 77l-254 96l-28 -78zM839 720h110l-209 -720h-104l-155 538l-154 -538h-104l-210 720h110l152 -545l150 544l110 1l152 -545z" />
    <glyph glyph-name="wgrave" unicode="&#x1e81;" horiz-adv-x="791" 
d="M501 605l29 77l-255 96l-28 -78zM668 540h103l-165 -540h-90l-121 391l-126 -391h-84l-165 541l104 -1l113 -371l114 371h90l113 -371z" />
    <glyph glyph-name="Wacute" unicode="&#x1e82;" horiz-adv-x="962" 
d="M350 785l254 95l-28 78l-254 -96zM839 720h110l-209 -720h-104l-155 538l-154 -538h-104l-210 720h110l152 -545l150 544l110 1l152 -545z" />
    <glyph glyph-name="wacute" unicode="&#x1e83;" horiz-adv-x="791" 
d="M265 605l254 95l-28 78l-255 -96zM668 540h103l-165 -540h-90l-121 391l-126 -391h-84l-165 541l104 -1l113 -371l114 371h90l113 -371z" />
    <glyph glyph-name="Wdieresis" unicode="&#x1e84;" horiz-adv-x="962" 
d="M331 940h100v-100h-100v100zM532 940h100v-100h-100v100zM839 720h110l-209 -720h-104l-155 538l-154 -538h-104l-210 720h110l152 -545l150 544l110 1l152 -545z" />
    <glyph glyph-name="wdieresis" unicode="&#x1e85;" horiz-adv-x="791" 
d="M232 760h100v-100h-100v100zM433 760h100v-100h-100v100zM668 540h103l-165 -540h-90l-121 391l-126 -391h-84l-165 541l104 -1l113 -371l114 371h90l113 -371z" />
    <glyph glyph-name="Ygrave" unicode="&#x1ef2;" horiz-adv-x="593" 
d="M426 785l29 77l-255 96l-28 -78zM471 720h122l-243 -423v-297h-106v297l-244 423h122l175 -303z" />
    <glyph glyph-name="ygrave" unicode="&#x1ef3;" horiz-adv-x="561" 
d="M407 605l28 77l-254 96l-28 -78zM446 540h105l-239 -630q-34 -88 -79 -121q-38 -29 -112 -29h-11v101l16 -2q36 -4 54 9q25 16 61 116l-221 556h106l164 -422z" />
    <glyph glyph-name="uni2011" unicode="&#x2011;" horiz-adv-x="420" 
d="M60 325h300v-84h-300v84z" />
    <glyph glyph-name="endash" unicode="&#x2013;" horiz-adv-x="540" 
d="M60 325h420v-84h-420v84z" />
    <glyph glyph-name="emdash" unicode="&#x2014;" horiz-adv-x="780" 
d="M60 325h660v-84h-660v84z" />
    <glyph glyph-name="quoteleft" unicode="&#x2018;" horiz-adv-x="264" 
d="M73 589v131h110v-121h-57q-9 -77 51 -73l6 -46q-54 -9 -82 20t-28 89z" />
    <glyph glyph-name="quoteright" unicode="&#x2019;" horiz-adv-x="263" 
d="M191 589q0 -59 -28.5 -89t-82.5 -20l6 46q59 -4 52 73h-58v121h111v-131z" />
    <glyph glyph-name="quotesinglbase" unicode="&#x201a;" horiz-adv-x="291" 
d="M171 -10q0 -60 -28.5 -89.5t-82.5 -20.5l6 47q59 -4 52 73h-58v121h111v-131z" />
    <glyph glyph-name="quotedblleft" unicode="&#x201c;" horiz-adv-x="481" 
d="M136 593v130h110v-120h-57q-4 -35 8 -55.5t43 -17.5l6 -47q-54 -9 -82 20.5t-28 89.5zM290 593v130h110v-120h-57q-4 -35 8 -55.5t43 -17.5l6 -47q-54 -9 -82 20.5t-28 89.5z" />
    <glyph glyph-name="quotedblright" unicode="&#x201d;" horiz-adv-x="480" 
d="M191 593q0 -60 -28.5 -89.5t-82.5 -20.5l6 47q31 -3 43 17.5t9 55.5h-58v120h111v-130zM345 593q0 -60 -28.5 -89.5t-82.5 -20.5l6 47q31 -3 43 17.5t9 55.5h-58v120h111v-130z" />
    <glyph glyph-name="quotedblbase" unicode="&#x201e;" horiz-adv-x="520" 
d="M191 107q0 -60 -28.5 -89.5t-82.5 -20.5l6 47q31 -3 43 17.5t9 55.5h-58v120h111v-130zM345 107q0 -60 -28.5 -89.5t-82.5 -20.5l6 47q31 -3 43 17.5t9 55.5h-58v120h111v-130z" />
    <glyph glyph-name="bullet" unicode="&#x2022;" horiz-adv-x="687" 
d="M346 137q-57 0 -96.5 38t-39.5 95t39.5 95t96.5 38q54 0 92.5 -38.5t38.5 -94.5t-38.5 -94.5t-92.5 -38.5z" />
    <glyph glyph-name="ellipsis" unicode="&#x2026;" horiz-adv-x="684" 
d="M80 111h111v-111h-111v111zM287 111h110v-111h-110v111zM493 111h111v-111h-111v111z" />
    <glyph glyph-name="guilsinglleft" unicode="&#x2039;" horiz-adv-x="630" 
d="M378 32l-238 238l238 238l52 -51l-187 -187l187 -187z" />
    <glyph glyph-name="guilsinglright" unicode="&#x203a;" horiz-adv-x="630" 
d="M252 32l-52 51l187 187l-187 187l52 51l238 -238z" />
    <glyph glyph-name="fraction" unicode="&#x2044;" horiz-adv-x="701" 
d="M70 10l-70 70l631 630l70 -71z" />
    <glyph glyph-name="Euro" unicode="&#x20ac;" horiz-adv-x="695" 
d="M466 84q69 -2 127 36l55 -86q-79 -49 -182 -49q-79 0 -146.5 30t-112.5 86t-66 134h-94v84h80q-2 28 -2 41q0 14 2 40h-80v84h94q19 78 66 135q91 116 259 116q102 0 182 -48l-56 -87q-54 36 -126 36q-116 0 -175 -81q-24 -30 -37 -71h259v-84h-275q-2 -26 -2 -40
q0 -13 2 -41h275v-84h-259q15 -41 37 -70q59 -81 175 -81z" />
    <glyph glyph-name="uni20B4" unicode="&#x20b4;" horiz-adv-x="660" 
d="M545 474h55v-84h-539l-1 84h365l2 3q17 22 17 56q0 41 -28 69q-31 33 -83 33q-51 0 -88 -44q-22 -27 -25 -58h-110q4 63 49 121q64 81 174 81q95 0 157 -57q64 -59 64 -147q0 -30 -9 -57zM600 330v-84h-370q-25 -25 -25 -59q0 -46 34 -73q35 -29 93 -29q62 0 102 55
q16 18 23 47h107q-6 -56 -41 -104q-30 -47 -82.5 -72.5t-113.5 -25.5q-82 0 -141 38q-43 25 -67 69.5t-24 92.5q0 34 10 61h-45v84h540z" />
    <glyph glyph-name="uni20BD" unicode="&#x20bd;" horiz-adv-x="714" 
d="M687 489q1 -76 -51 -142q-31 -40 -79.5 -64t-102.5 -24h-209v-82h212v-84h-212v-93h-105v93h-70v84h70v82h-70v99h70v362h314q39 0 75 -12q64 -23 103 -73q53 -61 55 -146zM552 408q29 38 28 81q-2 54 -35 89q-40 43 -91 43h-209v-263h209q58 0 98 50z" />
    <glyph glyph-name="uni2116" unicode="&#x2116;" horiz-adv-x="1123" 
d="M893 375q-74 0 -127 52.5t-53 127.5q0 73 54 126.5t126 53.5q74 0 127 -52.5t53 -127.5t-53 -127.5t-127 -52.5zM176 720l355 -535v535h106v-720h-106l-355 535v-535h-106v720h106zM893 456q41 0 70.5 29t29.5 70t-29.5 70t-70.5 29t-70 -29t-29 -70t29 -70t70 -29z
M743 325h300v-84h-300v84z" />
    <glyph glyph-name="trademark" unicode="&#x2122;" horiz-adv-x="918" 
d="M60 650v70h330v-70h-126v-305h-77v305h-127zM857 720l1 -375h-78v215l-99 -215h-45l-99 215v-215h-78v375h69l130 -261l131 261h68z" />
    <glyph glyph-name="arrowleft" unicode="&#x2190;" horiz-adv-x="1008" 
d="M868 320v-84l-583 -1l144 -144l-51 -52l-238 238l238 239l51 -52l-144 -145z" />
    <glyph glyph-name="arrowup" unicode="&#x2191;" horiz-adv-x="717" 
d="M597 490l-52 -51l-145 144l1 -583h-84l-1 583l-144 -144l-52 51l238 238z" />
    <glyph glyph-name="arrowright" unicode="&#x2192;" horiz-adv-x="1008" 
d="M630 516l238 -239l-238 -238l-51 52l144 144l-583 1v84l583 -1l-144 145z" />
    <glyph glyph-name="arrowdown" unicode="&#x2193;" horiz-adv-x="717" 
d="M545 281l52 -51l-239 -238l-238 238l52 51l144 -144l1 583h84l-1 -583z" />
    <glyph glyph-name="carriagereturn" unicode="&#x21b5;" horiz-adv-x="814" 
d="M670 720h84v-484l-469 -1l144 -144l-51 -52l-238 238l238 239l51 -52l-144 -145l385 1v400z" />
    <glyph glyph-name="minus" unicode="&#x2212;" horiz-adv-x="540" 
d="M60 325h420v-84h-420v84z" />
    <glyph glyph-name="notequal" unicode="&#x2260;" horiz-adv-x="750" 
d="M630 323h-160l-83 -106h243v-84h-308l-80 -103l-67 50l41 53h-96v84h161l83 106h-244v84h309l80 103l67 -50l-41 -53h95v-84z" />
    <glyph glyph-name="i.loclTRK" horiz-adv-x="265" 
d="M80 727h105v-102h-105v102zM80 540h105v-540h-105v540z" />
    <glyph glyph-name="a.alt" horiz-adv-x="600" 
d="M156 394l-96 46q2 2 6.5 9.5t7.5 10.5q69 94 204 94q162 0 221 -114q24 -47 24 -101v-339h-92v101q-11 -25 -34.5 -47.5t-48.5 -35.5q-61 -34 -133 -32q-40 1 -78.5 19.5t-60.5 47.5q-36 53 -36 105q0 43 22.5 80.5t60.5 60.5q17 9 33.5 15.5t38 11.5t33.5 7.5t43 7
t44 6.5l101 14q-8 45 -43 69q-39 28 -97 26q-73 0 -108 -46q-11 -13 -12 -16zM419 274q-66 -10 -118 -20q-37 -6 -57.5 -10.5t-47 -14.5t-39 -26t-12.5 -38q-2 -33 23.5 -57.5t63.5 -25.5q53 -2 103.5 25.5t68.5 75.5q15 35 15 91z" />
    <glyph glyph-name="e.alt" horiz-adv-x="600" 
d="M147 241q5 -68 36 -108q41 -56 121 -56q78 0 122 54q12 14 18 27l90 -48q-13 -23 -26 -39q-74 -86 -198 -86q-61 0 -116.5 23t-90.5 66q-63 79 -63 191q0 122 63 201q74 89 201 89q130 0 201 -89q63 -77 63 -197q0 -19 -1 -28h-420zM304 463q-80 0 -121 -56
q-25 -31 -33 -82h309q-8 51 -33 82q-41 56 -122 56z" />
    <glyph glyph-name="uni0414.loclBGR" horiz-adv-x="769" 
d="M653 99h66v-186h-100v87h-488v-87h-99v186h66l202 621h151zM207 99h336l-169 515z" />
    <glyph glyph-name="uni0416.loclBGR" horiz-adv-x="984" 
d="M5 0l244 375l-224 345h126l190 -303h98v303h106v-303h98l190 303h126l-224 -345l244 -375h-127l-209 333h-98v-333h-106v333h-98l-209 -333h-127z" />
    <glyph glyph-name="uni041A.loclBGR" horiz-adv-x="646" 
d="M646 0h-134l-261 315h-75v-315h-106v720h106v-305h74l232 305h131l-267 -354z" />
    <glyph glyph-name="uni041B.loclBGR" horiz-adv-x="628" 
d="M239 720h150l234 -720h-108l-202 614l-200 -614h-108z" />
    <glyph glyph-name="uni0432.loclBGR" horiz-adv-x="600" 
d="M286 735q79 0 136 -42q38 -27 59.5 -70t21.5 -87q0 -49 -25 -88q-17 -29 -45 -52q53 -24 82 -58q48 -52 48 -128q0 -93 -67 -159q-69 -66 -180 -66q-124 0 -189 69q-57 57 -57 154v332q0 45 21.5 86.5t59.5 68.5q55 40 135 40zM286 636q-39 0 -70 -22q-39 -28 -39 -75
v-331q0 -63 37 -93q38 -32 105 -32t108 47q30 38 30 79q0 60 -56 94q-44 28 -114 33v93q57 10 84 41q26 27 26 64q0 48 -41 80q-28 22 -70 22z" />
    <glyph glyph-name="uni0433.loclBGR" horiz-adv-x="544" 
d="M43 398q14 41 44.5 76t69.5 54q51 27 114 27q69 0 117 -20q41 -18 67 -54.5t26 -81.5q0 -53 -33 -89q-28 -30 -93 -54q-21 -8 -124 -37q-45 -13 -65 -24q-29 -16 -29 -46t28 -50q31 -22 92 -22q79 0 117 45q27 29 31 78l99 -24q-2 -7 -7.5 -24.5t-7 -22.5t-6.5 -17.5
t-9 -19t-11 -16t-16 -19.5q-65 -72 -189 -72q-88 0 -145 36q-33 20 -53 55t-20 73q0 71 61 118q38 31 104 48q66 18 106 30q33 9 51 20q22 13 22 38q0 31 -37 47q-31 15 -70 13q-44 -2 -77 -19q-38 -21 -58 -70z" />
    <glyph glyph-name="uni0434.loclBGR" horiz-adv-x="621" 
d="M459 540h92v-555q0 -73 -21 -119t-69 -77q-66 -43 -162 -43q-83 0 -139 45q-48 26 -75 72l97 47q8 -15 25 -29q35 -36 93 -36q66 0 106 33q24 19 32.5 43.5t7.5 65.5v52q-63 -54 -158 -54q-117 0 -187 87q-61 76 -61 198q0 121 61 199q69 86 189 86q101 0 169 -66v51z
M302 80q74 0 116 49q41 49 41 141t-41 141q-37 49 -112 49q-82 0 -120 -55q-35 -48 -35 -135q0 -88 34 -134q39 -56 117 -56z" />
    <glyph glyph-name="uni0436.loclBGR" horiz-adv-x="774" 
d="M755 540l-168 -269l177 -271h-118l-142 228h-70v-228h-94v228h-70l-142 -228h-118l177 271l-168 269h117l134 -228h70v408h94v-408h70l134 228h117z" />
    <glyph glyph-name="uni0437.loclBGR" horiz-adv-x="605" 
d="M59 382q10 89 90 138q59 35 152 35t152 -35q93 -57 93 -164q0 -68 -43 -115q-11 -16 -33 -34q31 -21 53 -55q42 -52 42 -123q0 -117 -93 -179q-66 -45 -171 -45q-102 0 -171 45q-79 53 -90 149l109 19q3 -54 43 -83q43 -33 109 -31q67 0 109 31q44 31 44 94t-44 94
q-42 31 -109 31h-49v101h49q59 0 94 24q40 26 40 77q0 50 -40 76q-35 24 -94 24t-94 -24q-36 -24 -39 -69z" />
    <glyph glyph-name="uni0438.loclBGR" horiz-adv-x="615" 
d="M440 540h105v-540h-93v66l-17 -20q-49 -55 -137 -60q-102 -7 -167 50q-45 39 -58.5 98.5t-12.5 143.5v262h106v-258q0 -125 50 -168q35 -32 94 -30q47 3 79 29q34 27 44 80q7 30 7 110v1v236z" />
    <glyph glyph-name="uni0439.loclBGR" horiz-adv-x="615" 
d="M292 600q-59 0 -101.5 42t-42.5 102h83q0 -25 18 -43t43 -18q26 0 43.5 17.5t17.5 43.5h83q0 -60 -42 -102t-102 -42zM440 540h105v-540h-93v66l-17 -20q-49 -55 -137 -60q-102 -7 -167 50q-45 39 -58.5 98.5t-12.5 143.5v262h106v-258q0 -125 50 -168q35 -32 94 -30
q47 3 79 29q34 27 44 80q7 30 7 110v1v236z" />
    <glyph glyph-name="uni045D.loclBGR" horiz-adv-x="606" 
d="M459 682l-28 -77l-254 95l27 78zM440 540h105v-540h-93v66l-17 -20q-49 -55 -137 -60q-102 -7 -167 50q-45 39 -58.5 98.5t-12.5 143.5v262h106v-258q0 -125 50 -168q35 -32 94 -30q47 3 79 29q34 27 44 80q7 30 7 110v1v236z" />
    <glyph glyph-name="uni043A.loclBGR" horiz-adv-x="533" 
d="M177 238v-238h-107l1 720h106v-398h56l160 218h120l-189 -259l209 -281h-121l-178 238h-57z" />
    <glyph glyph-name="uni043B.loclBGR" horiz-adv-x="539" 
d="M413 0l-143 409l-145 -409h-105l197 540h105l197 -540h-106z" />
    <glyph glyph-name="uni043D.loclBGR" horiz-adv-x="613" 
d="M438 540h105v-540h-105v232h-263v-232h-105v540h105v-204h263v204z" />
    <glyph glyph-name="uni043F.loclBGR" horiz-adv-x="615" 
d="M484 504q45 -39 58.5 -98.5t12.5 -143.5v-262h-106v258q0 125 -50 168q-35 32 -94 30q-47 -3 -79 -29q-34 -27 -44 -80q-7 -30 -7 -110v-1v-236h-105v540h93v-66l17 20q49 55 137 60q102 7 167 -50z" />
    <glyph glyph-name="uni0442.loclBGR" horiz-adv-x="884" 
d="M767 509q36 -34 46.5 -73.5t10.5 -104.5v-331h-106l1 324q0 40 -7 63.5t-28 43.5q-29 29 -74 29q-52 0 -84 -37q-26 -33 -26 -85v-7l-1 -331h-105v324q0 40 -7 63.5t-28 43.5q-29 29 -73 29q-53 0 -84 -37q-27 -33 -27 -85v-338h-105v540h93v-59q57 73 153 73
q81 0 127 -45q19 -17 34 -43v1q26 41 70 64t93 23q81 0 127 -45z" />
    <glyph glyph-name="uni0447.loclBGR" horiz-adv-x="595" 
d="M420 540h105v-540h-105v173q-58 -50 -142 -53q-92 -3 -157 52q-49 40 -65.5 96t-15.5 138v134h106v-134q0 -115 50 -155q35 -31 94 -29q47 2 79 28q35 29 44 81q7 29 7 106v1v102z" />
    <glyph glyph-name="uni0446.loclBGR" horiz-adv-x="670" 
d="M545 99h85v-186h-105v87h-73v66l-17 -20q-49 -55 -137 -60q-102 -7 -167 50q-45 39 -58.5 98.5t-12.5 143.5v262h106v-258q0 -125 50 -168q35 -32 94 -30q47 3 79 29q34 27 44 80q7 30 7 110v1v236h105v-441z" />
    <glyph glyph-name="uni0448.loclBGR" horiz-adv-x="884" 
d="M709 540h105v-540h-93v59q-57 -73 -153 -73q-81 0 -127 45q-19 17 -34 43v-1q-26 -41 -70 -64t-93 -23q-81 0 -127 45q-36 34 -46.5 73.5t-10.5 104.5v331h106l-1 -324q0 -40 7 -63.5t28 -43.5q29 -29 74 -29q52 0 84 37q26 33 26 85v7l1 331h105v-324q0 -40 7 -63.5
t28 -43.5q29 -29 73 -29q53 0 84 37q27 33 27 85v338z" />
    <glyph glyph-name="uni0449.loclBGR" horiz-adv-x="939" 
d="M814 99h85v-186h-105v87h-73v59q-57 -73 -153 -73q-81 0 -127 45q-19 17 -34 43v-1q-26 -41 -70 -64t-93 -23q-81 0 -127 45q-36 34 -46.5 73.5t-10.5 104.5v331h106l-1 -324q0 -40 7 -63.5t28 -43.5q29 -29 74 -29q52 0 84 37q26 33 26 85v7l1 331h105v-324
q0 -40 7 -63.5t28 -43.5q29 -29 73 -29q53 0 84 37q27 33 27 85v338h105v-441z" />
    <glyph glyph-name="uni044C.loclBGR" horiz-adv-x="539" 
d="M70 540h106v-188h147q76 0 125 -49q51 -48 51 -127q0 -78 -51 -127q-49 -49 -125 -49h-253v540zM176 252v-153h143q30 0 52 24q21 21 21 53q0 29 -20 51q-22 25 -53 25h-143z" />
    <glyph glyph-name="uni044E.loclBGR" horiz-adv-x="828" 
d="M724 466q64 -78 64 -196q0 -117 -64 -196q-73 -89 -201 -89q-127 0 -201 89q-49 62 -60 144h-87v-218h-105v720h105v-398h88q11 85 59 144q74 89 201 89q130 0 201 -89zM641 138q36 48 36 132q0 85 -36 133q-38 53 -118 53q-79 0 -117 -53q-36 -48 -36 -133
q0 -84 36 -132q39 -54 117 -54q79 0 118 54z" />
    <glyph glyph-name="uni0431.loclSRB" horiz-adv-x="593" 
d="M307 508q117 2 185 -80q61 -73 61 -183q3 -110 -69 -187q-75 -76 -191 -73q-117 0 -187 82q-60 68 -65 184q-3 131 9 211q21 138 113 202q76 56 229 56q52 0 118 -11v-97q-67 10 -118 10q-119 4 -173 -34q-55 -39 -68 -146q64 66 156 66zM297 414q-71 2 -110 -45
q-35 -40 -35 -117q0 -76 35 -118q39 -46 110 -46t110 46q36 42 36 117q0 76 -36 118q-39 47 -110 45z" />
    <glyph glyph-name="zero.tf" horiz-adv-x="620" 
d="M310 -14q120 0 191 81q60 73 60 182v223q0 58 -13.5 100t-48.5 83q-34 38 -84 59.5t-105 20.5q-117 2 -190 -80q-61 -70 -61 -183v-223q0 -113 60 -182q73 -81 191 -81zM310 636q37 0 70 -19t52 -50q22 -33 22 -95v-223q0 -63 -23 -98q-21 -31 -53 -49t-68 -17
q-37 -1 -69.5 17t-52.5 49q-22 34 -22 98v223q0 58 20 94q20 32 53 51t71 19z" />
    <glyph glyph-name="one.tf" horiz-adv-x="620" 
d="M295 720h106v-720h-106v605l-136 -82v116z" />
    <glyph glyph-name="two.tf" horiz-adv-x="620" 
d="M70 500q-3 106 81 180q65 55 165 55q111 0 174 -72q65 -68 65 -165q0 -67 -27 -113.5t-90 -101.5l-207 -183h312v-99h-477v99l316 274q65 57 65 125q0 57 -39 96q-39 41 -97 41q-48 0 -88 -33q-46 -43 -46 -103h-107z" />
    <glyph glyph-name="three.tf" horiz-adv-x="620" 
d="M484 378q55 -64 52 -155q-3 -114 -80 -179q-62 -55 -160 -58q-92 -2 -160 57q-52 44 -72 110l101 28q13 -41 41 -63q40 -34 90 -32q53 0 89 33q44 37 44 104q0 66 -41 104q-37 34 -93 34q-35 0 -68 -18l-49 83l207 195h-292v99h433v-103l-179 -168q82 -12 137 -71z" />
    <glyph glyph-name="four.tf" horiz-adv-x="620" 
d="M494 224h71v-98h-71v-126h-106v126h-322v98l234 496h109l-234 -496h213v195h106v-195z" />
    <glyph glyph-name="five.tf" horiz-adv-x="620" 
d="M114 720h379v-99h-286l-11 -198q56 40 123 40q88 0 158 -59q77 -71 75 -177q-2 -101 -74 -172q-66 -66 -173 -69q-98 -2 -169 66q-48 45 -67 112l100 27q11 -41 40 -67q41 -38 96 -38q58 0 100 40q42 42 42 101q0 60 -45 102q-41 38 -97 38q-55 0 -93 -36
q-19 -17 -28 -34l-92 53z" />
    <glyph glyph-name="six.tf" horiz-adv-x="620" 
d="M514 649l-76 -72q-46 59 -117 59q-39 0 -73.5 -19.5t-52.5 -52.5q-26 -40 -26 -100v-67q64 66 155 66q93 0 161 -62q73 -70 72 -175q0 -100 -73 -170q-72 -72 -174 -70q-49 -1 -95 18t-80 54q-72 69 -72 198v208q0 118 65 190q70 80 193 80q119 2 193 -85zM363 108
q51 20 71 74q17 49 -5 98q-22 50 -72 69t-100 -3q-50 -21 -70 -74q-18 -50 4 -98q21 -46 70 -67t102 1z" />
    <glyph glyph-name="seven.tf" horiz-adv-x="620" 
d="M169 0l253 620h-326v100h433v-100l-253 -620h-107z" />
    <glyph glyph-name="eight.tf" horiz-adv-x="620" 
d="M87 535q3 101 73 154q58 46 149 46q93 0 150 -46q73 -55 73 -154q0 -59 -32 -104q-12 -21 -38 -45q33 -24 56 -64q33 -49 33 -113q-3 -109 -75 -168q-64 -56 -167 -56q-101 0 -166 56q-74 62 -74 168q0 66 33 113q21 39 55 64q-28 28 -38 45q-34 47 -32 104zM198 535
q0 -49 30 -75t81 -26q52 0 82 26q28 24 30 75q0 49 -30 74q-32 28 -82 26q-51 0 -80 -26q-31 -24 -31 -74zM405 117q35 34 35 92q0 60 -35 92q-34 33 -96 33q-61 0 -95 -33q-34 -31 -34 -92q0 -59 34 -92q36 -33 95 -33q60 0 96 33z" />
    <glyph glyph-name="nine.tf" horiz-adv-x="620" 
d="M106 71l76 72q46 -59 117 -59q39 0 73.5 19.5t52.5 52.5q26 40 26 100v67q-64 -66 -155 -66q-93 0 -161 62q-73 70 -72 175q0 100 73 170q72 72 174 70q49 1 95 -18t80 -54q72 -69 72 -198v-208q0 -118 -65 -190q-70 -80 -193 -80q-119 -2 -193 85zM257 612
q-51 -20 -71 -74q-17 -49 5 -98q22 -50 72 -69t100 3q50 21 70 74q18 50 -4 98q-21 46 -70 67t-102 -1z" />
    <glyph glyph-name="exclamdown.case" horiz-adv-x="345" 
d="M120 619v101h105v-101h-105zM120 0v540h105v-540h-105z" />
    <glyph glyph-name="questiondown.case" horiz-adv-x="544" 
d="M339 720v-121h-111v121h111zM50 183q0 86 72 163q11 12 44.5 41t44.5 47q12 22 14.5 38t2.5 52h111q0 -78 -27 -127q-12 -24 -30 -41.5t-44 -37.5t-44 -39q-33 -38 -33 -93q0 -41 19 -64q30 -37 92 -37q55 0 82 26q31 26 29 74h110q-8 -102 -78 -154q-57 -45 -140 -45
q-120 0 -179 70q-46 52 -46 127z" />
    <glyph glyph-name="periodcentered.case" horiz-adv-x="613" 
d="M308 293q-29 0 -48.5 19.5t-19.5 47.5t19.5 47.5t48.5 19.5q27 0 46 -19.5t19 -47.5t-19 -47.5t-46 -19.5z" />
    <glyph glyph-name="parenleft.case" horiz-adv-x="422" 
d="M332 828l-86 49q-66 -113 -99 -252q-29 -131 -27 -264q2 -148 27 -265q37 -147 99 -251l86 49q-107 188 -105 467q2 285 105 467z" />
    <glyph glyph-name="parenright.case" horiz-adv-x="422" 
d="M90 828q103 -182 105 -467q2 -279 -105 -467l86 -49q62 104 99 251q25 117 27 265q2 133 -27 264q-33 139 -99 252z" />
    <glyph glyph-name="braceleft.case" horiz-adv-x="468" 
d="M378 -119v99h-59q-17 0 -28.5 12t-11.5 28v228q0 43 -26 80l-23 32l23 32q26 37 26 80v228q0 16 11.5 28t28.5 12h59v99h-59q-58 0 -99 -41t-41 -98v-228q0 -12 -7 -22l-43 -62q-20 -28 0 -56l43 -62q7 -8 7 -22v-228q0 -57 41 -98t99 -41h59z" />
    <glyph glyph-name="braceright.case" horiz-adv-x="468" 
d="M90 -119h59q58 0 99 41t41 98v228q0 14 7 22l43 62q20 28 0 56l-43 62q-7 10 -7 22v228q0 57 -41 98t-99 41h-59v-99h59q17 0 28.5 -12t11.5 -28v-228q0 -43 26 -80l23 -32l-23 -32q-26 -37 -26 -80v-228q0 -16 -11.5 -28t-28.5 -12h-59v-99z" />
    <glyph glyph-name="bracketleft.case" horiz-adv-x="398" 
d="M328 840h-114v-920h114v-94h-208v1108h208v-94z" />
    <glyph glyph-name="bracketright.case" horiz-adv-x="398" 
d="M278 934v-1108h-208v94h114v920h-114v94h208z" />
    <glyph glyph-name="hyphen.case" horiz-adv-x="420" 
d="M60 402h300v-84h-300v84z" />
    <glyph glyph-name="endash.case" horiz-adv-x="540" 
d="M60 402h420v-84h-420v84z" />
    <glyph glyph-name="emdash.case" horiz-adv-x="780" 
d="M60 402h660v-84h-660v84z" />
    <glyph glyph-name="guillemotleft.case" 
d="M255 140l58 45l-140 175l140 175l-58 45l-175 -220zM448 140l58 45l-139 175l139 175l-58 45l-175 -220z" />
    <glyph glyph-name="guillemotright.case" 
d="M121 140l175 220l-175 220l-58 -45l140 -175l-140 -175zM314 140l175 220l-175 220l-57 -45l139 -175l-139 -175z" />
    <glyph glyph-name="guilsinglleft.case" horiz-adv-x="630" 
d="M378 122l-238 238l238 238l52 -51l-187 -187l187 -187z" />
    <glyph glyph-name="guilsinglright.case" horiz-adv-x="630" 
d="M252 122l-52 51l187 187l-187 187l52 51l238 -238z" />
    <glyph glyph-name="greater.case" horiz-adv-x="630" 
d="M252 122l-52 51l187 187l-187 187l52 51l238 -238z" />
    <glyph glyph-name="less.case" horiz-adv-x="630" 
d="M378 122l-238 238l238 238l52 -51l-187 -187l187 -187z" />
    <glyph glyph-name="arrowright.case" horiz-adv-x="1008" 
d="M630 598l238 -238l-238 -238l-51 51l144 145h-583v84h583l-144 145z" />
    <glyph glyph-name="arrowleft.case" horiz-adv-x="1008" 
d="M868 402v-84h-583l144 -145l-51 -51l-238 238l238 238l51 -51l-144 -145h583z" />
    <glyph glyph-name="at.case" horiz-adv-x="915" 
d="M835 360q-2 -116 -63 -172q-36 -34 -88 -34t-90 29q-22 17 -36 38q-44 -36 -108 -36q-70 0 -117 42q-53 48 -55 133q2 86 55 132q51 43 118 43q56 0 102 -33v19h67l-2 -201q0 -43 16 -61q15 -20 46 -20q25 0 41 19q24 30 24 102q0 109 -50 182q-38 53 -101 80.5
t-136 27.5q-116 0 -195 -62q-49 -37 -72 -100t-21 -136q2 -125 68 -196q79 -87 222 -87q72 0 135 29l31 -79q-74 -34 -169 -34q-184 0 -285 115q-89 93 -92 249q-4 91 29.5 173.5t100.5 134.5q98 78 241 78q212 0 315 -143q67 -95 69 -232zM539 360q-2 39 -14 58
q-20 32 -67 32q-42 2 -67 -22q-26 -26 -24 -68q-2 -42 24 -68q23 -22 64 -22q47 0 70 31q12 20 14 59z" />
    <glyph glyph-name="copyright.case" horiz-adv-x="892" 
d="M446 -39q166 0 282.5 116.5t116.5 282.5t-116.5 282.5t-282.5 116.5t-282.5 -116.5t-116.5 -282.5t116.5 -282.5t282.5 -116.5zM446 60q-124 0 -212 88t-88 212t88 212t212 88t212 -88t88 -212t-88 -212t-212 -88zM618 471l-76 -32q-4 10 -10 17q-27 39 -84 39
q-54 0 -84 -39q-26 -35 -26 -95q0 -59 26 -94q29 -39 84 -39q54 0 84 39q5 7 10 16l76 -33q-12 -21 -22 -32q-51 -66 -148 -66q-43 -1 -83 16.5t-65 49.5q-49 58 -47 143q0 89 47 145q53 65 148 65t148 -65q17 -22 22 -35z" />
    </font>
</defs>
</svg>
